<?xml version="1.0" encoding="UTF-8"?>
<!DOCTYPE svg PUBLIC "-//W3C//DTD SVG 1.1//EN" "http://www.w3.org/Graphics/SVG/1.1/DTD/svg11.dtd">
<svg xmlns="http://www.w3.org/2000/svg" version="1.1" width="500px" height="500px" style="shape-rendering:geometricPrecision; text-rendering:geometricPrecision; image-rendering:optimizeQuality; fill-rule:evenodd; clip-rule:evenodd" xmlns:xlink="http://www.w3.org/1999/xlink">
<g><path style="opacity:1" fill="#ebeff0" d="M -0.5,-0.5 C 62.8333,-0.5 126.167,-0.5 189.5,-0.5C 156.143,14.6818 130.143,38.1818 111.5,70C 77.0296,132.913 63.1962,200.413 70,272.5C 71.7317,306.981 72.8984,341.481 73.5,376C 73.1954,402.564 71.862,429.064 69.5,455.5C 49.6501,461.007 33.1501,471.674 20,487.5C 17.1735,491.155 15.0068,495.155 13.5,499.5C 8.83333,499.5 4.16667,499.5 -0.5,499.5C -0.5,332.833 -0.5,166.167 -0.5,-0.5 Z"/></g>
<g><path style="opacity:1" fill="#29222a" d="M 195.5,-0.5 C 231.5,-0.5 267.5,-0.5 303.5,-0.5C 330.43,10.9117 352.93,28.245 371,51.5C 404.706,98.9466 422.706,151.947 425,210.5C 425.667,230.167 425.667,249.833 425,269.5C 421.863,318.809 421.197,368.142 423,417.5C 424.556,445.169 428.39,472.502 434.5,499.5C 429.167,499.5 423.833,499.5 418.5,499.5C 411.106,474.36 406.606,448.694 405,422.5C 404.858,448.195 405.691,473.861 407.5,499.5C 404.167,499.5 400.833,499.5 397.5,499.5C 385.757,463.077 381.59,425.743 385,387.5C 389.681,342.9 396.181,298.566 404.5,254.5C 404.154,253.304 403.654,253.304 403,254.5C 387.317,318.974 374.317,381.974 364,443.5C 361.89,425.461 362.224,407.461 365,389.5C 373.701,343.998 381.367,298.332 388,252.5C 391.82,218.736 391.153,185.07 386,151.5C 380.678,122.544 369.178,96.5438 351.5,73.5C 345.135,67.4654 339.469,60.7988 334.5,53.5C 328.681,48.1816 323.015,42.6816 317.5,37C 316.833,36.3333 316.167,36.3333 315.5,37C 324.673,45.9071 333.006,55.4071 340.5,65.5C 361.742,100.217 375.075,137.884 380.5,178.5C 370.938,175.988 361.271,173.988 351.5,172.5C 346.198,146.43 337.031,121.763 324,98.5C 327.069,112.501 330.402,126.501 334,140.5C 336.014,150.767 337.514,161.1 338.5,171.5C 333.187,170.902 327.854,170.569 322.5,170.5C 320.554,145.601 315.72,121.268 308,97.5C 309.714,114.911 310.88,132.244 311.5,149.5C 311.287,156.174 310.954,162.841 310.5,169.5C 312.833,169.5 315.167,169.5 317.5,169.5C 317.5,169.833 317.5,170.167 317.5,170.5C 313.167,170.5 308.833,170.5 304.5,170.5C 301.853,137.395 293.019,106.062 278,76.5C 281.496,94.805 284.329,113.138 286.5,131.5C 287.583,145.494 288.583,159.494 289.5,173.5C 278.122,175.024 268.122,179.524 259.5,187C 257.203,187.018 254.869,186.851 252.5,186.5C 248.776,156.916 245.942,127.249 244,97.5C 235.742,124.894 231.909,152.894 232.5,181.5C 225.902,178.635 219.235,175.968 212.5,173.5C 211.459,163.179 210.459,152.846 209.5,142.5C 206.769,152.288 205.435,162.288 205.5,172.5C 199.5,171.833 193.5,171.167 187.5,170.5C 188.087,154.49 188.921,138.49 190,122.5C 192.631,115.308 194.631,107.974 196,100.5C 184.657,115.881 178.323,133.214 177,152.5C 176.501,158.491 176.334,164.491 176.5,170.5C 168.836,170.889 161.17,171.222 153.5,171.5C 154.399,144.46 161.566,119.46 175,96.5C 160.086,110.997 151.586,128.664 149.5,149.5C 147.041,157.545 144.374,165.545 141.5,173.5C 136.111,174.245 130.778,175.245 125.5,176.5C 129.108,162.368 133.774,148.701 139.5,135.5C 154.111,101.784 174.111,71.6172 199.5,45C 194.886,46.7513 190.886,49.5846 187.5,53.5C 185.091,54.7007 183.091,56.3674 181.5,58.5C 144.119,90.5715 121.786,131.238 114.5,180.5C 112.448,188.407 111.781,196.407 112.5,204.5C 117.588,250.201 123.088,295.867 129,341.5C 135.174,392.108 135.841,442.774 131,493.5C 132.988,449.991 130.988,406.657 125,363.5C 121.649,339.391 117.649,315.391 113,291.5C 114.33,310.137 115.663,328.804 117,347.5C 119.718,398.692 115.884,449.358 105.5,499.5C 104.5,499.5 103.5,499.5 102.5,499.5C 103.224,469.52 101.058,439.854 96,410.5C 95.105,440.594 91.2717,470.261 84.5,499.5C 78.1667,499.5 71.8333,499.5 65.5,499.5C 76.2985,451.128 80.6318,402.128 78.5,352.5C 77.4386,302.836 76.9386,253.169 77,203.5C 80.258,152.737 94.9247,105.737 121,62.5C 139.318,33.6734 164.151,12.6734 195.5,-0.5 Z"/></g>
<g><path style="opacity:1" fill="#ebeff0" d="M 307.5,-0.5 C 371.5,-0.5 435.5,-0.5 499.5,-0.5C 499.5,166.167 499.5,332.833 499.5,499.5C 493.833,499.5 488.167,499.5 482.5,499.5C 473.069,479.915 457.735,467.415 436.5,462C 434.635,461.036 432.968,459.869 431.5,458.5C 428.84,433.912 427.507,409.246 427.5,384.5C 428.013,350.145 429.18,315.812 431,281.5C 439.394,207.138 425.394,137.471 389,72.5C 369.528,39.525 342.361,15.1917 307.5,-0.5 Z"/></g>
<g><path style="opacity:1" fill="#050606" d="M 189.5,-0.5 C 191.5,-0.5 193.5,-0.5 195.5,-0.5C 164.151,12.6734 139.318,33.6734 121,62.5C 94.9247,105.737 80.258,152.737 77,203.5C 76.9386,253.169 77.4386,302.836 78.5,352.5C 80.6318,402.128 76.2985,451.128 65.5,499.5C 64.5,499.5 63.5,499.5 62.5,499.5C 64.6094,487.843 66.6094,476.176 68.5,464.5C 68.5,463.833 68.5,463.167 68.5,462.5C 69.4682,460.393 69.8016,458.059 69.5,455.5C 71.862,429.064 73.1954,402.564 73.5,376C 72.8984,341.481 71.7317,306.981 70,272.5C 63.1962,200.413 77.0296,132.913 111.5,70C 130.143,38.1818 156.143,14.6818 189.5,-0.5 Z"/></g>
<g><path style="opacity:1" fill="#060606" d="M 303.5,-0.5 C 304.833,-0.5 306.167,-0.5 307.5,-0.5C 342.361,15.1917 369.528,39.525 389,72.5C 425.394,137.471 439.394,207.138 431,281.5C 429.18,315.812 428.013,350.145 427.5,384.5C 427.507,409.246 428.84,433.912 431.5,458.5C 431.833,460.5 432.167,462.5 432.5,464.5C 432.298,466.95 432.631,469.283 433.5,471.5C 434.616,480.865 435.95,490.198 437.5,499.5C 436.5,499.5 435.5,499.5 434.5,499.5C 428.39,472.502 424.556,445.169 423,417.5C 421.197,368.142 421.863,318.809 425,269.5C 425.667,249.833 425.667,230.167 425,210.5C 422.706,151.947 404.706,98.9466 371,51.5C 352.93,28.245 330.43,10.9117 303.5,-0.5 Z"/></g>
<g><path style="opacity:1" fill="#373237" d="M 307.5,13.5 C 308.251,12.4265 309.251,12.2599 310.5,13C 348.714,29.8703 374.214,58.0369 387,97.5C 374.402,70.2439 356.569,47.0772 333.5,28C 325.263,22.3819 316.596,17.5485 307.5,13.5 Z"/></g>
<g><path style="opacity:1" fill="#373137" d="M 176.5,20.5 C 177.239,20.369 177.906,20.5357 178.5,21C 141.136,52.5625 114.303,91.3959 98,137.5C 96.4104,144.115 95.077,150.782 94,157.5C 94.6161,143.363 97.6161,129.696 103,116.5C 118.711,77.6407 143.211,45.6407 176.5,20.5 Z"/></g>
<g><path style="opacity:1" fill="#1c151d" d="M 139.5,135.5 C 145.96,113.247 156.126,92.9141 170,74.5C 176.167,67.6667 182.333,60.8333 188.5,54C 188.272,53.6012 187.938,53.4346 187.5,53.5C 190.886,49.5846 194.886,46.7513 199.5,45C 174.111,71.6172 154.111,101.784 139.5,135.5 Z"/></g>
<g><path style="opacity:1" fill="#383238" d="M 300.5,37.5 C 300.897,36.475 301.563,36.3083 302.5,37C 332.793,66.7494 351.626,102.583 359,144.5C 349.858,111.358 335.191,81.0249 315,53.5C 310.301,47.9714 305.468,42.638 300.5,37.5 Z"/></g>
<g><path style="opacity:1" fill="#1b141c" d="M 181.5,58.5 C 171.438,68.7312 162.271,79.7312 154,91.5C 138.367,117.901 128.2,146.234 123.5,176.5C 120.572,177.817 117.572,179.15 114.5,180.5C 121.786,131.238 144.119,90.5715 181.5,58.5 Z"/></g>
<g><path style="opacity:1" fill="#030204" d="M 351.5,73.5 C 370.563,106.444 381.229,141.777 383.5,179.5C 378.329,144.821 367.829,111.821 352,80.5C 348.631,75.071 344.798,70.071 340.5,65.5C 333.006,55.4071 324.673,45.9071 315.5,37C 316.167,36.3333 316.833,36.3333 317.5,37C 323.015,42.6816 328.681,48.1816 334.5,53.5C 339.469,60.7988 345.135,67.4654 351.5,73.5 Z"/></g>
<g><path style="opacity:1" fill="#1a141b" d="M 340.5,65.5 C 344.798,70.071 348.631,75.071 352,80.5C 367.829,111.821 378.329,144.821 383.5,179.5C 382.609,178.89 381.609,178.557 380.5,178.5C 375.075,137.884 361.742,100.217 340.5,65.5 Z"/></g>
<g><path style="opacity:1" fill="#1b141c" d="M 304.5,170.5 C 303.609,171.11 302.609,171.443 301.5,171.5C 299.806,145.274 294.306,119.941 285,95.5C 285.387,107.484 285.887,119.484 286.5,131.5C 284.329,113.138 281.496,94.805 278,76.5C 293.019,106.062 301.853,137.395 304.5,170.5 Z"/></g>
<g><path style="opacity:1" fill="#040305" d="M 187.5,53.5 C 187.938,53.4346 188.272,53.6012 188.5,54C 182.333,60.8333 176.167,67.6667 170,74.5C 156.126,92.9141 145.96,113.247 139.5,135.5C 133.774,148.701 129.108,162.368 125.5,176.5C 124.833,176.5 124.167,176.5 123.5,176.5C 128.2,146.234 138.367,117.901 154,91.5C 162.271,79.7312 171.438,68.7312 181.5,58.5C 183.091,56.3674 185.091,54.7007 187.5,53.5 Z"/></g>
<g><path style="opacity:1" fill="#1b141c" d="M 351.5,73.5 C 369.178,96.5438 380.678,122.544 386,151.5C 391.153,185.07 391.82,218.736 388,252.5C 381.367,298.332 373.701,343.998 365,389.5C 362.224,407.461 361.89,425.461 364,443.5C 374.317,381.974 387.317,318.974 403,254.5C 403.654,253.304 404.154,253.304 404.5,254.5C 396.181,298.566 389.681,342.9 385,387.5C 381.59,425.743 385.757,463.077 397.5,499.5C 393.167,499.5 388.833,499.5 384.5,499.5C 382.31,475.722 380.977,451.889 380.5,428C 380.801,405.759 381.968,383.592 384,361.5C 377.883,398.259 375.883,435.259 378,472.5C 378.455,481.545 379.289,490.545 380.5,499.5C 369.167,499.5 357.833,499.5 346.5,499.5C 347.006,469.423 348.84,439.423 352,409.5C 358.831,349.519 365.331,289.519 371.5,229.5C 372.227,222.364 374.394,215.697 378,209.5C 380.251,207.623 382.751,206.123 385.5,205C 386.126,204.25 386.626,203.416 387,202.5C 386.907,196.189 386.574,189.856 386,183.5C 385.52,181.867 384.687,180.534 383.5,179.5C 381.229,141.777 370.563,106.444 351.5,73.5 Z"/></g>
<g><path style="opacity:1" fill="#171117" d="M 322.5,170.5 C 320.833,170.5 319.167,170.5 317.5,170.5C 317.5,170.167 317.5,169.833 317.5,169.5C 317.51,154.929 315.676,140.595 312,126.5C 311.5,134.159 311.334,141.826 311.5,149.5C 310.88,132.244 309.714,114.911 308,97.5C 315.72,121.268 320.554,145.601 322.5,170.5 Z"/></g>
<g><path style="opacity:1" fill="#181218" d="M 351.5,172.5 C 349.114,172.741 347.114,172.075 345.5,170.5C 344.462,163.016 342.796,155.683 340.5,148.5C 339.635,145.029 338.468,141.696 337,138.5C 337.058,142.396 337.892,146.062 339.5,149.5C 340.19,155.81 340.524,162.143 340.5,168.5C 340.715,170.179 340.048,171.179 338.5,171.5C 337.514,161.1 336.014,150.767 334,140.5C 330.402,126.501 327.069,112.501 324,98.5C 337.031,121.763 346.198,146.43 351.5,172.5 Z"/></g>
<g><path style="opacity:1" fill="#0a0809" d="M 252.5,186.5 C 251.833,185.167 251.167,183.833 250.5,182.5C 246.362,160.34 243.529,138.006 242,115.5C 238.424,134.031 235.924,152.697 234.5,171.5C 233.902,175.42 233.235,178.753 232.5,181.5C 231.909,152.894 235.742,124.894 244,97.5C 245.942,127.249 248.776,156.916 252.5,186.5 Z"/></g>
<g><path style="opacity:1" fill="#0c0a0b" d="M 301.5,171.5 C 299.94,169.844 298.94,167.844 298.5,165.5C 296.305,147.999 293.139,130.666 289,113.5C 290.598,132.127 291.764,150.793 292.5,169.5C 292.532,171.619 291.532,172.952 289.5,173.5C 288.583,159.494 287.583,145.494 286.5,131.5C 285.887,119.484 285.387,107.484 285,95.5C 294.306,119.941 299.806,145.274 301.5,171.5 Z"/></g>
<g><path style="opacity:1" fill="#cdb5b1" d="M 298.5,165.5 C 298.5,166.833 298.5,168.167 298.5,169.5C 296.5,169.5 294.5,169.5 292.5,169.5C 291.764,150.793 290.598,132.127 289,113.5C 293.139,130.666 296.305,147.999 298.5,165.5 Z"/></g>
<g><path style="opacity:1" fill="#1c151c" d="M 153.5,171.5 C 151.958,172.301 150.292,172.634 148.5,172.5C 150.983,151.731 156.65,131.897 165.5,113C 164.668,112.312 164.002,112.479 163.5,113.5C 157.819,125.228 153.152,137.228 149.5,149.5C 151.586,128.664 160.086,110.997 175,96.5C 161.566,119.46 154.399,144.46 153.5,171.5 Z"/></g>
<g><path style="opacity:1" fill="#dcc5c1" d="M 250.5,182.5 C 250.5,183.5 250.5,184.5 250.5,185.5C 237.507,189.847 232.173,185.18 234.5,171.5C 235.924,152.697 238.424,134.031 242,115.5C 243.529,138.006 246.362,160.34 250.5,182.5 Z"/></g>
<g><path style="opacity:1" fill="#120f12" d="M 187.5,170.5 C 186.508,170.672 185.842,170.338 185.5,169.5C 185.334,159.161 185.5,148.828 186,138.5C 187.143,132.176 187.81,125.842 188,119.5C 182.367,134.629 179.534,150.295 179.5,166.5C 178.978,168.219 177.978,169.552 176.5,170.5C 176.334,164.491 176.501,158.491 177,152.5C 178.323,133.214 184.657,115.881 196,100.5C 194.631,107.974 192.631,115.308 190,122.5C 188.921,138.49 188.087,154.49 187.5,170.5 Z"/></g>
<g><path style="opacity:1" fill="#ceb4b0" d="M 185.5,169.5 C 183.5,169.5 181.5,169.5 179.5,169.5C 179.5,168.5 179.5,167.5 179.5,166.5C 179.534,150.295 182.367,134.629 188,119.5C 187.81,125.842 187.143,132.176 186,138.5C 185.5,148.828 185.334,159.161 185.5,169.5 Z"/></g>
<g><path style="opacity:1" fill="#373137" d="M 121.5,110.5 C 122.043,110.56 122.376,110.893 122.5,111.5C 107.745,144.522 99.245,179.189 97,215.5C 95.5994,232.166 95.2661,248.832 96,265.5C 88.9399,211.195 97.4399,159.528 121.5,110.5 Z"/></g>
<g><path style="opacity:1" fill="#ceb4b0" d="M 317.5,169.5 C 315.167,169.5 312.833,169.5 310.5,169.5C 310.954,162.841 311.287,156.174 311.5,149.5C 311.334,141.826 311.5,134.159 312,126.5C 315.676,140.595 317.51,154.929 317.5,169.5 Z"/></g>
<g><path style="opacity:1" fill="#070508" d="M 148.5,172.5 C 147.833,172.5 147.167,172.5 146.5,172.5C 147.221,169.183 147.388,165.849 147,162.5C 145.326,166.021 144.16,169.687 143.5,173.5C 142.833,173.5 142.167,173.5 141.5,173.5C 144.374,165.545 147.041,157.545 149.5,149.5C 153.152,137.228 157.819,125.228 163.5,113.5C 164.002,112.479 164.668,112.312 165.5,113C 156.65,131.897 150.983,151.731 148.5,172.5 Z"/></g>
<g><path style="opacity:1" fill="#080608" d="M 212.5,173.5 C 210.952,173.179 210.285,172.179 210.5,170.5C 209.5,151.837 208.5,151.837 207.5,170.5C 207.5,171.833 206.833,172.5 205.5,172.5C 205.435,162.288 206.769,152.288 209.5,142.5C 210.459,152.846 211.459,163.179 212.5,173.5 Z"/></g>
<g><path style="opacity:1" fill="#877673" d="M 340.5,148.5 C 339.833,148.5 339.5,148.833 339.5,149.5C 337.892,146.062 337.058,142.396 337,138.5C 338.468,141.696 339.635,145.029 340.5,148.5 Z"/></g>
<g><path style="opacity:1" fill="#d0b6b2" d="M 340.5,148.5 C 342.796,155.683 344.462,163.016 345.5,170.5C 344.432,171.434 343.099,171.768 341.5,171.5C 341.737,170.209 341.404,169.209 340.5,168.5C 340.524,162.143 340.19,155.81 339.5,149.5C 339.5,148.833 339.833,148.5 340.5,148.5 Z"/></g>
<g><path style="opacity:1" fill="#373237" d="M 392.5,132.5 C 403.467,158.648 407.634,185.981 405,214.5C 404.078,226.876 402.745,239.21 401,251.5C 402.295,228.198 402.629,204.865 402,181.5C 400.894,164.746 397.727,148.412 392.5,132.5 Z"/></g>
<g><path style="opacity:1" fill="#ac9895" d="M 210.5,170.5 C 209.5,170.5 208.5,170.5 207.5,170.5C 208.5,151.837 209.5,151.837 210.5,170.5 Z"/></g>
<g><path style="opacity:1" fill="#a7908d" d="M 146.5,172.5 C 145.791,173.404 144.791,173.737 143.5,173.5C 144.16,169.687 145.326,166.021 147,162.5C 147.388,165.849 147.221,169.183 146.5,172.5 Z"/></g>
<g><path style="opacity:1" fill="#2a1611" d="M 298.5,165.5 C 298.94,167.844 299.94,169.844 301.5,171.5C 302.609,171.443 303.609,171.11 304.5,170.5C 308.833,170.5 313.167,170.5 317.5,170.5C 319.167,170.5 320.833,170.5 322.5,170.5C 327.854,170.569 333.187,170.902 338.5,171.5C 340.048,171.179 340.715,170.179 340.5,168.5C 341.404,169.209 341.737,170.209 341.5,171.5C 343.099,171.768 344.432,171.434 345.5,170.5C 347.114,172.075 349.114,172.741 351.5,172.5C 361.271,173.988 370.938,175.988 380.5,178.5C 381.609,178.557 382.609,178.89 383.5,179.5C 384.687,180.534 385.52,181.867 386,183.5C 386.574,189.856 386.907,196.189 387,202.5C 386.626,203.416 386.126,204.25 385.5,205C 382.751,206.123 380.251,207.623 378,209.5C 374.394,215.697 372.227,222.364 371.5,229.5C 370.262,231.214 369.595,233.214 369.5,235.5C 366.597,239.63 363.93,243.963 361.5,248.5C 355.057,256.395 346.724,261.228 336.5,263C 301.678,270.675 277.511,258.175 264,225.5C 261.68,217.915 259.68,210.248 258,202.5C 255.959,200.026 253.292,199.026 250,199.5C 246.479,199.083 243.479,200.083 241,202.5C 238.206,222.586 229.706,239.753 215.5,254C 209.186,259.489 201.853,262.822 193.5,264C 174.988,267.379 157.988,264.046 142.5,254C 138.877,250.551 135.877,246.717 133.5,242.5C 131.344,237.342 129.011,232.342 126.5,227.5C 126.665,225.332 126.332,222.999 125.5,220.5C 124.448,212.346 120.114,207.013 112.5,204.5C 111.781,196.407 112.448,188.407 114.5,180.5C 117.572,179.15 120.572,177.817 123.5,176.5C 124.167,176.5 124.833,176.5 125.5,176.5C 130.778,175.245 136.111,174.245 141.5,173.5C 142.167,173.5 142.833,173.5 143.5,173.5C 144.791,173.737 145.791,173.404 146.5,172.5C 147.167,172.5 147.833,172.5 148.5,172.5C 150.292,172.634 151.958,172.301 153.5,171.5C 161.17,171.222 168.836,170.889 176.5,170.5C 177.978,169.552 178.978,168.219 179.5,166.5C 179.5,167.5 179.5,168.5 179.5,169.5C 181.5,169.5 183.5,169.5 185.5,169.5C 185.842,170.338 186.508,170.672 187.5,170.5C 193.5,171.167 199.5,171.833 205.5,172.5C 206.833,172.5 207.5,171.833 207.5,170.5C 208.5,170.5 209.5,170.5 210.5,170.5C 210.285,172.179 210.952,173.179 212.5,173.5C 219.235,175.968 225.902,178.635 232.5,181.5C 233.235,178.753 233.902,175.42 234.5,171.5C 232.173,185.18 237.507,189.847 250.5,185.5C 250.5,184.5 250.5,183.5 250.5,182.5C 251.167,183.833 251.833,185.167 252.5,186.5C 254.869,186.851 257.203,187.018 259.5,187C 268.122,179.524 278.122,175.024 289.5,173.5C 291.532,172.952 292.532,171.619 292.5,169.5C 294.5,169.5 296.5,169.5 298.5,169.5C 298.5,168.167 298.5,166.833 298.5,165.5 Z"/></g>
<g><path style="opacity:1" fill="#7e797d" d="M 206.5,178.5 C 206.5,181.167 206.5,183.833 206.5,186.5C 199.556,185.349 192.556,184.682 185.5,184.5C 185.5,181.833 185.5,179.167 185.5,176.5C 182.794,176.575 180.127,176.908 177.5,177.5C 177.664,180.187 177.497,182.854 177,185.5C 173.704,187.304 170.204,187.804 166.5,187C 162.5,185.833 158.5,184.667 154.5,183.5C 149.492,184.939 144.825,186.939 140.5,189.5C 138.046,190.227 135.713,191.227 133.5,192.5C 135.557,187.273 139.223,183.44 144.5,181C 165.079,174.694 185.745,173.861 206.5,178.5 Z"/></g>
<g><path style="opacity:1" fill="#7a767a" d="M 292.5,178.5 C 292.5,182.5 292.5,186.5 292.5,190.5C 285.131,191.24 277.798,192.24 270.5,193.5C 270.768,191.901 270.434,190.568 269.5,189.5C 276.211,183.979 283.877,180.312 292.5,178.5 Z"/></g>
<g><path style="opacity:1" fill="#777376" d="M 211.5,179.5 C 217.228,180.863 222.228,183.53 226.5,187.5C 222.119,187.372 217.785,187.705 213.5,188.5C 213.084,185.417 212.417,182.417 211.5,179.5 Z"/></g>
<g><path style="opacity:1" fill="#797579" d="M 361.5,186.5 C 360.851,187.606 360.517,188.606 360.5,189.5C 356.889,188.738 353.222,188.238 349.5,188C 348.816,184.078 346.482,182.578 342.5,183.5C 342.5,185.167 342.5,186.833 342.5,188.5C 334.167,188.5 325.833,188.5 317.5,188.5C 317.5,184.5 317.5,180.5 317.5,176.5C 314.833,176.5 312.167,176.5 309.5,176.5C 308.771,181.13 308.437,185.797 308.5,190.5C 306.167,190.5 303.833,190.5 301.5,190.5C 301.073,186.176 300.739,181.842 300.5,177.5C 299.5,177.5 298.5,177.5 297.5,177.5C 318.309,173.501 338.643,175.335 358.5,183C 359.71,184.039 360.71,185.206 361.5,186.5 Z"/></g>
<g><path style="opacity:1" fill="#e6cfcc" d="M 361.5,186.5 C 364.044,187.708 365.378,189.708 365.5,192.5C 363.924,191.925 362.258,191.592 360.5,191.5C 353.334,192.014 346.334,192.681 339.5,193.5C 336.793,194.551 333.96,195.218 331,195.5C 320.636,192.321 310.136,191.821 299.5,194C 294.362,196.571 289.028,198.571 283.5,200C 283.957,200.414 284.291,200.914 284.5,201.5C 283.019,202.48 281.685,203.647 280.5,205C 282.891,205.691 282.891,206.691 280.5,208C 281.085,209.302 281.751,210.469 282.5,211.5C 281.218,214.936 281.218,218.269 282.5,221.5C 282.929,225.024 284.429,228.024 287,230.5C 288.335,231.08 289.502,231.413 290.5,231.5C 290.577,232.75 291.244,233.583 292.5,234C 292.167,234.333 291.833,234.667 291.5,235C 299.787,236.238 308.12,236.738 316.5,236.5C 310.026,237.859 303.36,238.359 296.5,238C 290.883,235.846 285.216,233.846 279.5,232C 276.8,229.415 275.133,226.248 274.5,222.5C 272.541,221.252 271.041,219.585 270,217.5C 268.172,219.403 268.339,221.236 270.5,223C 269.944,223.383 269.611,223.883 269.5,224.5C 264.601,215.012 263.434,205.012 266,194.5C 267.387,192.953 268.553,191.287 269.5,189.5C 270.434,190.568 270.768,191.901 270.5,193.5C 277.798,192.24 285.131,191.24 292.5,190.5C 292.5,186.5 292.5,182.5 292.5,178.5C 293.919,177.549 295.585,177.216 297.5,177.5C 298.5,177.5 299.5,177.5 300.5,177.5C 300.739,181.842 301.073,186.176 301.5,190.5C 303.833,190.5 306.167,190.5 308.5,190.5C 308.437,185.797 308.771,181.13 309.5,176.5C 312.167,176.5 314.833,176.5 317.5,176.5C 317.5,180.5 317.5,184.5 317.5,188.5C 325.833,188.5 334.167,188.5 342.5,188.5C 342.5,186.833 342.5,185.167 342.5,183.5C 346.482,182.578 348.816,184.078 349.5,188C 353.222,188.238 356.889,188.738 360.5,189.5C 360.517,188.606 360.851,187.606 361.5,186.5 Z"/></g>
<g><path style="opacity:1" fill="#e8d1cd" d="M 206.5,178.5 C 208.216,178.629 209.883,178.962 211.5,179.5C 212.417,182.417 213.084,185.417 213.5,188.5C 217.785,187.705 222.119,187.372 226.5,187.5C 232.248,191.834 234.914,197.667 234.5,205C 234.13,209.91 233.296,214.743 232,219.5C 231.295,222.476 230.129,225.142 228.5,227.5C 228.278,224.61 228.945,221.943 230.5,219.5C 230,219.167 229.5,218.833 229,218.5C 224.942,222.386 220.442,225.72 215.5,228.5C 214.893,228.376 214.56,228.043 214.5,227.5C 215.698,224.574 216.698,221.574 217.5,218.5C 216.957,214.884 216.957,211.884 217.5,209.5C 217.755,208.064 218.088,206.564 218.5,205C 216.651,203.907 214.984,202.574 213.5,201C 214.167,200.667 214.833,200.333 215.5,200C 210.623,199.728 206.29,198.061 202.5,195C 190.618,191.601 178.785,191.767 167,195.5C 164.779,195.607 162.946,194.94 161.5,193.5C 164.125,192.559 164.125,191.393 161.5,190C 154.562,186.84 147.562,186.673 140.5,189.5C 144.825,186.939 149.492,184.939 154.5,183.5C 158.5,184.667 162.5,185.833 166.5,187C 170.204,187.804 173.704,187.304 177,185.5C 177.497,182.854 177.664,180.187 177.5,177.5C 180.127,176.908 182.794,176.575 185.5,176.5C 185.5,179.167 185.5,181.833 185.5,184.5C 192.556,184.682 199.556,185.349 206.5,186.5C 206.5,183.833 206.5,181.167 206.5,178.5 Z"/></g>
<g><path style="opacity:1" fill="#6b6a6a" d="M 217.5,209.5 C 212.118,205.387 206.618,201.387 201,197.5C 200.601,197.728 200.435,198.062 200.5,198.5C 191.934,195.063 183.267,194.73 174.5,197.5C 171.673,198.108 169.007,199.108 166.5,200.5C 163.939,199.233 161.272,199.233 158.5,200.5C 157.993,199.141 156.993,198.141 155.5,197.5C 157.239,197.406 159.239,197.239 161.5,197C 158.03,194.877 158.03,193.71 161.5,193.5C 162.946,194.94 164.779,195.607 167,195.5C 178.785,191.767 190.618,191.601 202.5,195C 206.29,198.061 210.623,199.728 215.5,200C 214.833,200.333 214.167,200.667 213.5,201C 214.984,202.574 216.651,203.907 218.5,205C 218.088,206.564 217.755,208.064 217.5,209.5 Z"/></g>
<g><path style="opacity:1" fill="#6b6969" d="M 339.5,193.5 C 339.938,193.435 340.272,193.601 340.5,194C 336.436,196.881 337.103,198.214 342.5,198C 341.429,198.852 340.429,199.685 339.5,200.5C 336.995,199.583 334.662,199.583 332.5,200.5C 330.072,198.957 327.406,197.957 324.5,197.5C 315.587,194.574 306.92,194.908 298.5,198.5C 291.352,200.652 286.019,204.985 282.5,211.5C 281.751,210.469 281.085,209.302 280.5,208C 282.891,206.691 282.891,205.691 280.5,205C 281.685,203.647 283.019,202.48 284.5,201.5C 284.291,200.914 283.957,200.414 283.5,200C 289.028,198.571 294.362,196.571 299.5,194C 310.136,191.821 320.636,192.321 331,195.5C 333.96,195.218 336.793,194.551 339.5,193.5 Z"/></g>
<g><path style="opacity:1" fill="#828aa8" d="M 200.5,198.5 C 200.833,199.167 201.167,199.833 201.5,200.5C 201.5,201.167 201.5,201.833 201.5,202.5C 198.62,198.631 194.954,197.631 190.5,199.5C 185.073,199.782 179.74,199.449 174.5,198.5C 174.5,198.167 174.5,197.833 174.5,197.5C 183.267,194.73 191.934,195.063 200.5,198.5 Z"/></g>
<g><path style="opacity:1" fill="#848ba9" d="M 324.5,197.5 C 325.167,198.5 325.833,199.5 326.5,200.5C 326.5,201.167 326.5,201.833 326.5,202.5C 323.626,200.065 320.293,198.731 316.5,198.5C 310.523,199.165 304.523,199.498 298.5,199.5C 298.5,199.167 298.5,198.833 298.5,198.5C 306.92,194.908 315.587,194.574 324.5,197.5 Z"/></g>
<g><path style="opacity:1" fill="#373737" d="M 166.5,200.5 C 162.049,203.111 157.716,205.944 153.5,209C 151.372,210.792 150.039,212.958 149.5,215.5C 148.234,214.91 146.901,214.41 145.5,214C 145.833,213.667 146.167,213.333 146.5,213C 143.536,212.16 143.203,211.16 145.5,210C 144.956,209.283 144.289,208.783 143.5,208.5C 146.489,207.433 149.489,206.1 152.5,204.5C 152.376,203.893 152.043,203.56 151.5,203.5C 151.082,202.778 150.416,202.278 149.5,202C 152.544,201.637 155.544,201.137 158.5,200.5C 161.272,199.233 163.939,199.233 166.5,200.5 Z"/></g>
<g><path style="opacity:1" fill="#393939" d="M 339.5,200.5 C 342.787,201.161 346.12,201.661 349.5,202C 348.672,202.915 347.672,203.581 346.5,204C 348.5,204.333 350.5,204.667 352.5,205C 351.833,205.667 351.167,206.333 350.5,207C 352.167,207.333 353.833,207.667 355.5,208C 354.833,208.667 354.167,209.333 353.5,210C 353.5,211.333 353.5,212.667 353.5,214C 351.846,214.608 350.179,215.108 348.5,215.5C 348.451,212.901 347.451,210.734 345.5,209C 341.41,205.633 337.076,202.8 332.5,200.5C 334.662,199.583 336.995,199.583 339.5,200.5 Z"/></g>
<g><path style="opacity:1" fill="#f2dad5" d="M 161.5,193.5 C 158.03,193.71 158.03,194.877 161.5,197C 159.239,197.239 157.239,197.406 155.5,197.5C 156.993,198.141 157.993,199.141 158.5,200.5C 155.544,201.137 152.544,201.637 149.5,202C 150.416,202.278 151.082,202.778 151.5,203.5C 150.048,204.302 148.382,204.802 146.5,205C 146.833,205.333 147.167,205.667 147.5,206C 145.5,206.333 143.5,206.667 141.5,207C 142.044,207.717 142.711,208.217 143.5,208.5C 144.289,208.783 144.956,209.283 145.5,210C 143.203,211.16 143.536,212.16 146.5,213C 146.167,213.333 145.833,213.667 145.5,214C 146.901,214.41 148.234,214.91 149.5,215.5C 149.842,216.338 150.508,216.672 151.5,216.5C 151.932,217.71 152.599,218.71 153.5,219.5C 154.684,220.688 154.684,221.855 153.5,223C 154.938,223.219 156.271,223.719 157.5,224.5C 156.975,225.192 156.308,225.692 155.5,226C 160.267,227.411 164.6,229.744 168.5,233C 180.926,236.957 193.593,237.624 206.5,235C 206.167,234.667 205.833,234.333 205.5,234C 206.938,233.781 208.271,233.281 209.5,232.5C 209.376,231.893 209.043,231.56 208.5,231.5C 210.728,230.623 212.728,229.29 214.5,227.5C 214.56,228.043 214.893,228.376 215.5,228.5C 220.442,225.72 224.942,222.386 229,218.5C 229.5,218.833 230,219.167 230.5,219.5C 228.945,221.943 228.278,224.61 228.5,227.5C 215.065,256.181 192.732,266.348 161.5,258C 153.532,256.601 147.032,252.768 142,246.5C 131.727,232.074 127.727,216.074 130,198.5C 130.424,195.975 131.59,193.975 133.5,192.5C 135.713,191.227 138.046,190.227 140.5,189.5C 147.562,186.673 154.562,186.84 161.5,190C 164.125,191.393 164.125,192.559 161.5,193.5 Z"/></g>
<g><path style="opacity:1" fill="#e2e3ea" d="M 201.5,202.5 C 204.036,205.007 204.869,208.007 204,211.5C 203.329,212.252 202.496,212.586 201.5,212.5C 194.792,210.756 191.125,206.422 190.5,199.5C 194.954,197.631 198.62,198.631 201.5,202.5 Z"/></g>
<g><path style="opacity:1" fill="#b7b8ba" d="M 217.5,209.5 C 216.957,211.884 216.957,214.884 217.5,218.5C 214.171,214.825 211.171,210.825 208.5,206.5C 207.893,206.624 207.56,206.957 207.5,207.5C 206.108,205.727 204.941,203.727 204,201.5C 203.329,200.748 202.496,200.414 201.5,200.5C 201.167,199.833 200.833,199.167 200.5,198.5C 200.435,198.062 200.601,197.728 201,197.5C 206.618,201.387 212.118,205.387 217.5,209.5 Z"/></g>
<g><path style="opacity:1" fill="#e7e9f0" d="M 316.5,198.5 C 320.293,198.731 323.626,200.065 326.5,202.5C 329.036,205.007 329.869,208.007 329,211.5C 328.329,212.252 327.496,212.586 326.5,212.5C 319.168,210.455 315.835,205.788 316.5,198.5 Z"/></g>
<g><path style="opacity:1" fill="#7583b6" d="M 177.5,225.5 C 175.958,224.699 174.292,224.366 172.5,224.5C 172.5,225.833 172.5,227.167 172.5,228.5C 170.112,227.781 168.612,226.115 168,223.5C 167.034,219.06 166.201,214.727 165.5,210.5C 165.328,209.508 165.662,208.842 166.5,208.5C 166.435,208.938 166.601,209.272 167,209.5C 168.362,206.764 170.196,204.431 172.5,202.5C 175.992,204.389 176.659,206.722 174.5,209.5C 168.129,208.361 168.129,209.195 174.5,212C 172.009,212.626 172.009,213.459 174.5,214.5C 172.577,215.308 170.577,215.808 168.5,216C 171.167,216.333 173.833,216.667 176.5,217C 175.833,217.333 175.167,217.667 174.5,218C 175.833,218.667 175.833,219.333 174.5,220C 172.779,220.739 171.113,221.573 169.5,222.5C 171.164,223.223 172.831,222.89 174.5,221.5C 175.934,222.588 176.934,223.922 177.5,225.5 Z"/></g>
<g><path style="opacity:1" fill="#f1dad5" d="M 365.5,192.5 C 367.311,194.385 368.478,196.719 369,199.5C 371.688,244.813 350.521,264.646 305.5,259C 291.256,255.768 280.756,247.601 274,234.5C 272.214,231.264 270.714,227.93 269.5,224.5C 269.611,223.883 269.944,223.383 270.5,223C 268.339,221.236 268.172,219.403 270,217.5C 271.041,219.585 272.541,221.252 274.5,222.5C 275.133,226.248 276.8,229.415 279.5,232C 285.216,233.846 290.883,235.846 296.5,238C 303.36,238.359 310.026,237.859 316.5,236.5C 326.665,235.065 334.998,231.232 341.5,225C 342.623,223.956 343.956,223.29 345.5,223C 344.316,221.855 344.316,220.688 345.5,219.5C 346.488,218.205 347.488,216.872 348.5,215.5C 350.179,215.108 351.846,214.608 353.5,214C 353.5,212.667 353.5,211.333 353.5,210C 354.167,209.333 354.833,208.667 355.5,208C 353.833,207.667 352.167,207.333 350.5,207C 351.167,206.333 351.833,205.667 352.5,205C 350.5,204.667 348.5,204.333 346.5,204C 347.672,203.581 348.672,202.915 349.5,202C 346.12,201.661 342.787,201.161 339.5,200.5C 340.429,199.685 341.429,198.852 342.5,198C 337.103,198.214 336.436,196.881 340.5,194C 340.272,193.601 339.938,193.435 339.5,193.5C 346.334,192.681 353.334,192.014 360.5,191.5C 362.258,191.592 363.924,191.925 365.5,192.5 Z"/></g>
<g><path style="opacity:1" fill="#1b141c" d="M 112.5,204.5 C 120.114,207.013 124.448,212.346 125.5,220.5C 125.082,235.374 125.915,250.374 128,265.5C 132.817,296.066 138.817,326.4 146,356.5C 154.06,403.819 157.227,451.486 155.5,499.5C 146.167,499.5 136.833,499.5 127.5,499.5C 130.673,452.183 128.173,405.183 120,358.5C 122.073,378.094 123.739,397.761 125,417.5C 125.694,444.857 125.194,472.19 123.5,499.5C 117.5,499.5 111.5,499.5 105.5,499.5C 115.884,449.358 119.718,398.692 117,347.5C 115.663,328.804 114.33,310.137 113,291.5C 117.649,315.391 121.649,339.391 125,363.5C 130.988,406.657 132.988,449.991 131,493.5C 135.841,442.774 135.174,392.108 129,341.5C 123.088,295.867 117.588,250.201 112.5,204.5 Z"/></g>
<g><path style="opacity:1" fill="#bcbec0" d="M 174.5,197.5 C 174.5,197.833 174.5,198.167 174.5,198.5C 171.806,200.527 169.473,202.861 167.5,205.5C 167.265,204.903 166.765,204.57 166,204.5C 159.918,206.962 155.085,210.962 151.5,216.5C 150.508,216.672 149.842,216.338 149.5,215.5C 150.039,212.958 151.372,210.792 153.5,209C 157.716,205.944 162.049,203.111 166.5,200.5C 169.007,199.108 171.673,198.108 174.5,197.5 Z"/></g>
<g><path style="opacity:1" fill="#6472a8" d="M 316.5,198.5 C 315.835,205.788 319.168,210.455 326.5,212.5C 325.909,213.151 325.243,213.818 324.5,214.5C 324.833,214.833 325.167,215.167 325.5,215.5C 327.198,214.319 328.865,214.319 330.5,215.5C 328.234,216.314 325.9,216.814 323.5,217C 324.167,217.333 324.833,217.667 325.5,218C 324.167,218.333 322.833,218.667 321.5,219C 322.167,219.333 322.833,219.667 323.5,220C 323.077,221.509 321.91,223.009 320,224.5C 319.346,223.304 318.846,223.304 318.5,224.5C 318.977,225.478 319.643,226.311 320.5,227C 319.643,227.689 318.977,228.522 318.5,229.5C 319.428,230.768 319.595,232.101 319,233.5C 318,231.5 317,229.5 316,227.5C 314.582,230.001 313.582,229.668 313,226.5C 312.333,237.167 311.667,237.167 311,226.5C 310.751,227.624 310.251,228.624 309.5,229.5C 308.575,228.359 307.741,228.359 307,229.5C 306.71,231.044 306.044,232.377 305,233.5C 305.559,231.362 305.392,229.362 304.5,227.5C 303.5,227.167 302.833,226.5 302.5,225.5C 301.934,223.922 300.934,222.588 299.5,221.5C 297.922,222.64 296.256,223.14 294.5,223C 296.5,221.667 298.5,220.333 300.5,219C 298.122,218.026 298.456,217.359 301.5,217C 298.833,216.667 296.167,216.333 293.5,216C 295.577,215.808 297.577,215.308 299.5,214.5C 298.359,213.575 298.359,212.741 299.5,212C 294.148,209.057 291.481,210.557 291.5,216.5C 291.896,220.352 292.896,224.019 294.5,227.5C 292.59,226.025 291.424,224.025 291,221.5C 290.501,217.848 290.335,214.182 290.5,210.5C 291.932,205.983 294.599,202.316 298.5,199.5C 304.523,199.498 310.523,199.165 316.5,198.5 Z"/></g>
<g><path style="opacity:1" fill="#9c8f8c" d="M 151.5,203.5 C 152.043,203.56 152.376,203.893 152.5,204.5C 149.489,206.1 146.489,207.433 143.5,208.5C 142.711,208.217 142.044,207.717 141.5,207C 143.5,206.667 145.5,206.333 147.5,206C 147.167,205.667 146.833,205.333 146.5,205C 148.382,204.802 150.048,204.302 151.5,203.5 Z"/></g>
<g><path style="opacity:1" fill="#eceeef" d="M 167.5,205.5 C 167.443,206.609 167.11,207.609 166.5,208.5C 165.662,208.842 165.328,209.508 165.5,210.5C 164.283,218.505 166.283,225.505 171.5,231.5C 164.436,228.951 158.602,224.617 154,218.5C 153.601,218.728 153.435,219.062 153.5,219.5C 152.599,218.71 151.932,217.71 151.5,216.5C 155.085,210.962 159.918,206.962 166,204.5C 166.765,204.57 167.265,204.903 167.5,205.5 Z"/></g>
<g><path style="opacity:1" fill="#383a40" d="M 310.5,207.5 C 317.685,207.848 320.519,211.515 319,218.5C 314.833,224.759 310.167,225.092 305,219.5C 303.486,213.877 305.319,209.877 310.5,207.5 Z"/></g>
<g><path style="opacity:1" fill="#eff1f2" d="M 344.5,218.5 C 340.102,224.528 334.435,228.861 327.5,231.5C 333.142,225.26 334.975,217.927 333,209.5C 332.209,208.255 331.709,206.922 331.5,205.5C 332.002,203.915 333.002,203.415 334.5,204C 338.725,207.722 342.392,211.888 345.5,216.5C 345.137,217.183 344.804,217.85 344.5,218.5 Z"/></g>
<g><path style="opacity:1" fill="#6270a7" d="M 174.5,198.5 C 179.74,199.449 185.073,199.782 190.5,199.5C 191.125,206.422 194.792,210.756 201.5,212.5C 200.909,213.151 200.243,213.818 199.5,214.5C 199.833,214.833 200.167,215.167 200.5,215.5C 202.198,214.319 203.865,214.319 205.5,215.5C 203.234,216.314 200.9,216.814 198.5,217C 199.167,217.333 199.833,217.667 200.5,218C 199.167,218.333 197.833,218.667 196.5,219C 197.167,219.333 197.833,219.667 198.5,220C 198.077,221.509 196.91,223.009 195,224.5C 193.984,223.366 193.317,223.699 193,225.5C 192.292,224.619 191.458,223.953 190.5,223.5C 196.588,216.68 195.588,211.347 187.5,207.5C 181.087,209.076 178.587,213.076 180,219.5C 182.239,222.962 185.406,224.295 189.5,223.5C 189.261,225.467 189.594,227.301 190.5,229C 190.167,229.167 189.833,229.333 189.5,229.5C 188.749,228.624 188.249,227.624 188,226.5C 187.333,237.167 186.667,237.167 186,226.5C 185.716,228.886 184.716,229.552 183,228.5C 183.046,230.313 182.88,231.979 182.5,233.5C 183.602,234.176 184.602,234.842 185.5,235.5C 180.589,234.748 175.922,233.415 171.5,231.5C 166.283,225.505 164.283,218.505 165.5,210.5C 166.201,214.727 167.034,219.06 168,223.5C 168.612,226.115 170.112,227.781 172.5,228.5C 174.749,232.161 177.083,232.327 179.5,229C 179.022,227.697 178.355,226.531 177.5,225.5C 176.934,223.922 175.934,222.588 174.5,221.5C 172.831,222.89 171.164,223.223 169.5,222.5C 171.113,221.573 172.779,220.739 174.5,220C 175.833,219.333 175.833,218.667 174.5,218C 175.167,217.667 175.833,217.333 176.5,217C 173.833,216.667 171.167,216.333 168.5,216C 170.577,215.808 172.577,215.308 174.5,214.5C 172.009,213.459 172.009,212.626 174.5,212C 168.129,209.195 168.129,208.361 174.5,209.5C 176.659,206.722 175.992,204.389 172.5,202.5C 170.196,204.431 168.362,206.764 167,209.5C 166.601,209.272 166.435,208.938 166.5,208.5C 167.11,207.609 167.443,206.609 167.5,205.5C 169.473,202.861 171.806,200.527 174.5,198.5 Z"/></g>
<g><path style="opacity:1" fill="#383940" d="M 190.5,223.5 C 190.167,223.5 189.833,223.5 189.5,223.5C 185.406,224.295 182.239,222.962 180,219.5C 178.587,213.076 181.087,209.076 187.5,207.5C 195.588,211.347 196.588,216.68 190.5,223.5 Z"/></g>
<g><path style="opacity:1" fill="#b7b9ba" d="M 324.5,197.5 C 327.406,197.957 330.072,198.957 332.5,200.5C 337.076,202.8 341.41,205.633 345.5,209C 347.451,210.734 348.451,212.901 348.5,215.5C 347.488,216.872 346.488,218.205 345.5,219.5C 345.5,218.833 345.167,218.5 344.5,218.5C 344.804,217.85 345.137,217.183 345.5,216.5C 342.392,211.888 338.725,207.722 334.5,204C 333.002,203.415 332.002,203.915 331.5,205.5C 330.194,203.527 328.527,201.861 326.5,200.5C 325.833,199.5 325.167,198.5 324.5,197.5 Z"/></g>
<g><path style="opacity:1" fill="#bbbbbd" d="M 298.5,198.5 C 298.5,198.833 298.5,199.167 298.5,199.5C 294.599,202.316 291.932,205.983 290.5,210.5C 290.631,209.761 290.464,209.094 290,208.5C 288.088,211.595 285.921,214.595 283.5,217.5C 282.754,218.736 282.421,220.07 282.5,221.5C 281.218,218.269 281.218,214.936 282.5,211.5C 286.019,204.985 291.352,200.652 298.5,198.5 Z"/></g>
<g><path style="opacity:1" fill="#ebebee" d="M 290.5,210.5 C 290.335,214.182 290.501,217.848 291,221.5C 291.424,224.025 292.59,226.025 294.5,227.5C 295.203,229.716 296.536,231.549 298.5,233C 298.272,233.399 297.938,233.565 297.5,233.5C 295.106,232.985 292.772,232.319 290.5,231.5C 289.502,231.413 288.335,231.08 287,230.5C 284.429,228.024 282.929,225.024 282.5,221.5C 282.421,220.07 282.754,218.736 283.5,217.5C 285.921,214.595 288.088,211.595 290,208.5C 290.464,209.094 290.631,209.761 290.5,210.5 Z"/></g>
<g><path style="opacity:1" fill="#e9eaeb" d="M 217.5,218.5 C 216.698,221.574 215.698,224.574 214.5,227.5C 212.728,229.29 210.728,230.623 208.5,231.5C 205.296,232.901 201.963,233.901 198.5,234.5C 208.048,227.856 211.048,218.856 207.5,207.5C 207.56,206.957 207.893,206.624 208.5,206.5C 211.171,210.825 214.171,214.825 217.5,218.5 Z"/></g>
<g><path style="opacity:1" fill="#484647" d="M 171.5,231.5 C 175.922,233.415 180.589,234.748 185.5,235.5C 189.898,235.706 194.232,235.373 198.5,234.5C 201.963,233.901 205.296,232.901 208.5,231.5C 209.043,231.56 209.376,231.893 209.5,232.5C 208.271,233.281 206.938,233.781 205.5,234C 205.833,234.333 206.167,234.667 206.5,235C 193.593,237.624 180.926,236.957 168.5,233C 164.6,229.744 160.267,227.411 155.5,226C 156.308,225.692 156.975,225.192 157.5,224.5C 156.271,223.719 154.938,223.219 153.5,223C 154.684,221.855 154.684,220.688 153.5,219.5C 153.435,219.062 153.601,218.728 154,218.5C 158.602,224.617 164.436,228.951 171.5,231.5 Z"/></g>
<g><path style="opacity:1" fill="#464444" d="M 344.5,218.5 C 345.167,218.5 345.5,218.833 345.5,219.5C 344.316,220.688 344.316,221.855 345.5,223C 343.956,223.29 342.623,223.956 341.5,225C 334.998,231.232 326.665,235.065 316.5,236.5C 308.12,236.738 299.787,236.238 291.5,235C 291.833,234.667 292.167,234.333 292.5,234C 291.244,233.583 290.577,232.75 290.5,231.5C 292.772,232.319 295.106,232.985 297.5,233.5C 307.74,236.568 317.74,235.902 327.5,231.5C 334.435,228.861 340.102,224.528 344.5,218.5 Z"/></g>
<g><path style="opacity:1" fill="#7984b3" d="M 201.5,200.5 C 202.496,200.414 203.329,200.748 204,201.5C 204.941,203.727 206.108,205.727 207.5,207.5C 211.048,218.856 208.048,227.856 198.5,234.5C 194.232,235.373 189.898,235.706 185.5,235.5C 184.602,234.842 183.602,234.176 182.5,233.5C 182.88,231.979 183.046,230.313 183,228.5C 184.716,229.552 185.716,228.886 186,226.5C 186.667,237.167 187.333,237.167 188,226.5C 188.249,227.624 188.749,228.624 189.5,229.5C 189.833,229.333 190.167,229.167 190.5,229C 189.594,227.301 189.261,225.467 189.5,223.5C 189.833,223.5 190.167,223.5 190.5,223.5C 191.458,223.953 192.292,224.619 193,225.5C 193.317,223.699 193.984,223.366 195,224.5C 196.91,223.009 198.077,221.509 198.5,220C 197.833,219.667 197.167,219.333 196.5,219C 197.833,218.667 199.167,218.333 200.5,218C 199.833,217.667 199.167,217.333 198.5,217C 200.9,216.814 203.234,216.314 205.5,215.5C 203.865,214.319 202.198,214.319 200.5,215.5C 200.167,215.167 199.833,214.833 199.5,214.5C 200.243,213.818 200.909,213.151 201.5,212.5C 202.496,212.586 203.329,212.252 204,211.5C 204.869,208.007 204.036,205.007 201.5,202.5C 201.5,201.833 201.5,201.167 201.5,200.5 Z"/></g>
<g><path style="opacity:1" fill="#ced3e5" d="M 177.5,225.5 C 178.355,226.531 179.022,227.697 179.5,229C 177.083,232.327 174.749,232.161 172.5,228.5C 172.5,227.167 172.5,225.833 172.5,224.5C 174.292,224.366 175.958,224.699 177.5,225.5 Z"/></g>
<g><path style="opacity:1" fill="#7783b4" d="M 326.5,200.5 C 328.527,201.861 330.194,203.527 331.5,205.5C 331.709,206.922 332.209,208.255 333,209.5C 334.975,217.927 333.142,225.26 327.5,231.5C 317.74,235.902 307.74,236.568 297.5,233.5C 297.938,233.565 298.272,233.399 298.5,233C 296.536,231.549 295.203,229.716 294.5,227.5C 292.896,224.019 291.896,220.352 291.5,216.5C 291.481,210.557 294.148,209.057 299.5,212C 298.359,212.741 298.359,213.575 299.5,214.5C 297.577,215.308 295.577,215.808 293.5,216C 296.167,216.333 298.833,216.667 301.5,217C 298.456,217.359 298.122,218.026 300.5,219C 298.5,220.333 296.5,221.667 294.5,223C 296.256,223.14 297.922,222.64 299.5,221.5C 300.934,222.588 301.934,223.922 302.5,225.5C 298.716,223.537 296.882,224.537 297,228.5C 300.522,232.815 303.022,232.482 304.5,227.5C 305.392,229.362 305.559,231.362 305,233.5C 306.044,232.377 306.71,231.044 307,229.5C 307.741,228.359 308.575,228.359 309.5,229.5C 310.251,228.624 310.751,227.624 311,226.5C 311.667,237.167 312.333,237.167 313,226.5C 313.582,229.668 314.582,230.001 316,227.5C 317,229.5 318,231.5 319,233.5C 319.595,232.101 319.428,230.768 318.5,229.5C 318.977,228.522 319.643,227.689 320.5,227C 319.643,226.311 318.977,225.478 318.5,224.5C 318.846,223.304 319.346,223.304 320,224.5C 321.91,223.009 323.077,221.509 323.5,220C 322.833,219.667 322.167,219.333 321.5,219C 322.833,218.667 324.167,218.333 325.5,218C 324.833,217.667 324.167,217.333 323.5,217C 325.9,216.814 328.234,216.314 330.5,215.5C 328.865,214.319 327.198,214.319 325.5,215.5C 325.167,215.167 324.833,214.833 324.5,214.5C 325.243,213.818 325.909,213.151 326.5,212.5C 327.496,212.586 328.329,212.252 329,211.5C 329.869,208.007 329.036,205.007 326.5,202.5C 326.5,201.833 326.5,201.167 326.5,200.5 Z"/></g>
<g><path style="opacity:1" fill="#d1d3e4" d="M 302.5,225.5 C 302.833,226.5 303.5,227.167 304.5,227.5C 303.022,232.482 300.522,232.815 297,228.5C 296.882,224.537 298.716,223.537 302.5,225.5 Z"/></g>
<g><path style="opacity:1" fill="#d2b4b0" d="M 369.5,235.5 C 366.485,263.986 362.485,292.319 357.5,320.5C 355.37,322.529 353.704,324.862 352.5,327.5C 353.687,320.194 354.687,312.861 355.5,305.5C 358.351,287.212 361.017,268.879 363.5,250.5C 363.253,249.287 362.586,248.62 361.5,248.5C 363.93,243.963 366.597,239.63 369.5,235.5 Z"/></g>
<g><path style="opacity:1" fill="#f2d3ce" d="M 361.5,248.5 C 362.586,248.62 363.253,249.287 363.5,250.5C 361.017,268.879 358.351,287.212 355.5,305.5C 340.86,336.24 319.527,361.406 291.5,381C 259.742,398.995 229.075,397.328 199.5,376C 174.235,356.25 155.235,331.75 142.5,302.5C 138.206,283.86 134.872,265.027 132.5,246C 132.514,244.615 132.848,243.449 133.5,242.5C 135.877,246.717 138.877,250.551 142.5,254C 157.988,264.046 174.988,267.379 193.5,264C 201.853,262.822 209.186,259.489 215.5,254C 229.706,239.753 238.206,222.586 241,202.5C 243.479,200.083 246.479,199.083 250,199.5C 253.292,199.026 255.959,200.026 258,202.5C 259.68,210.248 261.68,217.915 264,225.5C 277.511,258.175 301.678,270.675 336.5,263C 346.724,261.228 355.057,256.395 361.5,248.5 Z"/></g>
<g><path style="opacity:1" fill="#f6dcd8" d="M 265.5,319.5 C 254.502,320.797 243.502,320.797 232.5,319.5C 232.918,318.778 233.584,318.278 234.5,318C 231.833,317 229.167,316 226.5,315C 227.167,314.667 227.833,314.333 228.5,314C 227.167,313.667 225.833,313.333 224.5,313C 225.167,312.667 225.833,312.333 226.5,312C 224.5,311.667 222.5,311.333 220.5,311C 221.167,310.667 221.833,310.333 222.5,310C 220.774,308.47 218.774,307.47 216.5,307C 219.167,306.333 219.167,305.667 216.5,305C 217.167,304.667 217.833,304.333 218.5,304C 217.167,303.667 215.833,303.333 214.5,303C 216.878,302.026 216.544,301.359 213.5,301C 217.185,300.086 216.852,299.419 212.5,299C 215.167,298.333 215.167,297.667 212.5,297C 213.167,296.667 213.833,296.333 214.5,296C 213.167,295.667 211.833,295.333 210.5,295C 213.167,294.333 213.167,293.667 210.5,293C 212.878,292.026 212.544,291.359 209.5,291C 210.925,289.286 210.592,287.953 208.5,287C 211.167,286.333 211.167,285.667 208.5,285C 211.167,284.333 211.167,283.667 208.5,283C 211.167,282.333 211.167,281.667 208.5,281C 211.167,280.333 211.167,279.667 208.5,279C 211.167,278.333 211.167,277.667 208.5,277C 211.167,276.333 211.167,275.667 208.5,275C 209.833,274 211.167,273 212.5,272C 211.833,271.667 211.167,271.333 210.5,271C 211.833,270 213.167,269 214.5,268C 211.833,267.333 211.833,266.667 214.5,266C 213.833,265.667 213.167,265.333 212.5,265C 217.833,264.333 217.833,263.667 212.5,263C 214.774,262.53 216.774,261.53 218.5,260C 217.833,259.667 217.167,259.333 216.5,259C 217.833,258 219.167,257 220.5,256C 219.833,255.667 219.167,255.333 218.5,255C 219.833,254.667 221.167,254.333 222.5,254C 221.833,253.667 221.167,253.333 220.5,253C 222.5,252.667 224.5,252.333 226.5,252C 225.833,251.667 225.167,251.333 224.5,251C 226.226,249.47 228.226,248.47 230.5,248C 229.833,247.667 229.167,247.333 228.5,247C 234.166,245.387 239.833,243.887 245.5,242.5C 245.846,237.784 246.513,233.117 247.5,228.5C 248.5,228.5 249.5,228.5 250.5,228.5C 251.984,233.033 252.65,237.699 252.5,242.5C 255.518,242.335 258.518,242.502 261.5,243C 259.5,243.333 257.5,243.667 255.5,244C 258.833,244.333 262.167,244.667 265.5,245C 264.833,245.333 264.167,245.667 263.5,246C 265.5,246.333 267.5,246.667 269.5,247C 268.833,247.333 268.167,247.667 267.5,248C 270.886,248.382 273.552,249.382 275.5,251C 274.833,251.333 274.167,251.667 273.5,252C 274.833,252.333 276.167,252.667 277.5,253C 276.833,253.333 276.167,253.667 275.5,254C 277.5,255 279.5,256 281.5,257C 280.833,257.333 280.167,257.667 279.5,258C 280.833,258.333 282.167,258.667 283.5,259C 282.833,259.333 282.167,259.667 281.5,260C 282.833,261 284.167,262 285.5,263C 284.833,263.333 284.167,263.667 283.5,264C 284.833,264.333 286.167,264.667 287.5,265C 284.833,265.667 284.833,266.333 287.5,267C 286.5,267.333 285.5,267.667 284.5,268C 286.359,268.684 288.026,269.684 289.5,271C 286.833,272.333 286.833,273.667 289.5,275C 286.833,275.667 286.833,276.333 289.5,277C 286.833,277.667 286.833,278.333 289.5,279C 286.833,279.667 286.833,280.333 289.5,281C 286.833,281.667 286.833,282.333 289.5,283C 286.833,283.667 286.833,284.333 289.5,285C 288.833,285.333 288.167,285.667 287.5,286C 292.833,286.667 292.833,287.333 287.5,288C 290.167,288.667 290.167,289.333 287.5,290C 288.167,290.333 288.833,290.667 289.5,291C 288.167,292.667 286.833,294.333 285.5,296C 288.167,296.667 288.167,297.333 285.5,298C 286.167,298.333 286.833,298.667 287.5,299C 286.167,299.333 284.833,299.667 283.5,300C 286.167,300.667 286.167,301.333 283.5,302C 284.167,302.333 284.833,302.667 285.5,303C 284.167,303.333 282.833,303.667 281.5,304C 282.167,304.333 282.833,304.667 283.5,305C 282.167,305.333 280.833,305.667 279.5,306C 280.167,306.333 280.833,306.667 281.5,307C 280.167,307.333 278.833,307.667 277.5,308C 280.167,308.667 280.167,309.333 277.5,310C 278.167,310.333 278.833,310.667 279.5,311C 277.5,311.333 275.5,311.667 273.5,312C 274.167,312.333 274.833,312.667 275.5,313C 274.167,313.333 272.833,313.667 271.5,314C 272.167,314.333 272.833,314.667 273.5,315C 270.167,316 266.833,317 263.5,318C 264.416,318.278 265.082,318.778 265.5,319.5 Z"/></g>
<g><path style="opacity:1" fill="#383338" d="M 415.5,234.5 C 416.165,237.314 416.498,240.314 416.5,243.5C 412.85,305.856 412.683,368.19 416,430.5C 410.605,403.263 408.439,375.763 409.5,348C 409.626,310.065 411.626,272.232 415.5,234.5 Z"/></g>
<g><path style="opacity:1" fill="#373237" d="M 82.5,248.5 C 88.0405,290.185 89.8738,332.185 88,374.5C 87.6538,381.937 86.6538,389.271 85,396.5C 85.989,347.162 85.1557,297.828 82.5,248.5 Z"/></g>
<g><path style="opacity:1" fill="#d3b2ae" d="M 126.5,227.5 C 129.011,232.342 131.344,237.342 133.5,242.5C 132.848,243.449 132.514,244.615 132.5,246C 134.872,265.027 138.206,283.86 142.5,302.5C 144.344,311.54 146.344,320.54 148.5,329.5C 146.115,327.116 144.115,324.45 142.5,321.5C 133.944,290.836 128.611,259.503 126.5,227.5 Z"/></g>
<g><path style="opacity:1" fill="#e1aea5" d="M 233.5,286.5 C 242.5,287.691 251.5,287.691 260.5,286.5C 269.157,286.336 270.491,289.169 264.5,295C 252.942,302.717 241.776,302.217 231,293.5C 230.162,290.519 230.995,288.186 233.5,286.5 Z"/></g>
<g><path style="opacity:1" fill="#e9c0ba" d="M 142.5,302.5 C 155.235,331.75 174.235,356.25 199.5,376C 229.075,397.328 259.742,398.995 291.5,381C 319.527,361.406 340.86,336.24 355.5,305.5C 354.687,312.861 353.687,320.194 352.5,327.5C 335.775,353.717 313.442,373.884 285.5,388C 255.618,399.801 226.951,397.468 199.5,381C 178.768,367.346 161.768,350.18 148.5,329.5C 146.344,320.54 144.344,311.54 142.5,302.5 Z"/></g>
<g><path style="opacity:1" fill="#ef7ba8" d="M 232.5,319.5 C 243.502,320.797 254.502,320.797 265.5,319.5C 273.827,320.019 282.16,320.519 290.5,321C 293.306,322.305 294.14,324.472 293,327.5C 276.932,351.078 255.432,358.245 228.5,349C 219.699,343.529 212.199,336.696 206,328.5C 203.978,326.031 204.145,323.865 206.5,322C 215.212,321.489 223.879,320.656 232.5,319.5 Z"/></g>
<g><path style="opacity:1" fill="#bf776b" d="M 357.5,320.5 C 357.911,324.463 357.078,328.13 355,331.5C 342.348,350.318 326.848,366.318 308.5,379.5C 307.883,379.611 307.383,379.944 307,380.5C 306.007,393.769 304.174,406.769 301.5,419.5C 301.5,416.5 301.5,413.5 301.5,410.5C 301.5,409.833 301.5,409.167 301.5,408.5C 302.23,400.07 303.23,391.57 304.5,383C 298.19,385.651 291.856,388.651 285.5,392C 262.283,401.503 238.95,401.836 215.5,393C 208.707,389.77 202.04,386.27 195.5,382.5C 195.167,383.333 194.833,384.167 194.5,385C 195.257,390.83 195.924,396.663 196.5,402.5C 196.5,408.167 196.5,413.833 196.5,419.5C 194.891,416.851 194.057,413.851 194,410.5C 193.745,400.424 192.745,390.424 191,380.5C 190.722,379.584 190.222,378.918 189.5,378.5C 171.106,365.604 155.939,349.604 144,330.5C 143.047,327.568 142.547,324.568 142.5,321.5C 144.115,324.45 146.115,327.116 148.5,329.5C 161.768,350.18 178.768,367.346 199.5,381C 226.951,397.468 255.618,399.801 285.5,388C 313.442,373.884 335.775,353.717 352.5,327.5C 353.704,324.862 355.37,322.529 357.5,320.5 Z"/></g>
<g><path style="opacity:1" fill="#fbf4f4" d="M 280.5,324.5 C 280.371,326.216 280.038,327.883 279.5,329.5C 258.8,342.778 238.133,342.778 217.5,329.5C 217.157,327.517 217.824,326.183 219.5,325.5C 228.974,327.268 238.474,328.934 248,330.5C 259.048,329.456 269.881,327.456 280.5,324.5 Z"/></g>
<g><path style="opacity:1" fill="#96807f" d="M 280.5,324.5 C 282.199,324.34 283.866,324.506 285.5,325C 283.34,326.332 281.34,327.832 279.5,329.5C 280.038,327.883 280.371,326.216 280.5,324.5 Z"/></g>
<g><path style="opacity:1" fill="#a18587" d="M 219.5,325.5 C 217.824,326.183 217.157,327.517 217.5,329.5C 208.161,323.822 208.827,322.488 219.5,325.5 Z"/></g>
<g><path style="opacity:1" fill="#fca1c4" d="M 254.5,322.5 C 260.176,322.334 265.843,322.501 271.5,323C 260.878,327.093 249.878,328.426 238.5,327C 235.367,326.607 232.367,325.774 229.5,324.5C 237.99,323.833 246.324,323.167 254.5,322.5 Z"/></g>
<g><path style="opacity:1" fill="#fd9ac1" d="M 282.5,332.5 C 283.525,332.897 283.692,333.563 283,334.5C 273.46,342.353 262.627,347.686 250.5,350.5C 243.156,349.415 236.156,347.248 229.5,344C 224.738,341.723 220.405,338.89 216.5,335.5C 216.833,335.167 217.167,334.833 217.5,334.5C 227.236,339.078 237.403,342.078 248,343.5C 252.653,343.505 257.153,342.671 261.5,341C 268.393,337.704 275.393,334.871 282.5,332.5 Z"/></g>
<g><path style="opacity:1" fill="#0c090c" d="M 371.5,229.5 C 365.331,289.519 358.831,349.519 352,409.5C 348.84,439.423 347.006,469.423 346.5,499.5C 345.5,499.5 344.5,499.5 343.5,499.5C 343.472,472.787 344.472,446.12 346.5,419.5C 339.623,406.443 330.623,394.943 319.5,385C 316.01,382.588 312.343,380.755 308.5,379.5C 326.848,366.318 342.348,350.318 355,331.5C 357.078,328.13 357.911,324.463 357.5,320.5C 362.485,292.319 366.485,263.986 369.5,235.5C 369.595,233.214 370.262,231.214 371.5,229.5 Z"/></g>
<g><path style="opacity:1" fill="#0b080b" d="M 125.5,220.5 C 126.332,222.999 126.665,225.332 126.5,227.5C 128.611,259.503 133.944,290.836 142.5,321.5C 142.547,324.568 143.047,327.568 144,330.5C 155.939,349.604 171.106,365.604 189.5,378.5C 188.833,379.167 188.167,379.833 187.5,380.5C 185.973,380.427 184.973,381.094 184.5,382.5C 182.147,384.101 179.98,386.101 178,388.5C 172.735,397.363 166.735,405.696 160,413.5C 158.991,415.025 158.491,416.692 158.5,418.5C 159.416,445.486 159.75,472.486 159.5,499.5C 158.167,499.5 156.833,499.5 155.5,499.5C 157.227,451.486 154.06,403.819 146,356.5C 138.817,326.4 132.817,296.066 128,265.5C 125.915,250.374 125.082,235.374 125.5,220.5 Z"/></g>
<g><path style="opacity:1" fill="#b4aca3" d="M 189.5,378.5 C 190.222,378.918 190.722,379.584 191,380.5C 192.745,390.424 193.745,400.424 194,410.5C 194.057,413.851 194.891,416.851 196.5,419.5C 196.5,420.167 196.5,420.833 196.5,421.5C 204.024,445.893 216.191,467.559 233,486.5C 233.791,487.745 234.291,489.078 234.5,490.5C 226.82,482.315 219.654,473.648 213,464.5C 204.921,449.674 197.921,434.341 192,418.5C 191.518,408.155 190.851,397.821 190,387.5C 190.03,384.639 189.197,382.305 187.5,380.5C 188.167,379.833 188.833,379.167 189.5,378.5 Z"/></g>
<g><path style="opacity:1" fill="#dddad3" d="M 187.5,380.5 C 189.197,382.305 190.03,384.639 190,387.5C 190.851,397.821 191.518,408.155 192,418.5C 197.921,434.341 204.921,449.674 213,464.5C 219.654,473.648 226.82,482.315 234.5,490.5C 235.404,491.209 235.737,492.209 235.5,493.5C 233.938,493.267 232.605,492.6 231.5,491.5C 227.935,490.213 224.268,490.213 220.5,491.5C 206.852,468.505 189.852,448.172 169.5,430.5C 169.5,429.833 169.833,429.5 170.5,429.5C 180.645,436.076 190.645,442.91 200.5,450C 201.167,450.667 201.833,450.667 202.5,450C 189.888,433.28 181.222,414.78 176.5,394.5C 178.774,390.228 181.441,386.228 184.5,382.5C 184.973,381.094 185.973,380.427 187.5,380.5 Z"/></g>
<g><path style="opacity:1" fill="#aea79e" d="M 308.5,379.5 C 312.343,380.755 316.01,382.588 319.5,385C 330.623,394.943 339.623,406.443 346.5,419.5C 344.473,418.139 342.806,416.473 341.5,414.5C 335.563,405.565 328.896,397.232 321.5,389.5C 318.203,385.213 313.869,382.546 308.5,381.5C 308.123,395.238 306.956,408.904 305,422.5C 298.249,438.766 291.916,455.099 286,471.5C 285.207,477.341 284.374,483.174 283.5,489C 283.528,490.07 283.861,490.903 284.5,491.5C 284.158,492.338 283.492,492.672 282.5,492.5C 282.347,484.394 283.18,476.394 285,468.5C 288.346,459.789 291.679,451.122 295,442.5C 297.889,435.004 300.056,427.337 301.5,419.5C 304.174,406.769 306.007,393.769 307,380.5C 307.383,379.944 307.883,379.611 308.5,379.5 Z"/></g>
<g><path style="opacity:1" fill="#dddbd4" d="M 321.5,389.5 C 320.883,389.611 320.383,389.944 320,390.5C 317.548,409.018 312.381,426.684 304.5,443.5C 304.667,443.833 304.833,444.167 305,444.5C 313.781,438.367 322.948,433.2 332.5,429C 320.965,438.868 310.465,449.701 301,461.5C 295.434,469.964 290.934,478.964 287.5,488.5C 286.306,489.272 285.306,490.272 284.5,491.5C 283.861,490.903 283.528,490.07 283.5,489C 284.374,483.174 285.207,477.341 286,471.5C 291.916,455.099 298.249,438.766 305,422.5C 306.956,408.904 308.123,395.238 308.5,381.5C 313.869,382.546 318.203,385.213 321.5,389.5 Z"/></g>
<g><path style="opacity:1" fill="#fefefe" d="M 321.5,389.5 C 328.896,397.232 335.563,405.565 341.5,414.5C 339.394,442.789 338.394,471.122 338.5,499.5C 332.5,499.5 326.5,499.5 320.5,499.5C 313.932,494.799 306.932,490.632 299.5,487C 295.351,486.331 291.351,486.831 287.5,488.5C 290.934,478.964 295.434,469.964 301,461.5C 310.465,449.701 320.965,438.868 332.5,429C 322.948,433.2 313.781,438.367 305,444.5C 304.833,444.167 304.667,443.833 304.5,443.5C 312.381,426.684 317.548,409.018 320,390.5C 320.383,389.944 320.883,389.611 321.5,389.5 Z"/></g>
<g><path style="opacity:1" fill="#9a958e" d="M 184.5,382.5 C 181.441,386.228 178.774,390.228 176.5,394.5C 172.557,401.108 168.224,407.441 163.5,413.5C 162.194,415.473 160.527,417.139 158.5,418.5C 158.491,416.692 158.991,415.025 160,413.5C 166.735,405.696 172.735,397.363 178,388.5C 179.98,386.101 182.147,384.101 184.5,382.5 Z"/></g>
<g><path style="opacity:1" fill="#030204" d="M 384.5,499.5 C 383.167,499.5 381.833,499.5 380.5,499.5C 379.289,490.545 378.455,481.545 378,472.5C 375.883,435.259 377.883,398.259 384,361.5C 381.968,383.592 380.801,405.759 380.5,428C 380.977,451.889 382.31,475.722 384.5,499.5 Z"/></g>
<g><path style="opacity:1" fill="#fdfdfd" d="M 176.5,394.5 C 181.222,414.78 189.888,433.28 202.5,450C 201.833,450.667 201.167,450.667 200.5,450C 190.645,442.91 180.645,436.076 170.5,429.5C 168.565,428.19 166.565,426.857 164.5,425.5C 163.509,421.555 163.176,417.555 163.5,413.5C 168.224,407.441 172.557,401.108 176.5,394.5 Z"/></g>
<g><path style="opacity:1" fill="#d79c93" d="M 301.5,408.5 C 301.662,406.473 301.495,404.473 301,402.5C 266.215,402.736 231.382,402.736 196.5,402.5C 195.924,396.663 195.257,390.83 194.5,385C 194.833,384.167 195.167,383.333 195.5,382.5C 202.04,386.27 208.707,389.77 215.5,393C 238.95,401.836 262.283,401.503 285.5,392C 291.856,388.651 298.19,385.651 304.5,383C 303.23,391.57 302.23,400.07 301.5,408.5 Z"/></g>
<g><path style="opacity:1" fill="#1b141c" d="M 102.5,499.5 C 96.5,499.5 90.5,499.5 84.5,499.5C 91.2717,470.261 95.105,440.594 96,410.5C 101.058,439.854 103.224,469.52 102.5,499.5 Z"/></g>
<g><path style="opacity:1" fill="#040304" d="M 127.5,499.5 C 126.167,499.5 124.833,499.5 123.5,499.5C 125.194,472.19 125.694,444.857 125,417.5C 123.739,397.761 122.073,378.094 120,358.5C 128.173,405.183 130.673,452.183 127.5,499.5 Z"/></g>
<g><path style="opacity:1" fill="#f2d3ce" d="M 301.5,410.5 C 301.5,413.5 301.5,416.5 301.5,419.5C 300.056,427.337 297.889,435.004 295,442.5C 291.679,451.122 288.346,459.789 285,468.5C 283.18,476.394 282.347,484.394 282.5,492.5C 266.84,495.82 251.173,496.153 235.5,493.5C 235.737,492.209 235.404,491.209 234.5,490.5C 234.291,489.078 233.791,487.745 233,486.5C 216.191,467.559 204.024,445.893 196.5,421.5C 197.323,418.023 197.823,414.356 198,410.5C 222.865,427.408 249.698,431.241 278.5,422C 286.441,418.696 294.108,414.863 301.5,410.5 Z"/></g>
<g><path style="opacity:1" fill="#e0aca4" d="M 196.5,402.5 C 231.382,402.736 266.215,402.736 301,402.5C 301.495,404.473 301.662,406.473 301.5,408.5C 301.5,409.167 301.5,409.833 301.5,410.5C 294.108,414.863 286.441,418.696 278.5,422C 249.698,431.241 222.865,427.408 198,410.5C 197.823,414.356 197.323,418.023 196.5,421.5C 196.5,420.833 196.5,420.167 196.5,419.5C 196.5,413.833 196.5,408.167 196.5,402.5 Z"/></g>
<g><path style="opacity:1" fill="#e2e2e2" d="M 163.5,413.5 C 163.176,417.555 163.509,421.555 164.5,425.5C 166.565,426.857 168.565,428.19 170.5,429.5C 169.833,429.5 169.5,429.833 169.5,430.5C 167.608,429.298 165.774,427.965 164,426.5C 164.417,450.811 164.584,475.144 164.5,499.5C 162.833,499.5 161.167,499.5 159.5,499.5C 159.75,472.486 159.416,445.486 158.5,418.5C 160.527,417.139 162.194,415.473 163.5,413.5 Z"/></g>
<g><path style="opacity:1" fill="#e7e7e7" d="M 341.5,414.5 C 342.806,416.473 344.473,418.139 346.5,419.5C 344.472,446.12 343.472,472.787 343.5,499.5C 341.833,499.5 340.167,499.5 338.5,499.5C 338.394,471.122 339.394,442.789 341.5,414.5 Z"/></g>
<g><path style="opacity:1" fill="#fefefe" d="M 169.5,430.5 C 189.852,448.172 206.852,468.505 220.5,491.5C 215.632,493.382 211.299,496.048 207.5,499.5C 193.167,499.5 178.833,499.5 164.5,499.5C 164.584,475.144 164.417,450.811 164,426.5C 165.774,427.965 167.608,429.298 169.5,430.5 Z"/></g>
<g><path style="opacity:1" fill="#1b141c" d="M 418.5,499.5 C 414.833,499.5 411.167,499.5 407.5,499.5C 405.691,473.861 404.858,448.195 405,422.5C 406.606,448.694 411.106,474.36 418.5,499.5 Z"/></g>
<g><path style="opacity:1" fill="#1a889d" d="M 69.5,455.5 C 69.8016,458.059 69.4682,460.393 68.5,462.5C 68.5,461.5 68.5,460.5 68.5,459.5C 46.1397,465.534 29.8064,478.867 19.5,499.5C 17.5,499.5 15.5,499.5 13.5,499.5C 15.0068,495.155 17.1735,491.155 20,487.5C 33.1501,471.674 49.6501,461.007 69.5,455.5 Z"/></g>
<g><path style="opacity:1" fill="#1db8d2" d="M 68.5,462.5 C 68.5,463.167 68.5,463.833 68.5,464.5C 50.3295,471.994 35.3295,483.66 23.5,499.5C 22.1667,499.5 20.8333,499.5 19.5,499.5C 29.8064,478.867 46.1397,465.534 68.5,459.5C 68.5,460.5 68.5,461.5 68.5,462.5 Z"/></g>
<g><path style="opacity:1" fill="#1a879c" d="M 431.5,458.5 C 432.968,459.869 434.635,461.036 436.5,462C 457.735,467.415 473.069,479.915 482.5,499.5C 480.833,499.5 479.167,499.5 477.5,499.5C 472.461,490.931 466.127,483.431 458.5,477C 450.172,472.002 441.506,467.835 432.5,464.5C 432.167,462.5 431.833,460.5 431.5,458.5 Z"/></g>
<g><path style="opacity:1" fill="#09a9c4" d="M 68.5,464.5 C 66.6094,476.176 64.6094,487.843 62.5,499.5C 49.5,499.5 36.5,499.5 23.5,499.5C 35.3295,483.66 50.3295,471.994 68.5,464.5 Z"/></g>
<g><path style="opacity:1" fill="#1eb8d2" d="M 432.5,464.5 C 441.506,467.835 450.172,472.002 458.5,477C 466.127,483.431 472.461,490.931 477.5,499.5C 474.167,499.5 470.833,499.5 467.5,499.5C 458.495,487.332 447.162,477.999 433.5,471.5C 432.631,469.283 432.298,466.95 432.5,464.5 Z"/></g>
<g><path style="opacity:1" fill="#08a8c3" d="M 433.5,471.5 C 447.162,477.999 458.495,487.332 467.5,499.5C 457.5,499.5 447.5,499.5 437.5,499.5C 435.95,490.198 434.616,480.865 433.5,471.5 Z"/></g>
<g><path style="opacity:1" fill="#afaba3" d="M 320.5,499.5 C 319.167,499.5 317.833,499.5 316.5,499.5C 310.948,494.644 304.615,490.977 297.5,488.5C 293.196,489.627 288.863,490.627 284.5,491.5C 285.306,490.272 286.306,489.272 287.5,488.5C 291.351,486.831 295.351,486.331 299.5,487C 306.932,490.632 313.932,494.799 320.5,499.5 Z"/></g>
<g><path style="opacity:1" fill="#b0aca3" d="M 231.5,491.5 C 229.265,491.205 227.265,491.539 225.5,492.5C 219.967,493.266 215.301,495.6 211.5,499.5C 210.167,499.5 208.833,499.5 207.5,499.5C 211.299,496.048 215.632,493.382 220.5,491.5C 224.268,490.213 227.935,490.213 231.5,491.5 Z"/></g>
<g><path style="opacity:1" fill="#0ea5bf" d="M 297.5,488.5 C 304.615,490.977 310.948,494.644 316.5,499.5C 281.5,499.5 246.5,499.5 211.5,499.5C 215.301,495.6 219.967,493.266 225.5,492.5C 231.228,493.68 236.895,495.18 242.5,497C 258.543,498.733 274.209,497.066 289.5,492C 292.476,491.295 295.142,490.129 297.5,488.5 Z"/></g>
<g><path style="opacity:1" fill="#2c8da0" d="M 297.5,488.5 C 295.142,490.129 292.476,491.295 289.5,492C 274.209,497.066 258.543,498.733 242.5,497C 236.895,495.18 231.228,493.68 225.5,492.5C 227.265,491.539 229.265,491.205 231.5,491.5C 232.605,492.6 233.938,493.267 235.5,493.5C 251.173,496.153 266.84,495.82 282.5,492.5C 283.492,492.672 284.158,492.338 284.5,491.5C 288.863,490.627 293.196,489.627 297.5,488.5 Z"/></g>
</svg>
