<?xml version="1.0" encoding="UTF-8"?>
<!DOCTYPE svg PUBLIC "-//W3C//DTD SVG 1.1//EN" "http://www.w3.org/Graphics/SVG/1.1/DTD/svg11.dtd">
<svg xmlns="http://www.w3.org/2000/svg" version="1.1" width="500px" height="500px" style="shape-rendering:geometricPrecision; text-rendering:geometricPrecision; image-rendering:optimizeQuality; fill-rule:evenodd; clip-rule:evenodd" xmlns:xlink="http://www.w3.org/1999/xlink">
<g><path style="opacity:1" fill="#ebeff0" d="M -0.5,-0.5 C 62.8333,-0.5 126.167,-0.5 189.5,-0.5C 156.143,14.6818 130.143,38.1818 111.5,70C 77.0296,132.913 63.1962,200.413 70,272.5C 71.7317,306.981 72.8984,341.481 73.5,376C 73.1954,402.564 71.862,429.064 69.5,455.5C 49.6501,461.007 33.1501,471.674 20,487.5C 17.1735,491.155 15.0068,495.155 13.5,499.5C 8.83333,499.5 4.16667,499.5 -0.5,499.5C -0.5,332.833 -0.5,166.167 -0.5,-0.5 Z"/></g>
<g><path style="opacity:1" fill="#29222a" d="M 195.5,-0.5 C 231.5,-0.5 267.5,-0.5 303.5,-0.5C 330.43,10.9117 352.93,28.245 371,51.5C 404.706,98.9466 422.706,151.947 425,210.5C 425.667,230.167 425.667,249.833 425,269.5C 421.863,318.809 421.197,368.142 423,417.5C 424.556,445.169 428.39,472.502 434.5,499.5C 429.167,499.5 423.833,499.5 418.5,499.5C 411.106,474.36 406.606,448.694 405,422.5C 404.858,448.195 405.691,473.861 407.5,499.5C 404.167,499.5 400.833,499.5 397.5,499.5C 385.757,463.077 381.59,425.743 385,387.5C 389.681,342.9 396.181,298.566 404.5,254.5C 404.154,253.304 403.654,253.304 403,254.5C 387.317,318.974 374.317,381.974 364,443.5C 361.89,425.461 362.224,407.461 365,389.5C 373.701,343.998 381.367,298.332 388,252.5C 391.82,218.736 391.153,185.07 386,151.5C 380.678,122.544 369.178,96.5438 351.5,73.5C 345.135,67.4654 339.469,60.7988 334.5,53.5C 328.681,48.1816 323.015,42.6816 317.5,37C 316.833,36.3333 316.167,36.3333 315.5,37C 324.673,45.9071 333.006,55.4071 340.5,65.5C 361.742,100.217 375.075,137.884 380.5,178.5C 370.938,175.988 361.271,173.988 351.5,172.5C 346.198,146.43 337.031,121.763 324,98.5C 327.069,112.501 330.402,126.501 334,140.5C 336.014,150.767 337.514,161.1 338.5,171.5C 333.187,170.902 327.854,170.569 322.5,170.5C 320.554,145.601 315.72,121.268 308,97.5C 309.714,114.911 310.88,132.244 311.5,149.5C 311.347,155.845 311.014,162.178 310.5,168.5C 308.886,170.075 306.886,170.741 304.5,170.5C 301.853,137.395 293.019,106.062 278,76.5C 281.496,94.805 284.329,113.138 286.5,131.5C 287.583,145.494 288.583,159.494 289.5,173.5C 284.835,174.057 280.502,175.39 276.5,177.5C 269.962,179.102 264.295,182.269 259.5,187C 257.203,187.018 254.869,186.851 252.5,186.5C 248.776,156.916 245.942,127.249 244,97.5C 235.742,124.894 231.909,152.894 232.5,181.5C 225.902,178.635 219.235,175.968 212.5,173.5C 211.459,163.179 210.459,152.846 209.5,142.5C 206.769,152.288 205.435,162.288 205.5,172.5C 199.5,171.833 193.5,171.167 187.5,170.5C 188.087,154.49 188.921,138.49 190,122.5C 192.631,115.308 194.631,107.974 196,100.5C 184.657,115.881 178.323,133.214 177,152.5C 176.501,158.491 176.334,164.491 176.5,170.5C 168.836,170.889 161.17,171.222 153.5,171.5C 154.399,144.46 161.566,119.46 175,96.5C 160.086,110.997 151.586,128.664 149.5,149.5C 147.041,157.545 144.374,165.545 141.5,173.5C 136.111,174.245 130.778,175.245 125.5,176.5C 129.108,162.368 133.774,148.701 139.5,135.5C 154.111,101.784 174.111,71.6172 199.5,45C 194.886,46.7513 190.886,49.5846 187.5,53.5C 185.091,54.7007 183.091,56.3674 181.5,58.5C 144.119,90.5715 121.786,131.238 114.5,180.5C 112.448,188.407 111.781,196.407 112.5,204.5C 117.588,250.201 123.088,295.867 129,341.5C 135.174,392.108 135.841,442.774 131,493.5C 132.988,449.991 130.988,406.657 125,363.5C 121.649,339.391 117.649,315.391 113,291.5C 114.33,310.137 115.663,328.804 117,347.5C 119.718,398.692 115.884,449.358 105.5,499.5C 104.5,499.5 103.5,499.5 102.5,499.5C 103.224,469.52 101.058,439.854 96,410.5C 95.105,440.594 91.2717,470.261 84.5,499.5C 78.1667,499.5 71.8333,499.5 65.5,499.5C 76.2985,451.128 80.6318,402.128 78.5,352.5C 77.4386,302.836 76.9386,253.169 77,203.5C 80.258,152.737 94.9247,105.737 121,62.5C 139.318,33.6734 164.151,12.6734 195.5,-0.5 Z"/></g>
<g><path style="opacity:1" fill="#ebeff0" d="M 307.5,-0.5 C 371.5,-0.5 435.5,-0.5 499.5,-0.5C 499.5,166.167 499.5,332.833 499.5,499.5C 493.833,499.5 488.167,499.5 482.5,499.5C 473.069,479.915 457.735,467.415 436.5,462C 434.635,461.036 432.968,459.869 431.5,458.5C 428.84,433.912 427.507,409.246 427.5,384.5C 428.013,350.145 429.18,315.812 431,281.5C 439.394,207.138 425.394,137.471 389,72.5C 369.528,39.525 342.361,15.1917 307.5,-0.5 Z"/></g>
<g><path style="opacity:1" fill="#050606" d="M 189.5,-0.5 C 191.5,-0.5 193.5,-0.5 195.5,-0.5C 164.151,12.6734 139.318,33.6734 121,62.5C 94.9247,105.737 80.258,152.737 77,203.5C 76.9386,253.169 77.4386,302.836 78.5,352.5C 80.6318,402.128 76.2985,451.128 65.5,499.5C 64.5,499.5 63.5,499.5 62.5,499.5C 64.6094,487.843 66.6094,476.176 68.5,464.5C 68.5,463.833 68.5,463.167 68.5,462.5C 69.4682,460.393 69.8016,458.059 69.5,455.5C 71.862,429.064 73.1954,402.564 73.5,376C 72.8984,341.481 71.7317,306.981 70,272.5C 63.1962,200.413 77.0296,132.913 111.5,70C 130.143,38.1818 156.143,14.6818 189.5,-0.5 Z"/></g>
<g><path style="opacity:1" fill="#060606" d="M 303.5,-0.5 C 304.833,-0.5 306.167,-0.5 307.5,-0.5C 342.361,15.1917 369.528,39.525 389,72.5C 425.394,137.471 439.394,207.138 431,281.5C 429.18,315.812 428.013,350.145 427.5,384.5C 427.507,409.246 428.84,433.912 431.5,458.5C 431.833,460.5 432.167,462.5 432.5,464.5C 432.298,466.95 432.631,469.283 433.5,471.5C 434.616,480.865 435.95,490.198 437.5,499.5C 436.5,499.5 435.5,499.5 434.5,499.5C 428.39,472.502 424.556,445.169 423,417.5C 421.197,368.142 421.863,318.809 425,269.5C 425.667,249.833 425.667,230.167 425,210.5C 422.706,151.947 404.706,98.9466 371,51.5C 352.93,28.245 330.43,10.9117 303.5,-0.5 Z"/></g>
<g><path style="opacity:1" fill="#373237" d="M 307.5,13.5 C 308.251,12.4265 309.251,12.2599 310.5,13C 348.714,29.8703 374.214,58.0369 387,97.5C 374.402,70.2439 356.569,47.0772 333.5,28C 325.263,22.3819 316.596,17.5485 307.5,13.5 Z"/></g>
<g><path style="opacity:1" fill="#373137" d="M 176.5,20.5 C 177.239,20.369 177.906,20.5357 178.5,21C 141.136,52.5625 114.303,91.3959 98,137.5C 96.4104,144.115 95.077,150.782 94,157.5C 94.6161,143.363 97.6161,129.696 103,116.5C 118.711,77.6407 143.211,45.6407 176.5,20.5 Z"/></g>
<g><path style="opacity:1" fill="#1c151d" d="M 139.5,135.5 C 145.96,113.247 156.126,92.9141 170,74.5C 176.167,67.6667 182.333,60.8333 188.5,54C 188.272,53.6012 187.938,53.4346 187.5,53.5C 190.886,49.5846 194.886,46.7513 199.5,45C 174.111,71.6172 154.111,101.784 139.5,135.5 Z"/></g>
<g><path style="opacity:1" fill="#383238" d="M 300.5,37.5 C 300.897,36.475 301.563,36.3083 302.5,37C 332.793,66.7494 351.626,102.583 359,144.5C 349.858,111.358 335.191,81.0249 315,53.5C 310.301,47.9714 305.468,42.638 300.5,37.5 Z"/></g>
<g><path style="opacity:1" fill="#1b141c" d="M 181.5,58.5 C 171.438,68.7312 162.271,79.7312 154,91.5C 138.367,117.901 128.2,146.234 123.5,176.5C 120.572,177.817 117.572,179.15 114.5,180.5C 121.786,131.238 144.119,90.5715 181.5,58.5 Z"/></g>
<g><path style="opacity:1" fill="#030204" d="M 351.5,73.5 C 370.563,106.444 381.229,141.777 383.5,179.5C 378.329,144.821 367.829,111.821 352,80.5C 348.631,75.071 344.798,70.071 340.5,65.5C 333.006,55.4071 324.673,45.9071 315.5,37C 316.167,36.3333 316.833,36.3333 317.5,37C 323.015,42.6816 328.681,48.1816 334.5,53.5C 339.469,60.7988 345.135,67.4654 351.5,73.5 Z"/></g>
<g><path style="opacity:1" fill="#1a141b" d="M 340.5,65.5 C 344.798,70.071 348.631,75.071 352,80.5C 367.829,111.821 378.329,144.821 383.5,179.5C 382.609,178.89 381.609,178.557 380.5,178.5C 375.075,137.884 361.742,100.217 340.5,65.5 Z"/></g>
<g><path style="opacity:1" fill="#1b141c" d="M 304.5,170.5 C 303.609,171.11 302.609,171.443 301.5,171.5C 299.806,145.274 294.306,119.941 285,95.5C 285.387,107.484 285.887,119.484 286.5,131.5C 284.329,113.138 281.496,94.805 278,76.5C 293.019,106.062 301.853,137.395 304.5,170.5 Z"/></g>
<g><path style="opacity:1" fill="#040305" d="M 187.5,53.5 C 187.938,53.4346 188.272,53.6012 188.5,54C 182.333,60.8333 176.167,67.6667 170,74.5C 156.126,92.9141 145.96,113.247 139.5,135.5C 133.774,148.701 129.108,162.368 125.5,176.5C 124.833,176.5 124.167,176.5 123.5,176.5C 128.2,146.234 138.367,117.901 154,91.5C 162.271,79.7312 171.438,68.7312 181.5,58.5C 183.091,56.3674 185.091,54.7007 187.5,53.5 Z"/></g>
<g><path style="opacity:1" fill="#1b141c" d="M 351.5,73.5 C 369.178,96.5438 380.678,122.544 386,151.5C 391.153,185.07 391.82,218.736 388,252.5C 381.367,298.332 373.701,343.998 365,389.5C 362.224,407.461 361.89,425.461 364,443.5C 374.317,381.974 387.317,318.974 403,254.5C 403.654,253.304 404.154,253.304 404.5,254.5C 396.181,298.566 389.681,342.9 385,387.5C 381.59,425.743 385.757,463.077 397.5,499.5C 393.167,499.5 388.833,499.5 384.5,499.5C 382.31,475.722 380.977,451.889 380.5,428C 380.801,405.759 381.968,383.592 384,361.5C 377.883,398.259 375.883,435.259 378,472.5C 378.455,481.545 379.289,490.545 380.5,499.5C 369.167,499.5 357.833,499.5 346.5,499.5C 347.006,469.423 348.84,439.423 352,409.5C 358.831,349.519 365.331,289.519 371.5,229.5C 372.227,222.364 374.394,215.697 378,209.5C 380.479,207.686 382.979,206.019 385.5,204.5C 386.809,203.376 387.475,201.876 387.5,200C 386.787,194.524 386.287,189.024 386,183.5C 385.52,181.867 384.687,180.534 383.5,179.5C 381.229,141.777 370.563,106.444 351.5,73.5 Z"/></g>
<g><path style="opacity:1" fill="#171117" d="M 322.5,170.5 C 320.219,170.923 318.552,170.256 317.5,168.5C 317.443,154.266 315.61,140.266 312,126.5C 311.5,134.159 311.334,141.826 311.5,149.5C 310.88,132.244 309.714,114.911 308,97.5C 315.72,121.268 320.554,145.601 322.5,170.5 Z"/></g>
<g><path style="opacity:1" fill="#181218" d="M 351.5,172.5 C 349.114,172.741 347.114,172.075 345.5,170.5C 345.5,169.5 345.5,168.5 345.5,167.5C 344.167,167.5 342.833,167.5 341.5,167.5C 341.5,168.833 341.5,170.167 341.5,171.5C 340.5,171.5 339.5,171.5 338.5,171.5C 337.514,161.1 336.014,150.767 334,140.5C 330.402,126.501 327.069,112.501 324,98.5C 337.031,121.763 346.198,146.43 351.5,172.5 Z"/></g>
<g><path style="opacity:1" fill="#0a0809" d="M 252.5,186.5 C 251.833,185.167 251.167,183.833 250.5,182.5C 246.362,160.34 243.529,138.006 242,115.5C 238.424,134.031 235.924,152.697 234.5,171.5C 233.902,175.42 233.235,178.753 232.5,181.5C 231.909,152.894 235.742,124.894 244,97.5C 245.942,127.249 248.776,156.916 252.5,186.5 Z"/></g>
<g><path style="opacity:1" fill="#0c0a0b" d="M 301.5,171.5 C 300.833,171.5 300.167,171.5 299.5,171.5C 296.972,152 293.472,132.666 289,113.5C 290.095,127.124 290.928,140.791 291.5,154.5C 291.666,160.509 291.499,166.509 291,172.5C 290.617,173.056 290.117,173.389 289.5,173.5C 288.583,159.494 287.583,145.494 286.5,131.5C 285.887,119.484 285.387,107.484 285,95.5C 294.306,119.941 299.806,145.274 301.5,171.5 Z"/></g>
<g><path style="opacity:1" fill="#171217" d="M 187.5,170.5 C 186.833,170.5 186.167,170.5 185.5,170.5C 185.333,159.828 185.5,149.161 186,138.5C 187.143,132.176 187.81,125.842 188,119.5C 182.148,135.277 179.315,151.61 179.5,168.5C 181.553,168.402 183.22,169.069 184.5,170.5C 181.833,170.5 179.167,170.5 176.5,170.5C 176.334,164.491 176.501,158.491 177,152.5C 178.323,133.214 184.657,115.881 196,100.5C 194.631,107.974 192.631,115.308 190,122.5C 188.921,138.49 188.087,154.49 187.5,170.5 Z"/></g>
<g><path style="opacity:1" fill="#d2b9b5" d="M 299.5,171.5 C 297.194,171.993 294.861,172.326 292.5,172.5C 292.823,166.31 292.49,160.31 291.5,154.5C 290.928,140.791 290.095,127.124 289,113.5C 293.472,132.666 296.972,152 299.5,171.5 Z"/></g>
<g><path style="opacity:1" fill="#1c151c" d="M 153.5,171.5 C 151.958,172.301 150.292,172.634 148.5,172.5C 150.983,151.731 156.65,131.897 165.5,113C 164.668,112.312 164.002,112.479 163.5,113.5C 157.819,125.228 153.152,137.228 149.5,149.5C 151.586,128.664 160.086,110.997 175,96.5C 161.566,119.46 154.399,144.46 153.5,171.5 Z"/></g>
<g><path style="opacity:1" fill="#cdb3af" d="M 185.5,170.5 C 185.167,170.5 184.833,170.5 184.5,170.5C 183.22,169.069 181.553,168.402 179.5,168.5C 179.315,151.61 182.148,135.277 188,119.5C 187.81,125.842 187.143,132.176 186,138.5C 185.5,149.161 185.333,159.828 185.5,170.5 Z"/></g>
<g><path style="opacity:1" fill="#dcc5c1" d="M 250.5,182.5 C 250.5,183.5 250.5,184.5 250.5,185.5C 237.507,189.847 232.173,185.18 234.5,171.5C 235.924,152.697 238.424,134.031 242,115.5C 243.529,138.006 246.362,160.34 250.5,182.5 Z"/></g>
<g><path style="opacity:1" fill="#373137" d="M 121.5,110.5 C 122.043,110.56 122.376,110.893 122.5,111.5C 107.745,144.522 99.245,179.189 97,215.5C 95.5994,232.166 95.2661,248.832 96,265.5C 88.9399,211.195 97.4399,159.528 121.5,110.5 Z"/></g>
<g><path style="opacity:1" fill="#cfb5b1" d="M 317.5,168.5 C 315.733,169.256 313.9,169.923 312,170.5C 310.97,170.164 310.47,169.497 310.5,168.5C 311.014,162.178 311.347,155.845 311.5,149.5C 311.334,141.826 311.5,134.159 312,126.5C 315.61,140.266 317.443,154.266 317.5,168.5 Z"/></g>
<g><path style="opacity:1" fill="#090609" d="M 148.5,172.5 C 147.833,172.5 147.167,172.5 146.5,172.5C 146.662,170.473 146.495,168.473 146,166.5C 144.477,168.569 143.643,170.903 143.5,173.5C 142.833,173.5 142.167,173.5 141.5,173.5C 144.374,165.545 147.041,157.545 149.5,149.5C 153.152,137.228 157.819,125.228 163.5,113.5C 164.002,112.479 164.668,112.312 165.5,113C 156.65,131.897 150.983,151.731 148.5,172.5 Z"/></g>
<g><path style="opacity:1" fill="#080608" d="M 212.5,173.5 C 211.833,172.833 211.167,172.167 210.5,171.5C 210.001,166.508 209.501,161.508 209,156.5C 208.023,161.793 207.523,167.126 207.5,172.5C 206.833,172.5 206.167,172.5 205.5,172.5C 205.435,162.288 206.769,152.288 209.5,142.5C 210.459,152.846 211.459,163.179 212.5,173.5 Z"/></g>
<g><path style="opacity:1" fill="#877673" d="M 340.5,148.5 C 339.833,148.5 339.5,148.833 339.5,149.5C 337.892,146.062 337.058,142.396 337,138.5C 338.468,141.696 339.635,145.029 340.5,148.5 Z"/></g>
<g><path style="opacity:1" fill="#ceb4b0" d="M 340.5,148.5 C 341.831,153.154 343.164,157.821 344.5,162.5C 343.311,163.429 341.978,163.762 340.5,163.5C 340.331,158.819 339.998,154.152 339.5,149.5C 339.5,148.833 339.833,148.5 340.5,148.5 Z"/></g>
<g><path style="opacity:1" fill="#373237" d="M 392.5,132.5 C 403.467,158.648 407.634,185.981 405,214.5C 404.078,226.876 402.745,239.21 401,251.5C 402.295,228.198 402.629,204.865 402,181.5C 400.894,164.746 397.727,148.412 392.5,132.5 Z"/></g>
<g><path style="opacity:1" fill="#b6a09d" d="M 210.5,171.5 C 209.947,173.552 208.947,173.885 207.5,172.5C 207.523,167.126 208.023,161.793 209,156.5C 209.501,161.508 210.001,166.508 210.5,171.5 Z"/></g>
<g><path style="opacity:1" fill="#b49b97" d="M 146.5,172.5 C 145.791,173.404 144.791,173.737 143.5,173.5C 143.643,170.903 144.477,168.569 146,166.5C 146.495,168.473 146.662,170.473 146.5,172.5 Z"/></g>
<g><path style="opacity:1" fill="#d5bab6" d="M 345.5,170.5 C 344.432,171.434 343.099,171.768 341.5,171.5C 341.5,170.167 341.5,168.833 341.5,167.5C 342.833,167.5 344.167,167.5 345.5,167.5C 345.5,168.5 345.5,169.5 345.5,170.5 Z"/></g>
<g><path style="opacity:1" fill="#361f18" d="M 291.5,154.5 C 292.49,160.31 292.823,166.31 292.5,172.5C 294.861,172.326 297.194,171.993 299.5,171.5C 300.167,171.5 300.833,171.5 301.5,171.5C 302.609,171.443 303.609,171.11 304.5,170.5C 306.886,170.741 308.886,170.075 310.5,168.5C 310.47,169.497 310.97,170.164 312,170.5C 313.9,169.923 315.733,169.256 317.5,168.5C 318.552,170.256 320.219,170.923 322.5,170.5C 327.854,170.569 333.187,170.902 338.5,171.5C 339.5,171.5 340.5,171.5 341.5,171.5C 343.099,171.768 344.432,171.434 345.5,170.5C 347.114,172.075 349.114,172.741 351.5,172.5C 361.271,173.988 370.938,175.988 380.5,178.5C 381.609,178.557 382.609,178.89 383.5,179.5C 384.687,180.534 385.52,181.867 386,183.5C 386.287,189.024 386.787,194.524 387.5,200C 387.475,201.876 386.809,203.376 385.5,204.5C 384.672,193.02 379.005,184.853 368.5,180C 338.091,170.906 307.425,170.073 276.5,177.5C 280.502,175.39 284.835,174.057 289.5,173.5C 290.117,173.389 290.617,173.056 291,172.5C 291.499,166.509 291.666,160.509 291.5,154.5 Z"/></g>
<g><path style="opacity:1" fill="#2a1610" d="M 176.5,170.5 C 179.167,170.5 181.833,170.5 184.5,170.5C 184.833,170.5 185.167,170.5 185.5,170.5C 186.167,170.5 186.833,170.5 187.5,170.5C 193.5,171.167 199.5,171.833 205.5,172.5C 206.167,172.5 206.833,172.5 207.5,172.5C 208.947,173.885 209.947,173.552 210.5,171.5C 211.167,172.167 211.833,172.833 212.5,173.5C 219.235,175.968 225.902,178.635 232.5,181.5C 233.235,178.753 233.902,175.42 234.5,171.5C 232.173,185.18 237.507,189.847 250.5,185.5C 250.5,184.5 250.5,183.5 250.5,182.5C 251.167,183.833 251.833,185.167 252.5,186.5C 254.869,186.851 257.203,187.018 259.5,187C 264.295,182.269 269.962,179.102 276.5,177.5C 307.425,170.073 338.091,170.906 368.5,180C 379.005,184.853 384.672,193.02 385.5,204.5C 382.979,206.019 380.479,207.686 378,209.5C 374.394,215.697 372.227,222.364 371.5,229.5C 370.262,231.214 369.595,233.214 369.5,235.5C 366.597,239.63 363.93,243.963 361.5,248.5C 355.057,256.395 346.724,261.228 336.5,263C 301.678,270.675 277.511,258.175 264,225.5C 261.68,217.915 259.68,210.248 258,202.5C 255.959,200.026 253.292,199.026 250,199.5C 246.479,199.083 243.479,200.083 241,202.5C 238.206,222.586 229.706,239.753 215.5,254C 209.186,259.489 201.853,262.822 193.5,264C 174.988,267.379 157.988,264.046 142.5,254C 138.877,250.551 135.877,246.717 133.5,242.5C 131.344,237.342 129.011,232.342 126.5,227.5C 126.665,225.332 126.332,222.999 125.5,220.5C 124.448,212.346 120.114,207.013 112.5,204.5C 111.781,196.407 112.448,188.407 114.5,180.5C 117.572,179.15 120.572,177.817 123.5,176.5C 124.167,176.5 124.833,176.5 125.5,176.5C 130.778,175.245 136.111,174.245 141.5,173.5C 142.167,173.5 142.833,173.5 143.5,173.5C 144.791,173.737 145.791,173.404 146.5,172.5C 147.167,172.5 147.833,172.5 148.5,172.5C 150.292,172.634 151.958,172.301 153.5,171.5C 161.17,171.222 168.836,170.889 176.5,170.5 Z"/></g>
<g><path style="opacity:1" fill="#e7d7d5" d="M 178.5,175.5 C 180.833,175.5 183.167,175.5 185.5,175.5C 185.5,178.5 185.5,181.5 185.5,184.5C 191.429,184.343 197.262,185.01 203,186.5C 207.537,183.787 211.537,184.454 215,188.5C 215.772,188.355 216.439,188.022 217,187.5C 220.683,188.864 224.516,189.531 228.5,189.5C 229.5,189.833 230.167,190.5 230.5,191.5C 210.653,190.926 190.82,190.926 171,191.5C 164.244,190.58 157.577,189.247 151,187.5C 145.252,189.136 139.419,190.47 133.5,191.5C 133.738,189.596 134.738,188.262 136.5,187.5C 137.151,188.091 137.818,188.757 138.5,189.5C 139.477,187.589 140.143,185.589 140.5,183.5C 141.833,182.833 143.167,182.167 144.5,181.5C 152.003,182.403 159.336,184.237 166.5,187C 170.204,187.804 173.704,187.304 177,185.5C 178.043,182.243 178.543,178.91 178.5,175.5 Z"/></g>
<g><path style="opacity:1" fill="#e7d7d4" d="M 313.5,175.5 C 314.833,175.5 316.167,175.5 317.5,175.5C 317.5,179.833 317.5,184.167 317.5,188.5C 325.833,188.5 334.167,188.5 342.5,188.5C 342.603,185.781 342.269,183.115 341.5,180.5C 341.747,179.287 342.414,178.62 343.5,178.5C 344.5,178.5 345.5,178.5 346.5,178.5C 347.421,181.684 348.421,184.85 349.5,188C 353.806,188.912 357.806,188.412 361.5,186.5C 363.167,187.5 364.5,188.833 365.5,190.5C 344.198,192.38 322.865,194.214 301.5,196C 289.478,197.036 277.478,197.202 265.5,196.5C 266.057,193.95 267.39,191.95 269.5,190.5C 270.404,191.209 270.737,192.209 270.5,193.5C 277.798,192.24 285.131,191.24 292.5,190.5C 292.338,188.473 292.505,186.473 293,184.5C 299.794,179.819 302.627,181.819 301.5,190.5C 303.833,190.5 306.167,190.5 308.5,190.5C 308.335,187.15 308.502,183.817 309,180.5C 309.743,178.068 311.243,176.401 313.5,175.5 Z"/></g>
<g><path style="opacity:1" fill="#7b777b" d="M 317.5,175.5 C 326.469,175.087 335.135,176.087 343.5,178.5C 342.414,178.62 341.747,179.287 341.5,180.5C 342.269,183.115 342.603,185.781 342.5,188.5C 334.167,188.5 325.833,188.5 317.5,188.5C 317.5,184.167 317.5,179.833 317.5,175.5 Z"/></g>
<g><path style="opacity:1" fill="#7c787c" d="M 178.5,175.5 C 178.543,178.91 178.043,182.243 177,185.5C 173.704,187.304 170.204,187.804 166.5,187C 159.336,184.237 152.003,182.403 144.5,181.5C 155.388,177.592 166.721,175.592 178.5,175.5 Z"/></g>
<g><path style="opacity:1" fill="#7c787c" d="M 185.5,175.5 C 198.52,175.662 210.854,178.495 222.5,184C 224.996,185.331 226.996,187.164 228.5,189.5C 224.516,189.531 220.683,188.864 217,187.5C 216.439,188.022 215.772,188.355 215,188.5C 211.537,184.454 207.537,183.787 203,186.5C 197.262,185.01 191.429,184.343 185.5,184.5C 185.5,181.5 185.5,178.5 185.5,175.5 Z"/></g>
<g><path style="opacity:1" fill="#7a7679" d="M 313.5,175.5 C 311.243,176.401 309.743,178.068 309,180.5C 308.502,183.817 308.335,187.15 308.5,190.5C 306.167,190.5 303.833,190.5 301.5,190.5C 302.627,181.819 299.794,179.819 293,184.5C 292.505,186.473 292.338,188.473 292.5,190.5C 285.131,191.24 277.798,192.24 270.5,193.5C 270.737,192.209 270.404,191.209 269.5,190.5C 270.625,188.871 271.959,187.371 273.5,186C 285.835,178.765 299.168,175.265 313.5,175.5 Z"/></g>
<g><path style="opacity:1" fill="#7b7679" d="M 346.5,178.5 C 350.382,180.19 354.382,181.69 358.5,183C 359.71,184.039 360.71,185.206 361.5,186.5C 357.806,188.412 353.806,188.912 349.5,188C 348.421,184.85 347.421,181.684 346.5,178.5 Z"/></g>
<g><path style="opacity:1" fill="#777374" d="M 140.5,183.5 C 140.143,185.589 139.477,187.589 138.5,189.5C 137.818,188.757 137.151,188.091 136.5,187.5C 137.5,185.833 138.833,184.5 140.5,183.5 Z"/></g>
<g><path style="opacity:1" fill="#f5e1de" d="M 230.5,191.5 C 232.163,193.493 233.33,195.826 234,198.5C 234.814,203.02 234.647,207.354 233.5,211.5C 214.831,201.672 194.831,197.505 173.5,199C 182.381,198.256 183.381,200.09 176.5,204.5C 169.5,204.5 162.5,204.5 155.5,204.5C 150.36,203.512 145.026,203.179 139.5,203.5C 136.56,204.202 133.727,205.202 131,206.5C 130.55,202.812 130.717,199.146 131.5,195.5C 131.66,193.847 132.326,192.514 133.5,191.5C 139.419,190.47 145.252,189.136 151,187.5C 157.577,189.247 164.244,190.58 171,191.5C 190.82,190.926 210.653,190.926 230.5,191.5 Z"/></g>
<g><path style="opacity:1" fill="#f2dad5" d="M 131.5,195.5 C 130.717,199.146 130.55,202.812 131,206.5C 133.727,205.202 136.56,204.202 139.5,203.5C 139.833,204.5 140.5,205.167 141.5,205.5C 145.649,209.804 149.316,214.47 152.5,219.5C 151.909,220.151 151.243,220.818 150.5,221.5C 151.982,223.483 153.649,225.316 155.5,227C 163.705,230.551 171.871,234.718 180,239.5C 182.709,239.748 185.875,239.415 189.5,238.5C 191.167,238.667 192.833,238.833 194.5,239C 191.5,239.333 188.5,239.667 185.5,240C 193.89,241.064 202.057,240.231 210,237.5C 210.772,237.645 211.439,237.978 212,238.5C 215.34,235.5 219.174,233.333 223.5,232C 224.071,230.795 224.738,229.628 225.5,228.5C 226.386,229.325 226.719,230.325 226.5,231.5C 217.593,250.89 202.427,260.224 181,259.5C 155.493,261.976 139.159,250.976 132,226.5C 128.988,216.046 128.822,205.713 131.5,195.5 Z"/></g>
<g><path style="opacity:1" fill="#8c807e" d="M 139.5,203.5 C 145.026,203.179 150.36,203.512 155.5,204.5C 150.637,204.181 145.97,204.514 141.5,205.5C 140.5,205.167 139.833,204.5 139.5,203.5 Z"/></g>
<g><path style="opacity:1" fill="#1b141c" d="M 112.5,204.5 C 120.114,207.013 124.448,212.346 125.5,220.5C 125.082,235.374 125.915,250.374 128,265.5C 132.817,296.066 138.817,326.4 146,356.5C 154.06,403.819 157.227,451.486 155.5,499.5C 146.167,499.5 136.833,499.5 127.5,499.5C 130.673,452.183 128.173,405.183 120,358.5C 122.073,378.094 123.739,397.761 125,417.5C 125.694,444.857 125.194,472.19 123.5,499.5C 117.5,499.5 111.5,499.5 105.5,499.5C 115.884,449.358 119.718,398.692 117,347.5C 115.663,328.804 114.33,310.137 113,291.5C 117.649,315.391 121.649,339.391 125,363.5C 130.988,406.657 132.988,449.991 131,493.5C 135.841,442.774 135.174,392.108 129,341.5C 123.088,295.867 117.588,250.201 112.5,204.5 Z"/></g>
<g><path style="opacity:1" fill="#393838" d="M 155.5,204.5 C 162.5,204.5 169.5,204.5 176.5,204.5C 184.038,205.186 191.704,206.019 199.5,207C 203.637,209.571 207.97,211.904 212.5,214C 213.381,214.708 214.047,215.542 214.5,216.5C 213.5,216.833 212.833,217.5 212.5,218.5C 210.608,217.298 208.774,215.965 207,214.5C 206.601,214.728 206.435,215.062 206.5,215.5C 205.341,213.75 203.674,212.75 201.5,212.5C 198.301,211.101 194.968,210.101 191.5,209.5C 182.54,208.585 173.54,208.252 164.5,208.5C 160.116,208.174 155.783,208.508 151.5,209.5C 152.275,211.396 153.275,213.063 154.5,214.5C 156.788,218.456 159.788,221.789 163.5,224.5C 163.842,225.338 164.508,225.672 165.5,225.5C 167.835,228.165 170.835,229.498 174.5,229.5C 178.97,230.486 183.637,230.819 188.5,230.5C 188.5,230.833 188.5,231.167 188.5,231.5C 174.185,233.933 162.185,229.933 152.5,219.5C 149.316,214.47 145.649,209.804 141.5,205.5C 145.97,204.514 150.637,204.181 155.5,204.5 Z"/></g>
<g><path style="opacity:1" fill="#3a3939" d="M 343.5,204.5 C 348.363,204.181 353.03,204.514 357.5,205.5C 353.167,210.833 348.833,216.167 344.5,221.5C 334.943,230.226 323.609,233.56 310.5,231.5C 310.5,231.167 310.5,230.833 310.5,230.5C 320.857,231.842 329.857,229.176 337.5,222.5C 338.833,221.833 339.833,220.833 340.5,219.5C 344.096,216.643 346.429,212.976 347.5,208.5C 343.167,208.5 338.833,208.5 334.5,208.5C 333.5,208.5 332.5,208.5 331.5,208.5C 327.833,208.5 324.167,208.5 320.5,208.5C 310.163,208.502 300.496,210.835 291.5,215.5C 289.668,216.248 288.001,217.248 286.5,218.5C 284.821,218.715 283.821,218.048 283.5,216.5C 289.203,211.731 295.703,208.398 303,206.5C 316.441,204.8 329.941,204.133 343.5,204.5 Z"/></g>
<g><path style="opacity:1" fill="#f2dbd7" d="M 365.5,190.5 C 372.235,209.951 369.735,228.284 358,245.5C 350.654,253.589 341.487,258.089 330.5,259C 303.429,264.63 284.095,255.13 272.5,230.5C 272.897,229.475 273.563,229.308 274.5,230C 277.41,231.643 280.077,233.643 282.5,236C 288.21,236.968 293.71,238.468 299,240.5C 301.504,239.985 304.171,239.985 307,240.5C 320.293,238.334 333.126,233.167 345.5,225C 344.663,223.989 344.33,222.822 344.5,221.5C 348.833,216.167 353.167,210.833 357.5,205.5C 358.289,205.217 358.956,204.717 359.5,204C 354.177,203.501 348.844,203.334 343.5,203.5C 337.451,204.27 332.118,202.77 327.5,199C 311.676,198.402 296.009,199.735 280.5,203C 275.259,204.345 270.426,206.512 266,209.5C 265.79,207.942 265.29,206.609 264.5,205.5C 264.264,202.391 264.597,199.391 265.5,196.5C 277.478,197.202 289.478,197.036 301.5,196C 322.865,194.214 344.198,192.38 365.5,190.5 Z"/></g>
<g><path style="opacity:1" fill="#8e8381" d="M 343.5,204.5 C 343.5,204.167 343.5,203.833 343.5,203.5C 348.844,203.334 354.177,203.501 359.5,204C 358.956,204.717 358.289,205.217 357.5,205.5C 353.03,204.514 348.363,204.181 343.5,204.5 Z"/></g>
<g><path style="opacity:1" fill="#b9babb" d="M 164.5,208.5 C 163.976,210.306 163.309,211.972 162.5,213.5C 159.615,213.194 156.948,213.527 154.5,214.5C 153.275,213.063 152.275,211.396 151.5,209.5C 155.783,208.508 160.116,208.174 164.5,208.5 Z"/></g>
<g><path style="opacity:1" fill="#545e87" d="M 164.5,208.5 C 173.54,208.252 182.54,208.585 191.5,209.5C 192.75,211.154 194.084,212.821 195.5,214.5C 194.209,214.263 193.209,214.596 192.5,215.5C 187.763,209.314 182.763,208.98 177.5,214.5C 176.828,213.733 175.995,213.066 175,212.5C 173.479,212.519 171.979,212.852 170.5,213.5C 168.5,213.5 166.5,213.5 164.5,213.5C 164.237,217.6 164.57,221.6 165.5,225.5C 164.508,225.672 163.842,225.338 163.5,224.5C 162.756,220.881 162.423,217.215 162.5,213.5C 163.309,211.972 163.976,210.306 164.5,208.5 Z"/></g>
<g><path style="opacity:1" fill="#37393f" d="M 192.5,215.5 C 191.464,225.889 186.63,228.223 178,222.5C 176.344,219.947 176.177,217.281 177.5,214.5C 182.763,208.98 187.763,209.314 192.5,215.5 Z"/></g>
<g><path style="opacity:1" fill="#a5a6ac" d="M 191.5,209.5 C 194.968,210.101 198.301,211.101 201.5,212.5C 200.082,214.308 198.082,214.975 195.5,214.5C 194.084,212.821 192.75,211.154 191.5,209.5 Z"/></g>
<g><path style="opacity:1" fill="#c2c3c4" d="M 334.5,208.5 C 338.833,208.5 343.167,208.5 347.5,208.5C 346.429,212.976 344.096,216.643 340.5,219.5C 340.196,218.85 339.863,218.183 339.5,217.5C 342.023,214.31 341.023,212.977 336.5,213.5C 335.463,212.07 334.796,210.403 334.5,208.5 Z"/></g>
<g><path style="opacity:1" fill="#e6e8e9" d="M 162.5,213.5 C 162.423,217.215 162.756,220.881 163.5,224.5C 159.788,221.789 156.788,218.456 154.5,214.5C 156.948,213.527 159.615,213.194 162.5,213.5 Z"/></g>
<g><path style="opacity:1" fill="#7d89b8" d="M 170.5,213.5 C 170.587,214.498 170.92,215.665 171.5,217C 169.833,217.333 168.167,217.667 166.5,218C 169.167,218.333 171.833,218.667 174.5,219C 173.167,219.667 171.833,220.333 170.5,221C 171.5,221.333 172.5,221.667 173.5,222C 171.377,222.815 169.377,223.815 167.5,225C 168.899,225.595 170.232,225.428 171.5,224.5C 172.648,226.149 173.981,227.649 175.5,229C 175.272,229.399 174.938,229.565 174.5,229.5C 170.835,229.498 167.835,228.165 165.5,225.5C 164.57,221.6 164.237,217.6 164.5,213.5C 166.5,213.5 168.5,213.5 170.5,213.5 Z"/></g>
<g><path style="opacity:1" fill="#f2f3f3" d="M 336.5,213.5 C 341.023,212.977 342.023,214.31 339.5,217.5C 339.863,218.183 340.196,218.85 340.5,219.5C 339.833,220.833 338.833,221.833 337.5,222.5C 336.523,219.713 336.19,216.713 336.5,213.5 Z"/></g>
<g><path style="opacity:1" fill="#6672a3" d="M 320.5,208.5 C 322.865,213.724 326.698,215.391 332,213.5C 332.384,211.803 332.218,210.137 331.5,208.5C 332.5,208.5 333.5,208.5 334.5,208.5C 334.796,210.403 335.463,212.07 336.5,213.5C 336.19,216.713 336.523,219.713 337.5,222.5C 329.857,229.176 320.857,231.842 310.5,230.5C 305.066,229.935 299.732,228.935 294.5,227.5C 293.311,223.431 292.311,219.431 291.5,215.5C 300.496,210.835 310.163,208.502 320.5,208.5 Z"/></g>
<g><path style="opacity:1" fill="#373940" d="M 311.5,210.5 C 319.32,210.152 322.82,213.819 322,221.5C 319.045,225.277 315.212,226.443 310.5,225C 305.003,219.683 305.336,214.85 311.5,210.5 Z"/></g>
<g><path style="opacity:1" fill="#bcbdc3" d="M 320.5,208.5 C 324.167,208.5 327.833,208.5 331.5,208.5C 332.218,210.137 332.384,211.803 332,213.5C 326.698,215.391 322.865,213.724 320.5,208.5 Z"/></g>
<g><path style="opacity:1" fill="#4e4b4b" d="M 214.5,216.5 C 218.457,218.457 221.457,221.457 223.5,225.5C 212.183,229.545 200.516,231.545 188.5,231.5C 188.5,231.167 188.5,230.833 188.5,230.5C 193.894,229.826 199.228,228.826 204.5,227.5C 208.171,226.248 211.671,224.582 215,222.5C 215.667,221.833 215.667,221.167 215,220.5C 214.005,219.934 213.172,219.267 212.5,218.5C 212.833,217.5 213.5,216.833 214.5,216.5 Z"/></g>
<g><path style="opacity:1" fill="#eccfca" d="M 343.5,203.5 C 343.5,203.833 343.5,204.167 343.5,204.5C 329.941,204.133 316.441,204.8 303,206.5C 295.703,208.398 289.203,211.731 283.5,216.5C 280.142,218.86 277.475,221.86 275.5,225.5C 280.643,226.536 285.643,228.036 290.5,230C 297.12,231.137 303.786,231.637 310.5,231.5C 323.609,233.56 334.943,230.226 344.5,221.5C 344.33,222.822 344.663,223.989 345.5,225C 333.126,233.167 320.293,238.334 307,240.5C 304.171,239.985 301.504,239.985 299,240.5C 293.71,238.468 288.21,236.968 282.5,236C 280.077,233.643 277.41,231.643 274.5,230C 273.563,229.308 272.897,229.475 272.5,230.5C 267.856,222.897 265.189,214.564 264.5,205.5C 265.29,206.609 265.79,207.942 266,209.5C 270.426,206.512 275.259,204.345 280.5,203C 296.009,199.735 311.676,198.402 327.5,199C 332.118,202.77 337.451,204.27 343.5,203.5 Z"/></g>
<g><path style="opacity:1" fill="#504c4d" d="M 283.5,216.5 C 283.821,218.048 284.821,218.715 286.5,218.5C 285.828,219.267 284.995,219.934 284,220.5C 283.333,221.167 283.333,221.833 284,222.5C 287.051,225.109 290.551,226.775 294.5,227.5C 299.732,228.935 305.066,229.935 310.5,230.5C 310.5,230.833 310.5,231.167 310.5,231.5C 303.786,231.637 297.12,231.137 290.5,230C 285.643,228.036 280.643,226.536 275.5,225.5C 277.475,221.86 280.142,218.86 283.5,216.5 Z"/></g>
<g><path style="opacity:1" fill="#d9d9da" d="M 212.5,218.5 C 213.172,219.267 214.005,219.934 215,220.5C 215.667,221.167 215.667,221.833 215,222.5C 211.671,224.582 208.171,226.248 204.5,227.5C 206.143,223.7 206.81,219.7 206.5,215.5C 206.435,215.062 206.601,214.728 207,214.5C 208.774,215.965 210.608,217.298 212.5,218.5 Z"/></g>
<g><path style="opacity:1" fill="#d5d5d6" d="M 291.5,215.5 C 292.311,219.431 293.311,223.431 294.5,227.5C 290.551,226.775 287.051,225.109 284,222.5C 283.333,221.833 283.333,221.167 284,220.5C 284.995,219.934 285.828,219.267 286.5,218.5C 288.001,217.248 289.668,216.248 291.5,215.5 Z"/></g>
<g><path style="opacity:1" fill="#6471a5" d="M 170.5,213.5 C 171.979,212.852 173.479,212.519 175,212.5C 175.995,213.066 176.828,213.733 177.5,214.5C 176.177,217.281 176.344,219.947 178,222.5C 186.63,228.223 191.464,225.889 192.5,215.5C 193.209,214.596 194.209,214.263 195.5,214.5C 198.082,214.975 200.082,214.308 201.5,212.5C 203.674,212.75 205.341,213.75 206.5,215.5C 206.81,219.7 206.143,223.7 204.5,227.5C 199.228,228.826 193.894,229.826 188.5,230.5C 183.637,230.819 178.97,230.486 174.5,229.5C 174.938,229.565 175.272,229.399 175.5,229C 173.981,227.649 172.648,226.149 171.5,224.5C 170.232,225.428 168.899,225.595 167.5,225C 169.377,223.815 171.377,222.815 173.5,222C 172.5,221.667 171.5,221.333 170.5,221C 171.833,220.333 173.167,219.667 174.5,219C 171.833,218.667 169.167,218.333 166.5,218C 168.167,217.667 169.833,217.333 171.5,217C 170.92,215.665 170.587,214.498 170.5,213.5 Z"/></g>
<g><path style="opacity:1" fill="#eaccc7" d="M 233.5,211.5 C 232.735,218.799 230.401,225.466 226.5,231.5C 226.719,230.325 226.386,229.325 225.5,228.5C 224.738,229.628 224.071,230.795 223.5,232C 219.174,233.333 215.34,235.5 212,238.5C 211.439,237.978 210.772,237.645 210,237.5C 202.057,240.231 193.89,241.064 185.5,240C 188.5,239.667 191.5,239.333 194.5,239C 192.833,238.833 191.167,238.667 189.5,238.5C 185.875,239.415 182.709,239.748 180,239.5C 171.871,234.718 163.705,230.551 155.5,227C 153.649,225.316 151.982,223.483 150.5,221.5C 151.243,220.818 151.909,220.151 152.5,219.5C 162.185,229.933 174.185,233.933 188.5,231.5C 200.516,231.545 212.183,229.545 223.5,225.5C 221.457,221.457 218.457,218.457 214.5,216.5C 214.047,215.542 213.381,214.708 212.5,214C 207.97,211.904 203.637,209.571 199.5,207C 191.704,206.019 184.038,205.186 176.5,204.5C 183.381,200.09 182.381,198.256 173.5,199C 194.831,197.505 214.831,201.672 233.5,211.5 Z"/></g>
<g><path style="opacity:1" fill="#d2b4b0" d="M 369.5,235.5 C 366.485,263.986 362.485,292.319 357.5,320.5C 355.37,322.529 353.704,324.862 352.5,327.5C 353.687,320.194 354.687,312.861 355.5,305.5C 358.351,287.212 361.017,268.879 363.5,250.5C 363.253,249.287 362.586,248.62 361.5,248.5C 363.93,243.963 366.597,239.63 369.5,235.5 Z"/></g>
<g><path style="opacity:1" fill="#f2d4cf" d="M 361.5,248.5 C 362.586,248.62 363.253,249.287 363.5,250.5C 361.017,268.879 358.351,287.212 355.5,305.5C 340.86,336.24 319.527,361.406 291.5,381C 259.742,398.995 229.075,397.328 199.5,376C 174.235,356.25 155.235,331.75 142.5,302.5C 138.206,283.86 134.872,265.027 132.5,246C 132.514,244.615 132.848,243.449 133.5,242.5C 135.877,246.717 138.877,250.551 142.5,254C 157.988,264.046 174.988,267.379 193.5,264C 201.853,262.822 209.186,259.489 215.5,254C 229.706,239.753 238.206,222.586 241,202.5C 243.479,200.083 246.479,199.083 250,199.5C 253.292,199.026 255.959,200.026 258,202.5C 259.68,210.248 261.68,217.915 264,225.5C 277.511,258.175 301.678,270.675 336.5,263C 346.724,261.228 355.057,256.395 361.5,248.5 Z"/></g>
<g><path style="opacity:1" fill="#f6dcd8" d="M 247.5,228.5 C 248.5,228.5 249.5,228.5 250.5,228.5C 251.984,233.033 252.65,237.699 252.5,242.5C 255.518,242.335 258.518,242.502 261.5,243C 259.5,243.333 257.5,243.667 255.5,244C 258.833,244.333 262.167,244.667 265.5,245C 264.833,245.333 264.167,245.667 263.5,246C 265.5,246.333 267.5,246.667 269.5,247C 268.833,247.333 268.167,247.667 267.5,248C 270.886,248.382 273.552,249.382 275.5,251C 274.833,251.333 274.167,251.667 273.5,252C 274.833,252.333 276.167,252.667 277.5,253C 276.833,253.333 276.167,253.667 275.5,254C 277.5,255 279.5,256 281.5,257C 280.833,257.333 280.167,257.667 279.5,258C 280.833,258.333 282.167,258.667 283.5,259C 282.833,259.333 282.167,259.667 281.5,260C 282.833,261 284.167,262 285.5,263C 284.833,263.333 284.167,263.667 283.5,264C 284.833,264.333 286.167,264.667 287.5,265C 284.833,265.667 284.833,266.333 287.5,267C 286.5,267.333 285.5,267.667 284.5,268C 286.359,268.684 288.026,269.684 289.5,271C 286.833,272.333 286.833,273.667 289.5,275C 286.833,275.667 286.833,276.333 289.5,277C 286.833,277.667 286.833,278.333 289.5,279C 286.833,279.667 286.833,280.333 289.5,281C 286.833,281.667 286.833,282.333 289.5,283C 286.833,283.667 286.833,284.333 289.5,285C 288.833,285.333 288.167,285.667 287.5,286C 292.833,286.667 292.833,287.333 287.5,288C 290.167,288.667 290.167,289.333 287.5,290C 288.167,290.333 288.833,290.667 289.5,291C 288.167,292.667 286.833,294.333 285.5,296C 288.167,296.667 288.167,297.333 285.5,298C 286.167,298.333 286.833,298.667 287.5,299C 286.167,299.333 284.833,299.667 283.5,300C 286.167,300.667 286.167,301.333 283.5,302C 284.167,302.333 284.833,302.667 285.5,303C 284.167,303.333 282.833,303.667 281.5,304C 282.167,304.333 282.833,304.667 283.5,305C 282.167,305.333 280.833,305.667 279.5,306C 280.167,306.333 280.833,306.667 281.5,307C 280.167,307.333 278.833,307.667 277.5,308C 280.167,308.667 280.167,309.333 277.5,310C 278.167,310.333 278.833,310.667 279.5,311C 277.5,311.333 275.5,311.667 273.5,312C 274.167,312.333 274.833,312.667 275.5,313C 274.167,313.333 272.833,313.667 271.5,314C 272.167,314.333 272.833,314.667 273.5,315C 271.5,315.333 269.5,315.667 267.5,316C 268.167,316.333 268.833,316.667 269.5,317C 267.5,317.333 265.5,317.667 263.5,318C 264.167,318.333 264.833,318.667 265.5,319C 259.669,319.833 253.836,320.666 248,321.5C 244.309,320.085 239.142,319.252 232.5,319C 233.167,318.667 233.833,318.333 234.5,318C 231.833,317 229.167,316 226.5,315C 227.167,314.667 227.833,314.333 228.5,314C 227.167,313.667 225.833,313.333 224.5,313C 225.167,312.667 225.833,312.333 226.5,312C 224.5,311.667 222.5,311.333 220.5,311C 221.167,310.667 221.833,310.333 222.5,310C 220.774,308.47 218.774,307.47 216.5,307C 219.167,306.333 219.167,305.667 216.5,305C 217.167,304.667 217.833,304.333 218.5,304C 217.167,303.667 215.833,303.333 214.5,303C 216.878,302.026 216.544,301.359 213.5,301C 217.185,300.086 216.852,299.419 212.5,299C 215.167,298.333 215.167,297.667 212.5,297C 213.167,296.667 213.833,296.333 214.5,296C 213.167,295.667 211.833,295.333 210.5,295C 213.167,294.333 213.167,293.667 210.5,293C 212.878,292.026 212.544,291.359 209.5,291C 210.925,289.286 210.592,287.953 208.5,287C 211.167,286.333 211.167,285.667 208.5,285C 211.167,284.333 211.167,283.667 208.5,283C 211.167,282.333 211.167,281.667 208.5,281C 211.167,280.333 211.167,279.667 208.5,279C 211.167,278.333 211.167,277.667 208.5,277C 211.167,276.333 211.167,275.667 208.5,275C 209.833,274 211.167,273 212.5,272C 211.833,271.667 211.167,271.333 210.5,271C 211.833,270 213.167,269 214.5,268C 211.833,267.333 211.833,266.667 214.5,266C 213.833,265.667 213.167,265.333 212.5,265C 217.833,264.333 217.833,263.667 212.5,263C 214.774,262.53 216.774,261.53 218.5,260C 217.833,259.667 217.167,259.333 216.5,259C 217.833,258 219.167,257 220.5,256C 219.833,255.667 219.167,255.333 218.5,255C 219.833,254.667 221.167,254.333 222.5,254C 221.833,253.667 221.167,253.333 220.5,253C 222.5,252.667 224.5,252.333 226.5,252C 225.833,251.667 225.167,251.333 224.5,251C 226.226,249.47 228.226,248.47 230.5,248C 229.833,247.667 229.167,247.333 228.5,247C 234.166,245.387 239.833,243.887 245.5,242.5C 245.846,237.784 246.513,233.117 247.5,228.5 Z"/></g>
<g><path style="opacity:1" fill="#383338" d="M 415.5,234.5 C 416.165,237.314 416.498,240.314 416.5,243.5C 412.85,305.856 412.683,368.19 416,430.5C 410.605,403.263 408.439,375.763 409.5,348C 409.626,310.065 411.626,272.232 415.5,234.5 Z"/></g>
<g><path style="opacity:1" fill="#373237" d="M 82.5,248.5 C 88.0405,290.185 89.8738,332.185 88,374.5C 87.6538,381.937 86.6538,389.271 85,396.5C 85.989,347.162 85.1557,297.828 82.5,248.5 Z"/></g>
<g><path style="opacity:1" fill="#d3b2ae" d="M 126.5,227.5 C 129.011,232.342 131.344,237.342 133.5,242.5C 132.848,243.449 132.514,244.615 132.5,246C 134.872,265.027 138.206,283.86 142.5,302.5C 144.344,311.54 146.344,320.54 148.5,329.5C 146.115,327.116 144.115,324.45 142.5,321.5C 133.944,290.836 128.611,259.503 126.5,227.5 Z"/></g>
<g><path style="opacity:1" fill="#e1aea5" d="M 233.5,286.5 C 242.5,287.691 251.5,287.691 260.5,286.5C 269.157,286.336 270.491,289.169 264.5,295C 252.942,302.717 241.776,302.217 231,293.5C 230.162,290.519 230.995,288.186 233.5,286.5 Z"/></g>
<g><path style="opacity:1" fill="#e9c0ba" d="M 142.5,302.5 C 155.235,331.75 174.235,356.25 199.5,376C 229.075,397.328 259.742,398.995 291.5,381C 319.527,361.406 340.86,336.24 355.5,305.5C 354.687,312.861 353.687,320.194 352.5,327.5C 335.775,353.717 313.442,373.884 285.5,388C 255.618,399.801 226.951,397.468 199.5,381C 178.768,367.346 161.768,350.18 148.5,329.5C 146.344,320.54 144.344,311.54 142.5,302.5 Z"/></g>
<g><path style="opacity:1" fill="#bf776b" d="M 357.5,320.5 C 357.911,324.463 357.078,328.13 355,331.5C 342.348,350.318 326.848,366.318 308.5,379.5C 307.883,379.611 307.383,379.944 307,380.5C 306.007,393.769 304.174,406.769 301.5,419.5C 301.5,416.5 301.5,413.5 301.5,410.5C 301.5,409.833 301.5,409.167 301.5,408.5C 302.23,400.07 303.23,391.57 304.5,383C 298.19,385.651 291.856,388.651 285.5,392C 262.283,401.503 238.95,401.836 215.5,393C 208.707,389.77 202.04,386.27 195.5,382.5C 195.167,383.333 194.833,384.167 194.5,385C 195.257,390.83 195.924,396.663 196.5,402.5C 196.5,408.167 196.5,413.833 196.5,419.5C 194.891,416.851 194.057,413.851 194,410.5C 193.745,400.424 192.745,390.424 191,380.5C 190.722,379.584 190.222,378.918 189.5,378.5C 171.106,365.604 155.939,349.604 144,330.5C 143.047,327.568 142.547,324.568 142.5,321.5C 144.115,324.45 146.115,327.116 148.5,329.5C 161.768,350.18 178.768,367.346 199.5,381C 226.951,397.468 255.618,399.801 285.5,388C 313.442,373.884 335.775,353.717 352.5,327.5C 353.704,324.862 355.37,322.529 357.5,320.5 Z"/></g>
<g><path style="opacity:1" fill="#d3958b" d="M 233.5,327.5 C 244.49,328.617 255.49,329.784 266.5,331C 272.561,333.243 278.228,336.243 283.5,340C 278.211,338.669 272.878,337.003 267.5,335C 256.878,334.847 246.378,333.68 236,331.5C 233.37,331.464 230.87,331.964 228.5,333C 226.65,335.018 224.65,336.851 222.5,338.5C 223.642,332.689 227.309,329.022 233.5,327.5 Z"/></g>
<g><path style="opacity:1" fill="#0c090c" d="M 371.5,229.5 C 365.331,289.519 358.831,349.519 352,409.5C 348.84,439.423 347.006,469.423 346.5,499.5C 345.5,499.5 344.5,499.5 343.5,499.5C 343.472,472.787 344.472,446.12 346.5,419.5C 339.623,406.443 330.623,394.943 319.5,385C 316.01,382.588 312.343,380.755 308.5,379.5C 326.848,366.318 342.348,350.318 355,331.5C 357.078,328.13 357.911,324.463 357.5,320.5C 362.485,292.319 366.485,263.986 369.5,235.5C 369.595,233.214 370.262,231.214 371.5,229.5 Z"/></g>
<g><path style="opacity:1" fill="#0b080b" d="M 125.5,220.5 C 126.332,222.999 126.665,225.332 126.5,227.5C 128.611,259.503 133.944,290.836 142.5,321.5C 142.547,324.568 143.047,327.568 144,330.5C 155.939,349.604 171.106,365.604 189.5,378.5C 188.833,379.167 188.167,379.833 187.5,380.5C 185.973,380.427 184.973,381.094 184.5,382.5C 182.147,384.101 179.98,386.101 178,388.5C 172.735,397.363 166.735,405.696 160,413.5C 158.991,415.025 158.491,416.692 158.5,418.5C 159.416,445.486 159.75,472.486 159.5,499.5C 158.167,499.5 156.833,499.5 155.5,499.5C 157.227,451.486 154.06,403.819 146,356.5C 138.817,326.4 132.817,296.066 128,265.5C 125.915,250.374 125.082,235.374 125.5,220.5 Z"/></g>
<g><path style="opacity:1" fill="#e0b0a7" d="M 241.5,344.5 C 246.511,344.334 251.511,344.501 256.5,345C 258.886,345.284 259.552,346.284 258.5,348C 252.167,348.667 245.833,348.667 239.5,348C 239.043,347.586 238.709,347.086 238.5,346.5C 239.602,345.824 240.602,345.158 241.5,344.5 Z"/></g>
<g><path style="opacity:1" fill="#b4aca3" d="M 189.5,378.5 C 190.222,378.918 190.722,379.584 191,380.5C 192.745,390.424 193.745,400.424 194,410.5C 194.057,413.851 194.891,416.851 196.5,419.5C 196.5,420.167 196.5,420.833 196.5,421.5C 204.024,445.893 216.191,467.559 233,486.5C 233.791,487.745 234.291,489.078 234.5,490.5C 226.82,482.315 219.654,473.648 213,464.5C 204.921,449.674 197.921,434.341 192,418.5C 191.518,408.155 190.851,397.821 190,387.5C 190.03,384.639 189.197,382.305 187.5,380.5C 188.167,379.833 188.833,379.167 189.5,378.5 Z"/></g>
<g><path style="opacity:1" fill="#dddad3" d="M 187.5,380.5 C 189.197,382.305 190.03,384.639 190,387.5C 190.851,397.821 191.518,408.155 192,418.5C 197.921,434.341 204.921,449.674 213,464.5C 219.654,473.648 226.82,482.315 234.5,490.5C 235.404,491.209 235.737,492.209 235.5,493.5C 233.938,493.267 232.605,492.6 231.5,491.5C 227.935,490.213 224.268,490.213 220.5,491.5C 206.852,468.505 189.852,448.172 169.5,430.5C 169.5,429.833 169.833,429.5 170.5,429.5C 180.645,436.076 190.645,442.91 200.5,450C 201.167,450.667 201.833,450.667 202.5,450C 189.888,433.28 181.222,414.78 176.5,394.5C 178.774,390.228 181.441,386.228 184.5,382.5C 184.973,381.094 185.973,380.427 187.5,380.5 Z"/></g>
<g><path style="opacity:1" fill="#aea79e" d="M 308.5,379.5 C 312.343,380.755 316.01,382.588 319.5,385C 330.623,394.943 339.623,406.443 346.5,419.5C 344.473,418.139 342.806,416.473 341.5,414.5C 335.563,405.565 328.896,397.232 321.5,389.5C 318.203,385.213 313.869,382.546 308.5,381.5C 308.123,395.238 306.956,408.904 305,422.5C 298.249,438.766 291.916,455.099 286,471.5C 285.207,477.341 284.374,483.174 283.5,489C 283.528,490.07 283.861,490.903 284.5,491.5C 284.158,492.338 283.492,492.672 282.5,492.5C 282.347,484.394 283.18,476.394 285,468.5C 288.346,459.789 291.679,451.122 295,442.5C 297.889,435.004 300.056,427.337 301.5,419.5C 304.174,406.769 306.007,393.769 307,380.5C 307.383,379.944 307.883,379.611 308.5,379.5 Z"/></g>
<g><path style="opacity:1" fill="#dddbd4" d="M 321.5,389.5 C 320.883,389.611 320.383,389.944 320,390.5C 317.548,409.018 312.381,426.684 304.5,443.5C 304.667,443.833 304.833,444.167 305,444.5C 313.781,438.367 322.948,433.2 332.5,429C 320.965,438.868 310.465,449.701 301,461.5C 295.434,469.964 290.934,478.964 287.5,488.5C 286.306,489.272 285.306,490.272 284.5,491.5C 283.861,490.903 283.528,490.07 283.5,489C 284.374,483.174 285.207,477.341 286,471.5C 291.916,455.099 298.249,438.766 305,422.5C 306.956,408.904 308.123,395.238 308.5,381.5C 313.869,382.546 318.203,385.213 321.5,389.5 Z"/></g>
<g><path style="opacity:1" fill="#fefefe" d="M 321.5,389.5 C 328.896,397.232 335.563,405.565 341.5,414.5C 339.394,442.789 338.394,471.122 338.5,499.5C 332.5,499.5 326.5,499.5 320.5,499.5C 313.932,494.799 306.932,490.632 299.5,487C 295.351,486.331 291.351,486.831 287.5,488.5C 290.934,478.964 295.434,469.964 301,461.5C 310.465,449.701 320.965,438.868 332.5,429C 322.948,433.2 313.781,438.367 305,444.5C 304.833,444.167 304.667,443.833 304.5,443.5C 312.381,426.684 317.548,409.018 320,390.5C 320.383,389.944 320.883,389.611 321.5,389.5 Z"/></g>
<g><path style="opacity:1" fill="#9a958e" d="M 184.5,382.5 C 181.441,386.228 178.774,390.228 176.5,394.5C 172.557,401.108 168.224,407.441 163.5,413.5C 162.194,415.473 160.527,417.139 158.5,418.5C 158.491,416.692 158.991,415.025 160,413.5C 166.735,405.696 172.735,397.363 178,388.5C 179.98,386.101 182.147,384.101 184.5,382.5 Z"/></g>
<g><path style="opacity:1" fill="#030204" d="M 384.5,499.5 C 383.167,499.5 381.833,499.5 380.5,499.5C 379.289,490.545 378.455,481.545 378,472.5C 375.883,435.259 377.883,398.259 384,361.5C 381.968,383.592 380.801,405.759 380.5,428C 380.977,451.889 382.31,475.722 384.5,499.5 Z"/></g>
<g><path style="opacity:1" fill="#fdfdfd" d="M 176.5,394.5 C 181.222,414.78 189.888,433.28 202.5,450C 201.833,450.667 201.167,450.667 200.5,450C 190.645,442.91 180.645,436.076 170.5,429.5C 168.565,428.19 166.565,426.857 164.5,425.5C 163.509,421.555 163.176,417.555 163.5,413.5C 168.224,407.441 172.557,401.108 176.5,394.5 Z"/></g>
<g><path style="opacity:1" fill="#d79c93" d="M 301.5,408.5 C 301.662,406.473 301.495,404.473 301,402.5C 266.215,402.736 231.382,402.736 196.5,402.5C 195.924,396.663 195.257,390.83 194.5,385C 194.833,384.167 195.167,383.333 195.5,382.5C 202.04,386.27 208.707,389.77 215.5,393C 238.95,401.836 262.283,401.503 285.5,392C 291.856,388.651 298.19,385.651 304.5,383C 303.23,391.57 302.23,400.07 301.5,408.5 Z"/></g>
<g><path style="opacity:1" fill="#1b141c" d="M 102.5,499.5 C 96.5,499.5 90.5,499.5 84.5,499.5C 91.2717,470.261 95.105,440.594 96,410.5C 101.058,439.854 103.224,469.52 102.5,499.5 Z"/></g>
<g><path style="opacity:1" fill="#040304" d="M 127.5,499.5 C 126.167,499.5 124.833,499.5 123.5,499.5C 125.194,472.19 125.694,444.857 125,417.5C 123.739,397.761 122.073,378.094 120,358.5C 128.173,405.183 130.673,452.183 127.5,499.5 Z"/></g>
<g><path style="opacity:1" fill="#f2d3ce" d="M 301.5,410.5 C 301.5,413.5 301.5,416.5 301.5,419.5C 300.056,427.337 297.889,435.004 295,442.5C 291.679,451.122 288.346,459.789 285,468.5C 283.18,476.394 282.347,484.394 282.5,492.5C 266.84,495.82 251.173,496.153 235.5,493.5C 235.737,492.209 235.404,491.209 234.5,490.5C 234.291,489.078 233.791,487.745 233,486.5C 216.191,467.559 204.024,445.893 196.5,421.5C 197.323,418.023 197.823,414.356 198,410.5C 222.865,427.408 249.698,431.241 278.5,422C 286.441,418.696 294.108,414.863 301.5,410.5 Z"/></g>
<g><path style="opacity:1" fill="#e0aca4" d="M 196.5,402.5 C 231.382,402.736 266.215,402.736 301,402.5C 301.495,404.473 301.662,406.473 301.5,408.5C 301.5,409.167 301.5,409.833 301.5,410.5C 294.108,414.863 286.441,418.696 278.5,422C 249.698,431.241 222.865,427.408 198,410.5C 197.823,414.356 197.323,418.023 196.5,421.5C 196.5,420.833 196.5,420.167 196.5,419.5C 196.5,413.833 196.5,408.167 196.5,402.5 Z"/></g>
<g><path style="opacity:1" fill="#e2e2e2" d="M 163.5,413.5 C 163.176,417.555 163.509,421.555 164.5,425.5C 166.565,426.857 168.565,428.19 170.5,429.5C 169.833,429.5 169.5,429.833 169.5,430.5C 167.608,429.298 165.774,427.965 164,426.5C 164.417,450.811 164.584,475.144 164.5,499.5C 162.833,499.5 161.167,499.5 159.5,499.5C 159.75,472.486 159.416,445.486 158.5,418.5C 160.527,417.139 162.194,415.473 163.5,413.5 Z"/></g>
<g><path style="opacity:1" fill="#e7e7e7" d="M 341.5,414.5 C 342.806,416.473 344.473,418.139 346.5,419.5C 344.472,446.12 343.472,472.787 343.5,499.5C 341.833,499.5 340.167,499.5 338.5,499.5C 338.394,471.122 339.394,442.789 341.5,414.5 Z"/></g>
<g><path style="opacity:1" fill="#fefefe" d="M 169.5,430.5 C 189.852,448.172 206.852,468.505 220.5,491.5C 215.632,493.382 211.299,496.048 207.5,499.5C 193.167,499.5 178.833,499.5 164.5,499.5C 164.584,475.144 164.417,450.811 164,426.5C 165.774,427.965 167.608,429.298 169.5,430.5 Z"/></g>
<g><path style="opacity:1" fill="#1b141c" d="M 418.5,499.5 C 414.833,499.5 411.167,499.5 407.5,499.5C 405.691,473.861 404.858,448.195 405,422.5C 406.606,448.694 411.106,474.36 418.5,499.5 Z"/></g>
<g><path style="opacity:1" fill="#1a889d" d="M 69.5,455.5 C 69.8016,458.059 69.4682,460.393 68.5,462.5C 68.5,461.5 68.5,460.5 68.5,459.5C 46.1397,465.534 29.8064,478.867 19.5,499.5C 17.5,499.5 15.5,499.5 13.5,499.5C 15.0068,495.155 17.1735,491.155 20,487.5C 33.1501,471.674 49.6501,461.007 69.5,455.5 Z"/></g>
<g><path style="opacity:1" fill="#1db8d2" d="M 68.5,462.5 C 68.5,463.167 68.5,463.833 68.5,464.5C 50.3295,471.994 35.3295,483.66 23.5,499.5C 22.1667,499.5 20.8333,499.5 19.5,499.5C 29.8064,478.867 46.1397,465.534 68.5,459.5C 68.5,460.5 68.5,461.5 68.5,462.5 Z"/></g>
<g><path style="opacity:1" fill="#1a879c" d="M 431.5,458.5 C 432.968,459.869 434.635,461.036 436.5,462C 457.735,467.415 473.069,479.915 482.5,499.5C 480.833,499.5 479.167,499.5 477.5,499.5C 472.461,490.931 466.127,483.431 458.5,477C 450.172,472.002 441.506,467.835 432.5,464.5C 432.167,462.5 431.833,460.5 431.5,458.5 Z"/></g>
<g><path style="opacity:1" fill="#09a9c4" d="M 68.5,464.5 C 66.6094,476.176 64.6094,487.843 62.5,499.5C 49.5,499.5 36.5,499.5 23.5,499.5C 35.3295,483.66 50.3295,471.994 68.5,464.5 Z"/></g>
<g><path style="opacity:1" fill="#1eb8d2" d="M 432.5,464.5 C 441.506,467.835 450.172,472.002 458.5,477C 466.127,483.431 472.461,490.931 477.5,499.5C 474.167,499.5 470.833,499.5 467.5,499.5C 458.495,487.332 447.162,477.999 433.5,471.5C 432.631,469.283 432.298,466.95 432.5,464.5 Z"/></g>
<g><path style="opacity:1" fill="#08a8c3" d="M 433.5,471.5 C 447.162,477.999 458.495,487.332 467.5,499.5C 457.5,499.5 447.5,499.5 437.5,499.5C 435.95,490.198 434.616,480.865 433.5,471.5 Z"/></g>
<g><path style="opacity:1" fill="#afaba3" d="M 320.5,499.5 C 319.167,499.5 317.833,499.5 316.5,499.5C 310.948,494.644 304.615,490.977 297.5,488.5C 293.196,489.627 288.863,490.627 284.5,491.5C 285.306,490.272 286.306,489.272 287.5,488.5C 291.351,486.831 295.351,486.331 299.5,487C 306.932,490.632 313.932,494.799 320.5,499.5 Z"/></g>
<g><path style="opacity:1" fill="#b0aca3" d="M 231.5,491.5 C 229.265,491.205 227.265,491.539 225.5,492.5C 219.967,493.266 215.301,495.6 211.5,499.5C 210.167,499.5 208.833,499.5 207.5,499.5C 211.299,496.048 215.632,493.382 220.5,491.5C 224.268,490.213 227.935,490.213 231.5,491.5 Z"/></g>
<g><path style="opacity:1" fill="#0ea5bf" d="M 297.5,488.5 C 304.615,490.977 310.948,494.644 316.5,499.5C 281.5,499.5 246.5,499.5 211.5,499.5C 215.301,495.6 219.967,493.266 225.5,492.5C 231.228,493.68 236.895,495.18 242.5,497C 258.543,498.733 274.209,497.066 289.5,492C 292.476,491.295 295.142,490.129 297.5,488.5 Z"/></g>
<g><path style="opacity:1" fill="#2c8da0" d="M 297.5,488.5 C 295.142,490.129 292.476,491.295 289.5,492C 274.209,497.066 258.543,498.733 242.5,497C 236.895,495.18 231.228,493.68 225.5,492.5C 227.265,491.539 229.265,491.205 231.5,491.5C 232.605,492.6 233.938,493.267 235.5,493.5C 251.173,496.153 266.84,495.82 282.5,492.5C 283.492,492.672 284.158,492.338 284.5,491.5C 288.863,490.627 293.196,489.627 297.5,488.5 Z"/></g>
</svg>
