<?xml version="1.0" encoding="UTF-8"?>
<!DOCTYPE svg PUBLIC "-//W3C//DTD SVG 1.1//EN" "http://www.w3.org/Graphics/SVG/1.1/DTD/svg11.dtd">
<svg xmlns="http://www.w3.org/2000/svg" version="1.1" width="500px" height="500px" style="shape-rendering:geometricPrecision; text-rendering:geometricPrecision; image-rendering:optimizeQuality; fill-rule:evenodd; clip-rule:evenodd" xmlns:xlink="http://www.w3.org/1999/xlink">
<g><path style="opacity:1" fill="#ebeff0" d="M -0.5,-0.5 C 62.8333,-0.5 126.167,-0.5 189.5,-0.5C 156.143,14.6818 130.143,38.1818 111.5,70C 77.0296,132.913 63.1962,200.413 70,272.5C 71.7317,306.981 72.8984,341.481 73.5,376C 73.1954,402.564 71.862,429.064 69.5,455.5C 49.6501,461.007 33.1501,471.674 20,487.5C 17.1735,491.155 15.0068,495.155 13.5,499.5C 8.83333,499.5 4.16667,499.5 -0.5,499.5C -0.5,332.833 -0.5,166.167 -0.5,-0.5 Z"/></g>
<g><path style="opacity:1" fill="#29222a" d="M 195.5,-0.5 C 231.5,-0.5 267.5,-0.5 303.5,-0.5C 330.43,10.9117 352.93,28.245 371,51.5C 404.706,98.9466 422.706,151.947 425,210.5C 425.667,230.167 425.667,249.833 425,269.5C 421.863,318.809 421.197,368.142 423,417.5C 424.556,445.169 428.39,472.502 434.5,499.5C 429.167,499.5 423.833,499.5 418.5,499.5C 411.106,474.36 406.606,448.694 405,422.5C 404.858,448.195 405.691,473.861 407.5,499.5C 404.167,499.5 400.833,499.5 397.5,499.5C 385.757,463.077 381.59,425.743 385,387.5C 389.681,342.9 396.181,298.566 404.5,254.5C 404.154,253.304 403.654,253.304 403,254.5C 387.317,318.974 374.317,381.974 364,443.5C 361.89,425.461 362.224,407.461 365,389.5C 373.701,343.998 381.367,298.332 388,252.5C 391.82,218.736 391.153,185.07 386,151.5C 380.678,122.544 369.178,96.5438 351.5,73.5C 345.135,67.4654 339.469,60.7988 334.5,53.5C 328.681,48.1816 323.015,42.6816 317.5,37C 316.833,36.3333 316.167,36.3333 315.5,37C 324.673,45.9071 333.006,55.4071 340.5,65.5C 361.742,100.217 375.075,137.884 380.5,178.5C 370.938,175.988 361.271,173.988 351.5,172.5C 346.198,146.43 337.031,121.763 324,98.5C 327.069,112.501 330.402,126.501 334,140.5C 336.014,150.767 337.514,161.1 338.5,171.5C 333.187,170.902 327.854,170.569 322.5,170.5C 320.554,145.601 315.72,121.268 308,97.5C 309.714,114.911 310.88,132.244 311.5,149.5C 311.347,155.845 311.014,162.178 310.5,168.5C 308.886,170.075 306.886,170.741 304.5,170.5C 301.853,137.395 293.019,106.062 278,76.5C 281.496,94.805 284.329,113.138 286.5,131.5C 287.583,145.494 288.583,159.494 289.5,173.5C 278.122,175.024 268.122,179.524 259.5,187C 257.203,187.018 254.869,186.851 252.5,186.5C 248.776,156.916 245.942,127.249 244,97.5C 235.742,124.894 231.909,152.894 232.5,181.5C 225.902,178.635 219.235,175.968 212.5,173.5C 211.459,163.179 210.459,152.846 209.5,142.5C 206.769,152.288 205.435,162.288 205.5,172.5C 199.5,171.833 193.5,171.167 187.5,170.5C 188.087,154.49 188.921,138.49 190,122.5C 192.631,115.308 194.631,107.974 196,100.5C 184.657,115.881 178.323,133.214 177,152.5C 176.501,158.491 176.334,164.491 176.5,170.5C 168.836,170.889 161.17,171.222 153.5,171.5C 154.399,144.46 161.566,119.46 175,96.5C 160.086,110.997 151.586,128.664 149.5,149.5C 147.041,157.545 144.374,165.545 141.5,173.5C 136.111,174.245 130.778,175.245 125.5,176.5C 129.108,162.368 133.774,148.701 139.5,135.5C 154.111,101.784 174.111,71.6172 199.5,45C 194.886,46.7513 190.886,49.5846 187.5,53.5C 185.091,54.7007 183.091,56.3674 181.5,58.5C 144.119,90.5715 121.786,131.238 114.5,180.5C 112.448,188.407 111.781,196.407 112.5,204.5C 117.588,250.201 123.088,295.867 129,341.5C 135.174,392.108 135.841,442.774 131,493.5C 132.988,449.991 130.988,406.657 125,363.5C 121.649,339.391 117.649,315.391 113,291.5C 114.33,310.137 115.663,328.804 117,347.5C 119.718,398.692 115.884,449.358 105.5,499.5C 104.5,499.5 103.5,499.5 102.5,499.5C 103.224,469.52 101.058,439.854 96,410.5C 95.105,440.594 91.2717,470.261 84.5,499.5C 78.1667,499.5 71.8333,499.5 65.5,499.5C 76.2985,451.128 80.6318,402.128 78.5,352.5C 77.4386,302.836 76.9386,253.169 77,203.5C 80.258,152.737 94.9247,105.737 121,62.5C 139.318,33.6734 164.151,12.6734 195.5,-0.5 Z"/></g>
<g><path style="opacity:1" fill="#ebeff0" d="M 307.5,-0.5 C 371.5,-0.5 435.5,-0.5 499.5,-0.5C 499.5,166.167 499.5,332.833 499.5,499.5C 493.833,499.5 488.167,499.5 482.5,499.5C 473.069,479.915 457.735,467.415 436.5,462C 434.635,461.036 432.968,459.869 431.5,458.5C 428.84,433.912 427.507,409.246 427.5,384.5C 428.013,350.145 429.18,315.812 431,281.5C 439.394,207.138 425.394,137.471 389,72.5C 369.528,39.525 342.361,15.1917 307.5,-0.5 Z"/></g>
<g><path style="opacity:1" fill="#050606" d="M 189.5,-0.5 C 191.5,-0.5 193.5,-0.5 195.5,-0.5C 164.151,12.6734 139.318,33.6734 121,62.5C 94.9247,105.737 80.258,152.737 77,203.5C 76.9386,253.169 77.4386,302.836 78.5,352.5C 80.6318,402.128 76.2985,451.128 65.5,499.5C 64.5,499.5 63.5,499.5 62.5,499.5C 64.6094,487.843 66.6094,476.176 68.5,464.5C 68.5,463.833 68.5,463.167 68.5,462.5C 69.4682,460.393 69.8016,458.059 69.5,455.5C 71.862,429.064 73.1954,402.564 73.5,376C 72.8984,341.481 71.7317,306.981 70,272.5C 63.1962,200.413 77.0296,132.913 111.5,70C 130.143,38.1818 156.143,14.6818 189.5,-0.5 Z"/></g>
<g><path style="opacity:1" fill="#060606" d="M 303.5,-0.5 C 304.833,-0.5 306.167,-0.5 307.5,-0.5C 342.361,15.1917 369.528,39.525 389,72.5C 425.394,137.471 439.394,207.138 431,281.5C 429.18,315.812 428.013,350.145 427.5,384.5C 427.507,409.246 428.84,433.912 431.5,458.5C 431.833,460.5 432.167,462.5 432.5,464.5C 432.298,466.95 432.631,469.283 433.5,471.5C 434.616,480.865 435.95,490.198 437.5,499.5C 436.5,499.5 435.5,499.5 434.5,499.5C 428.39,472.502 424.556,445.169 423,417.5C 421.197,368.142 421.863,318.809 425,269.5C 425.667,249.833 425.667,230.167 425,210.5C 422.706,151.947 404.706,98.9466 371,51.5C 352.93,28.245 330.43,10.9117 303.5,-0.5 Z"/></g>
<g><path style="opacity:1" fill="#373237" d="M 307.5,13.5 C 308.251,12.4265 309.251,12.2599 310.5,13C 348.714,29.8703 374.214,58.0369 387,97.5C 374.402,70.2439 356.569,47.0772 333.5,28C 325.263,22.3819 316.596,17.5485 307.5,13.5 Z"/></g>
<g><path style="opacity:1" fill="#373137" d="M 176.5,20.5 C 177.239,20.369 177.906,20.5357 178.5,21C 141.136,52.5625 114.303,91.3959 98,137.5C 96.4104,144.115 95.077,150.782 94,157.5C 94.6161,143.363 97.6161,129.696 103,116.5C 118.711,77.6407 143.211,45.6407 176.5,20.5 Z"/></g>
<g><path style="opacity:1" fill="#1c151d" d="M 139.5,135.5 C 145.96,113.247 156.126,92.9141 170,74.5C 176.167,67.6667 182.333,60.8333 188.5,54C 188.272,53.6012 187.938,53.4346 187.5,53.5C 190.886,49.5846 194.886,46.7513 199.5,45C 174.111,71.6172 154.111,101.784 139.5,135.5 Z"/></g>
<g><path style="opacity:1" fill="#383238" d="M 300.5,37.5 C 300.897,36.475 301.563,36.3083 302.5,37C 332.793,66.7494 351.626,102.583 359,144.5C 349.858,111.358 335.191,81.0249 315,53.5C 310.301,47.9714 305.468,42.638 300.5,37.5 Z"/></g>
<g><path style="opacity:1" fill="#1b141c" d="M 181.5,58.5 C 171.438,68.7312 162.271,79.7312 154,91.5C 138.367,117.901 128.2,146.234 123.5,176.5C 120.572,177.817 117.572,179.15 114.5,180.5C 121.786,131.238 144.119,90.5715 181.5,58.5 Z"/></g>
<g><path style="opacity:1" fill="#030204" d="M 351.5,73.5 C 370.563,106.444 381.229,141.777 383.5,179.5C 378.329,144.821 367.829,111.821 352,80.5C 348.631,75.071 344.798,70.071 340.5,65.5C 333.006,55.4071 324.673,45.9071 315.5,37C 316.167,36.3333 316.833,36.3333 317.5,37C 323.015,42.6816 328.681,48.1816 334.5,53.5C 339.469,60.7988 345.135,67.4654 351.5,73.5 Z"/></g>
<g><path style="opacity:1" fill="#1a141b" d="M 340.5,65.5 C 344.798,70.071 348.631,75.071 352,80.5C 367.829,111.821 378.329,144.821 383.5,179.5C 382.609,178.89 381.609,178.557 380.5,178.5C 375.075,137.884 361.742,100.217 340.5,65.5 Z"/></g>
<g><path style="opacity:1" fill="#1b141c" d="M 304.5,170.5 C 303.609,171.11 302.609,171.443 301.5,171.5C 299.806,145.274 294.306,119.941 285,95.5C 285.387,107.484 285.887,119.484 286.5,131.5C 284.329,113.138 281.496,94.805 278,76.5C 293.019,106.062 301.853,137.395 304.5,170.5 Z"/></g>
<g><path style="opacity:1" fill="#040305" d="M 187.5,53.5 C 187.938,53.4346 188.272,53.6012 188.5,54C 182.333,60.8333 176.167,67.6667 170,74.5C 156.126,92.9141 145.96,113.247 139.5,135.5C 133.774,148.701 129.108,162.368 125.5,176.5C 124.833,176.5 124.167,176.5 123.5,176.5C 128.2,146.234 138.367,117.901 154,91.5C 162.271,79.7312 171.438,68.7312 181.5,58.5C 183.091,56.3674 185.091,54.7007 187.5,53.5 Z"/></g>
<g><path style="opacity:1" fill="#1b141c" d="M 351.5,73.5 C 369.178,96.5438 380.678,122.544 386,151.5C 391.153,185.07 391.82,218.736 388,252.5C 381.367,298.332 373.701,343.998 365,389.5C 362.224,407.461 361.89,425.461 364,443.5C 374.317,381.974 387.317,318.974 403,254.5C 403.654,253.304 404.154,253.304 404.5,254.5C 396.181,298.566 389.681,342.9 385,387.5C 381.59,425.743 385.757,463.077 397.5,499.5C 393.167,499.5 388.833,499.5 384.5,499.5C 382.31,475.722 380.977,451.889 380.5,428C 380.801,405.759 381.968,383.592 384,361.5C 377.883,398.259 375.883,435.259 378,472.5C 378.455,481.545 379.289,490.545 380.5,499.5C 369.167,499.5 357.833,499.5 346.5,499.5C 347.006,469.423 348.84,439.423 352,409.5C 358.831,349.519 365.331,289.519 371.5,229.5C 372.227,222.364 374.394,215.697 378,209.5C 380.498,207.583 383.165,205.916 386,204.5C 386.667,197.5 386.667,190.5 386,183.5C 385.52,181.867 384.687,180.534 383.5,179.5C 381.229,141.777 370.563,106.444 351.5,73.5 Z"/></g>
<g><path style="opacity:1" fill="#171117" d="M 322.5,170.5 C 320.833,170.5 319.167,170.5 317.5,170.5C 317.576,155.592 315.743,140.925 312,126.5C 311.5,134.159 311.334,141.826 311.5,149.5C 310.88,132.244 309.714,114.911 308,97.5C 315.72,121.268 320.554,145.601 322.5,170.5 Z"/></g>
<g><path style="opacity:1" fill="#181218" d="M 351.5,172.5 C 349.114,172.741 347.114,172.075 345.5,170.5C 344.462,163.016 342.796,155.683 340.5,148.5C 339.635,145.029 338.468,141.696 337,138.5C 337.058,142.396 337.892,146.062 339.5,149.5C 340.19,155.81 340.524,162.143 340.5,168.5C 340.715,170.179 340.048,171.179 338.5,171.5C 337.514,161.1 336.014,150.767 334,140.5C 330.402,126.501 327.069,112.501 324,98.5C 337.031,121.763 346.198,146.43 351.5,172.5 Z"/></g>
<g><path style="opacity:1" fill="#0a0809" d="M 252.5,186.5 C 251.833,185.167 251.167,183.833 250.5,182.5C 246.362,160.34 243.529,138.006 242,115.5C 238.424,134.031 235.924,152.697 234.5,171.5C 233.902,175.42 233.235,178.753 232.5,181.5C 231.909,152.894 235.742,124.894 244,97.5C 245.942,127.249 248.776,156.916 252.5,186.5 Z"/></g>
<g><path style="opacity:1" fill="#0d0b0c" d="M 301.5,171.5 C 300.833,171.5 300.167,171.5 299.5,171.5C 296.972,152 293.472,132.666 289,113.5C 290.647,132.781 291.813,152.115 292.5,171.5C 291.71,172.401 290.71,173.068 289.5,173.5C 288.583,159.494 287.583,145.494 286.5,131.5C 285.887,119.484 285.387,107.484 285,95.5C 294.306,119.941 299.806,145.274 301.5,171.5 Z"/></g>
<g><path style="opacity:1" fill="#cdb5b1" d="M 299.5,171.5 C 297.167,171.5 294.833,171.5 292.5,171.5C 291.813,152.115 290.647,132.781 289,113.5C 293.472,132.666 296.972,152 299.5,171.5 Z"/></g>
<g><path style="opacity:1" fill="#1c151c" d="M 153.5,171.5 C 151.958,172.301 150.292,172.634 148.5,172.5C 150.983,151.731 156.65,131.897 165.5,113C 164.668,112.312 164.002,112.479 163.5,113.5C 157.819,125.228 153.152,137.228 149.5,149.5C 151.586,128.664 160.086,110.997 175,96.5C 161.566,119.46 154.399,144.46 153.5,171.5 Z"/></g>
<g><path style="opacity:1" fill="#dcc5c1" d="M 250.5,182.5 C 250.5,183.5 250.5,184.5 250.5,185.5C 237.507,189.847 232.173,185.18 234.5,171.5C 235.924,152.697 238.424,134.031 242,115.5C 243.529,138.006 246.362,160.34 250.5,182.5 Z"/></g>
<g><path style="opacity:1" fill="#120f12" d="M 187.5,170.5 C 186.833,170.5 186.167,170.5 185.5,170.5C 185.333,159.828 185.5,149.161 186,138.5C 187.143,132.176 187.81,125.842 188,119.5C 182.367,134.629 179.534,150.295 179.5,166.5C 178.978,168.219 177.978,169.552 176.5,170.5C 176.334,164.491 176.501,158.491 177,152.5C 178.323,133.214 184.657,115.881 196,100.5C 194.631,107.974 192.631,115.308 190,122.5C 188.921,138.49 188.087,154.49 187.5,170.5 Z"/></g>
<g><path style="opacity:1" fill="#cfb5b1" d="M 185.5,170.5 C 183.5,170.5 181.5,170.5 179.5,170.5C 179.5,169.167 179.5,167.833 179.5,166.5C 179.534,150.295 182.367,134.629 188,119.5C 187.81,125.842 187.143,132.176 186,138.5C 185.5,149.161 185.333,159.828 185.5,170.5 Z"/></g>
<g><path style="opacity:1" fill="#373137" d="M 121.5,110.5 C 122.043,110.56 122.376,110.893 122.5,111.5C 107.745,144.522 99.245,179.189 97,215.5C 95.5994,232.166 95.2661,248.832 96,265.5C 88.9399,211.195 97.4399,159.528 121.5,110.5 Z"/></g>
<g><path style="opacity:1" fill="#d0b6b2" d="M 317.5,170.5 C 314.612,171.01 312.279,170.344 310.5,168.5C 311.014,162.178 311.347,155.845 311.5,149.5C 311.334,141.826 311.5,134.159 312,126.5C 315.743,140.925 317.576,155.592 317.5,170.5 Z"/></g>
<g><path style="opacity:1" fill="#070508" d="M 148.5,172.5 C 147.833,172.5 147.167,172.5 146.5,172.5C 147.221,169.183 147.388,165.849 147,162.5C 145.326,166.021 144.16,169.687 143.5,173.5C 142.833,173.5 142.167,173.5 141.5,173.5C 144.374,165.545 147.041,157.545 149.5,149.5C 153.152,137.228 157.819,125.228 163.5,113.5C 164.002,112.479 164.668,112.312 165.5,113C 156.65,131.897 150.983,151.731 148.5,172.5 Z"/></g>
<g><path style="opacity:1" fill="#080608" d="M 212.5,173.5 C 210.744,172.448 210.077,170.781 210.5,168.5C 209.503,152.531 208.503,152.531 207.5,168.5C 207.843,170.483 207.176,171.817 205.5,172.5C 205.435,162.288 206.769,152.288 209.5,142.5C 210.459,152.846 211.459,163.179 212.5,173.5 Z"/></g>
<g><path style="opacity:1" fill="#877673" d="M 340.5,148.5 C 339.833,148.5 339.5,148.833 339.5,149.5C 337.892,146.062 337.058,142.396 337,138.5C 338.468,141.696 339.635,145.029 340.5,148.5 Z"/></g>
<g><path style="opacity:1" fill="#d0b6b2" d="M 340.5,148.5 C 342.796,155.683 344.462,163.016 345.5,170.5C 344.432,171.434 343.099,171.768 341.5,171.5C 341.737,170.209 341.404,169.209 340.5,168.5C 340.524,162.143 340.19,155.81 339.5,149.5C 339.5,148.833 339.833,148.5 340.5,148.5 Z"/></g>
<g><path style="opacity:1" fill="#373237" d="M 392.5,132.5 C 403.467,158.648 407.634,185.981 405,214.5C 404.078,226.876 402.745,239.21 401,251.5C 402.295,228.198 402.629,204.865 402,181.5C 400.894,164.746 397.727,148.412 392.5,132.5 Z"/></g>
<g><path style="opacity:1" fill="#aa9693" d="M 210.5,168.5 C 209.5,168.5 208.5,168.5 207.5,168.5C 208.503,152.531 209.503,152.531 210.5,168.5 Z"/></g>
<g><path style="opacity:1" fill="#a7908d" d="M 146.5,172.5 C 145.791,173.404 144.791,173.737 143.5,173.5C 144.16,169.687 145.326,166.021 147,162.5C 147.388,165.849 147.221,169.183 146.5,172.5 Z"/></g>
<g><path style="opacity:1" fill="#2a1611" d="M 179.5,166.5 C 179.5,167.833 179.5,169.167 179.5,170.5C 181.5,170.5 183.5,170.5 185.5,170.5C 186.167,170.5 186.833,170.5 187.5,170.5C 193.5,171.167 199.5,171.833 205.5,172.5C 207.176,171.817 207.843,170.483 207.5,168.5C 208.5,168.5 209.5,168.5 210.5,168.5C 210.077,170.781 210.744,172.448 212.5,173.5C 219.235,175.968 225.902,178.635 232.5,181.5C 233.235,178.753 233.902,175.42 234.5,171.5C 232.173,185.18 237.507,189.847 250.5,185.5C 250.5,184.5 250.5,183.5 250.5,182.5C 251.167,183.833 251.833,185.167 252.5,186.5C 254.869,186.851 257.203,187.018 259.5,187C 268.122,179.524 278.122,175.024 289.5,173.5C 290.71,173.068 291.71,172.401 292.5,171.5C 294.833,171.5 297.167,171.5 299.5,171.5C 300.167,171.5 300.833,171.5 301.5,171.5C 302.609,171.443 303.609,171.11 304.5,170.5C 306.886,170.741 308.886,170.075 310.5,168.5C 312.279,170.344 314.612,171.01 317.5,170.5C 319.167,170.5 320.833,170.5 322.5,170.5C 327.854,170.569 333.187,170.902 338.5,171.5C 340.048,171.179 340.715,170.179 340.5,168.5C 341.404,169.209 341.737,170.209 341.5,171.5C 343.099,171.768 344.432,171.434 345.5,170.5C 347.114,172.075 349.114,172.741 351.5,172.5C 361.271,173.988 370.938,175.988 380.5,178.5C 381.609,178.557 382.609,178.89 383.5,179.5C 384.687,180.534 385.52,181.867 386,183.5C 386.667,190.5 386.667,197.5 386,204.5C 383.165,205.916 380.498,207.583 378,209.5C 374.394,215.697 372.227,222.364 371.5,229.5C 370.262,231.214 369.595,233.214 369.5,235.5C 366.597,239.63 363.93,243.963 361.5,248.5C 355.057,256.395 346.724,261.228 336.5,263C 301.678,270.675 277.511,258.175 264,225.5C 261.68,217.915 259.68,210.248 258,202.5C 255.959,200.026 253.292,199.026 250,199.5C 246.479,199.083 243.479,200.083 241,202.5C 238.206,222.586 229.706,239.753 215.5,254C 209.186,259.489 201.853,262.822 193.5,264C 174.988,267.379 157.988,264.046 142.5,254C 138.877,250.551 135.877,246.717 133.5,242.5C 131.344,237.342 129.011,232.342 126.5,227.5C 126.665,225.332 126.332,222.999 125.5,220.5C 124.448,212.346 120.114,207.013 112.5,204.5C 111.781,196.407 112.448,188.407 114.5,180.5C 117.572,179.15 120.572,177.817 123.5,176.5C 124.167,176.5 124.833,176.5 125.5,176.5C 130.778,175.245 136.111,174.245 141.5,173.5C 142.167,173.5 142.833,173.5 143.5,173.5C 144.791,173.737 145.791,173.404 146.5,172.5C 147.167,172.5 147.833,172.5 148.5,172.5C 150.292,172.634 151.958,172.301 153.5,171.5C 161.17,171.222 168.836,170.889 176.5,170.5C 177.978,169.552 178.978,168.219 179.5,166.5 Z"/></g>
<g><path style="opacity:1" fill="#7b767a" d="M 361.5,186.5 C 357.806,188.412 353.806,188.912 349.5,188C 348.62,186.644 348.286,185.144 348.5,183.5C 346.5,183.5 344.5,183.5 342.5,183.5C 342.5,185.167 342.5,186.833 342.5,188.5C 334.167,188.5 325.833,188.5 317.5,188.5C 317.5,186.167 317.5,183.833 317.5,181.5C 314.518,181.037 311.518,180.704 308.5,180.5C 308.5,183.833 308.5,187.167 308.5,190.5C 306.167,190.5 303.833,190.5 301.5,190.5C 301.167,186.5 300.833,182.5 300.5,178.5C 297.833,178.5 295.167,178.5 292.5,178.5C 312.15,174.157 331.817,174.657 351.5,180C 355.674,180.917 359.007,183.084 361.5,186.5 Z"/></g>
<g><path style="opacity:1" fill="#7a767a" d="M 292.5,178.5 C 292.5,182.5 292.5,186.5 292.5,190.5C 285.131,191.24 277.798,192.24 270.5,193.5C 270.768,191.901 270.434,190.568 269.5,189.5C 276.211,183.979 283.877,180.312 292.5,178.5 Z"/></g>
<g><path style="opacity:1" fill="#777376" d="M 211.5,179.5 C 217.228,180.863 222.228,183.53 226.5,187.5C 222.119,187.372 217.785,187.705 213.5,188.5C 213.084,185.417 212.417,182.417 211.5,179.5 Z"/></g>
<g><path style="opacity:1" fill="#797579" d="M 178.5,175.5 C 178.369,176.376 178.702,177.043 179.5,177.5C 181.336,176.972 183.003,176.306 184.5,175.5C 192.067,175.755 199.4,176.755 206.5,178.5C 206.5,181.167 206.5,183.833 206.5,186.5C 199.556,185.349 192.556,184.682 185.5,184.5C 185.5,183.5 185.5,182.5 185.5,181.5C 182.833,181.833 180.167,182.167 177.5,182.5C 177.67,183.822 177.337,184.989 176.5,186C 174.419,186.869 172.253,187.369 170,187.5C 160.933,185.877 151.766,185.043 142.5,185C 145.576,184.654 148.576,183.988 151.5,183C 149.08,182.71 146.746,182.21 144.5,181.5C 155.388,177.592 166.721,175.592 178.5,175.5 Z"/></g>
<g><path style="opacity:1" fill="#e2d2d0" d="M 178.5,175.5 C 180.5,175.5 182.5,175.5 184.5,175.5C 183.003,176.306 181.336,176.972 179.5,177.5C 178.702,177.043 178.369,176.376 178.5,175.5 Z"/></g>
<g><path style="opacity:1" fill="#6f6c6d" d="M 140.5,183.5 C 140.536,186.893 139.203,188.227 136.5,187.5C 137.5,185.833 138.833,184.5 140.5,183.5 Z"/></g>
<g><path style="opacity:1" fill="#f0d9d4" d="M 206.5,178.5 C 208.216,178.629 209.883,178.962 211.5,179.5C 212.417,182.417 213.084,185.417 213.5,188.5C 217.785,187.705 222.119,187.372 226.5,187.5C 232.248,191.834 234.914,197.667 234.5,205C 232.801,225.401 223.801,241.734 207.5,254C 199.152,258.128 190.318,259.962 181,259.5C 157.802,262.414 142.136,253.081 134,231.5C 129.784,220.885 128.45,209.885 130,198.5C 131.172,194.142 133.339,190.475 136.5,187.5C 139.203,188.227 140.536,186.893 140.5,183.5C 141.833,182.833 143.167,182.167 144.5,181.5C 146.746,182.21 149.08,182.71 151.5,183C 148.576,183.988 145.576,184.654 142.5,185C 151.766,185.043 160.933,185.877 170,187.5C 172.253,187.369 174.419,186.869 176.5,186C 177.337,184.989 177.67,183.822 177.5,182.5C 180.167,182.167 182.833,181.833 185.5,181.5C 185.5,182.5 185.5,183.5 185.5,184.5C 192.556,184.682 199.556,185.349 206.5,186.5C 206.5,183.833 206.5,181.167 206.5,178.5 Z"/></g>
<g><path style="opacity:1" fill="#bcbcbd" d="M 201.5,201.5 C 208.315,201.576 213.482,204.91 217,211.5C 217.399,211.272 217.565,210.938 217.5,210.5C 218.434,211.568 218.768,212.901 218.5,214.5C 215.121,214.147 212.121,212.813 209.5,210.5C 208.893,210.624 208.56,210.957 208.5,211.5C 207.833,210.833 207.167,210.167 206.5,209.5C 205.831,206.151 204.164,203.484 201.5,201.5 Z"/></g>
<g><path style="opacity:1" fill="#5d678d" d="M 183.5,199.5 C 188.844,199.334 194.177,199.501 199.5,200C 200.044,200.717 200.711,201.217 201.5,201.5C 204.164,203.484 205.831,206.151 206.5,209.5C 205.5,208.833 204.5,208.167 203.5,207.5C 203.5,206.833 203.167,206.5 202.5,206.5C 202.489,204.983 201.823,203.816 200.5,203C 198.167,202.333 195.833,202.333 193.5,203C 192.944,203.383 192.611,203.883 192.5,204.5C 185.825,204.334 179.158,204.5 172.5,205C 170.094,206.622 168.261,208.789 167,211.5C 166.601,211.272 166.435,210.938 166.5,210.5C 167.11,209.609 167.443,208.609 167.5,207.5C 168.89,206.101 169.89,204.434 170.5,202.5C 174.93,201.401 179.263,200.401 183.5,199.5 Z"/></g>
<g><path style="opacity:1" fill="#3b3a3a" d="M 157.5,199.5 C 160.5,199.5 163.5,199.5 166.5,199.5C 172.167,199.5 177.833,199.5 183.5,199.5C 179.263,200.401 174.93,201.401 170.5,202.5C 164.919,203.876 159.253,205.043 153.5,206C 154.128,208.939 154.795,211.772 155.5,214.5C 156.983,221.134 159.817,227.134 164,232.5C 166.718,234.794 169.885,235.794 173.5,235.5C 173.833,235.5 174.167,235.5 174.5,235.5C 177.641,236.321 180.975,236.821 184.5,237C 183.619,237.708 182.953,238.542 182.5,239.5C 179.492,240.42 176.659,241.754 174,243.5C 173.493,242.004 173.993,240.837 175.5,240C 171.793,238.598 168.126,237.098 164.5,235.5C 160.273,237.286 159.273,236.619 161.5,233.5C 154.698,225.433 151.032,216.1 150.5,205.5C 147.892,205.6 145.558,204.933 143.5,203.5C 143.611,202.883 143.944,202.383 144.5,202C 148.834,201.1 153.168,200.266 157.5,199.5 Z"/></g>
<g><path style="opacity:1" fill="#676566" d="M 217.5,210.5 C 217.565,210.938 217.399,211.272 217,211.5C 213.482,204.91 208.315,201.576 201.5,201.5C 200.711,201.217 200.044,200.717 199.5,200C 194.177,199.501 188.844,199.334 183.5,199.5C 177.833,199.5 172.167,199.5 166.5,199.5C 177.883,196.736 189.55,195.903 201.5,197C 208.251,199.413 214.251,203.08 219.5,208C 218.244,208.417 217.577,209.25 217.5,210.5 Z"/></g>
<g><path style="opacity:1" fill="#797676" d="M 157.5,199.5 C 153.168,200.266 148.834,201.1 144.5,202C 143.944,202.383 143.611,202.883 143.5,203.5C 141.986,202.32 140.319,201.32 138.5,200.5C 141.518,200.047 144.518,199.713 147.5,199.5C 145.954,198.316 144.287,197.316 142.5,196.5C 142.833,196.167 143.167,195.833 143.5,195.5C 148.227,197.082 152.894,198.415 157.5,199.5 Z"/></g>
<g><path style="opacity:1" fill="#aaacb7" d="M 202.5,206.5 C 199.14,206.384 195.807,206.051 192.5,205.5C 192.5,205.167 192.5,204.833 192.5,204.5C 192.611,203.883 192.944,203.383 193.5,203C 195.833,202.333 198.167,202.333 200.5,203C 201.823,203.816 202.489,204.983 202.5,206.5 Z"/></g>
<g><path style="opacity:1" fill="#1b141c" d="M 112.5,204.5 C 120.114,207.013 124.448,212.346 125.5,220.5C 125.082,235.374 125.915,250.374 128,265.5C 132.817,296.066 138.817,326.4 146,356.5C 154.06,403.819 157.227,451.486 155.5,499.5C 146.167,499.5 136.833,499.5 127.5,499.5C 130.673,452.183 128.173,405.183 120,358.5C 122.073,378.094 123.739,397.761 125,417.5C 125.694,444.857 125.194,472.19 123.5,499.5C 117.5,499.5 111.5,499.5 105.5,499.5C 115.884,449.358 119.718,398.692 117,347.5C 115.663,328.804 114.33,310.137 113,291.5C 117.649,315.391 121.649,339.391 125,363.5C 130.988,406.657 132.988,449.991 131,493.5C 135.841,442.774 135.174,392.108 129,341.5C 123.088,295.867 117.588,250.201 112.5,204.5 Z"/></g>
<g><path style="opacity:1" fill="#bbbdbf" d="M 170.5,202.5 C 169.89,204.434 168.89,206.101 167.5,207.5C 165.712,206.378 163.712,206.211 161.5,207C 159.759,208.62 157.925,210.12 156,211.5C 155.517,212.448 155.351,213.448 155.5,214.5C 154.795,211.772 154.128,208.939 153.5,206C 159.253,205.043 164.919,203.876 170.5,202.5 Z"/></g>
<g><path style="opacity:1" fill="#efd8d4" d="M 292.5,178.5 C 295.167,178.5 297.833,178.5 300.5,178.5C 300.833,182.5 301.167,186.5 301.5,190.5C 303.833,190.5 306.167,190.5 308.5,190.5C 308.5,187.167 308.5,183.833 308.5,180.5C 311.518,180.704 314.518,181.037 317.5,181.5C 317.5,183.833 317.5,186.167 317.5,188.5C 325.833,188.5 334.167,188.5 342.5,188.5C 342.5,186.833 342.5,185.167 342.5,183.5C 344.5,183.5 346.5,183.5 348.5,183.5C 348.286,185.144 348.62,186.644 349.5,188C 353.806,188.912 357.806,188.412 361.5,186.5C 364.231,188.071 366.065,190.405 367,193.5C 371.641,209.961 369.641,225.628 361,240.5C 354.121,251.866 343.954,258.032 330.5,259C 319.342,260.115 308.342,259.448 297.5,257C 284.193,249.585 274.693,238.752 269,224.5C 265.25,215.841 263.917,206.841 265,197.5C 265.895,194.452 267.395,191.785 269.5,189.5C 270.434,190.568 270.768,191.901 270.5,193.5C 277.798,192.24 285.131,191.24 292.5,190.5C 292.5,186.5 292.5,182.5 292.5,178.5 Z"/></g>
<g><path style="opacity:1" fill="#b7b7b9" d="M 297.5,200.5 C 295.467,203.523 293.467,206.523 291.5,209.5C 287.743,211.214 284.077,213.214 280.5,215.5C 280.216,213.585 280.549,211.919 281.5,210.5C 283.963,208.539 286.297,206.372 288.5,204C 291.327,202.336 294.327,201.17 297.5,200.5 Z"/></g>
<g><path style="opacity:1" fill="#3c3c3c" d="M 310.5,199.5 C 316.674,198.45 323.007,198.45 329.5,199.5C 332.167,199.5 334.833,199.5 337.5,199.5C 341.233,200.977 345.233,201.811 349.5,202C 351.066,202.608 352.4,203.442 353.5,204.5C 351.883,205.038 350.216,205.371 348.5,205.5C 347.58,215.928 343.914,225.261 337.5,233.5C 338.347,234.845 339.513,235.845 341,236.5C 341.667,237.167 341.667,237.833 341,238.5C 338.421,236.653 335.588,236.153 332.5,237C 329.5,238 326.5,239 323.5,240C 325.007,240.837 325.507,242.004 325,243.5C 321.452,241.142 317.619,239.475 313.5,238.5C 316.203,236.89 319.203,235.89 322.5,235.5C 323.5,235.5 324.5,235.5 325.5,235.5C 329.587,235.706 333.087,234.373 336,231.5C 339.851,226.798 342.351,221.465 343.5,215.5C 344.479,212.375 344.813,209.042 344.5,205.5C 340.076,205.348 335.743,204.681 331.5,203.5C 324.695,201.808 317.695,200.474 310.5,199.5 Z"/></g>
<g><path style="opacity:1" fill="#5d678d" d="M 310.5,199.5 C 317.695,200.474 324.695,201.808 331.5,203.5C 330.624,203.369 329.957,203.702 329.5,204.5C 330.193,205.518 330.859,206.518 331.5,207.5C 331.5,208.167 331.5,208.833 331.5,209.5C 330.5,208.833 329.5,208.167 328.5,207.5C 326.752,202.818 323.419,201.318 318.5,203C 317.748,203.671 317.414,204.504 317.5,205.5C 309.811,205.099 302.311,206.099 295,208.5C 293.779,209.272 292.779,210.272 292,211.5C 291.601,211.272 291.435,210.938 291.5,210.5C 291.5,210.167 291.5,209.833 291.5,209.5C 293.467,206.523 295.467,203.523 297.5,200.5C 301.768,199.627 306.102,199.294 310.5,199.5 Z"/></g>
<g><path style="opacity:1" fill="#6a6969" d="M 353.5,204.5 C 352.4,203.442 351.066,202.608 349.5,202C 345.233,201.811 341.233,200.977 337.5,199.5C 343.841,199.04 350.008,197.707 356,195.5C 356.5,195.667 357,195.833 357.5,196C 355.004,197.08 352.67,198.414 350.5,200C 354.194,200.278 357.861,200.278 361.5,200C 358.644,201.259 355.977,202.759 353.5,204.5 Z"/></g>
<g><path style="opacity:1" fill="#626162" d="M 329.5,199.5 C 323.007,198.45 316.674,198.45 310.5,199.5C 306.102,199.294 301.768,199.627 297.5,200.5C 294.327,201.17 291.327,202.336 288.5,204C 286.297,206.372 283.963,208.539 281.5,210.5C 281.423,209.25 280.756,208.417 279.5,208C 290.411,197.352 303.411,193.686 318.5,197C 322.43,197.242 326.097,198.075 329.5,199.5 Z"/></g>
<g><path style="opacity:1" fill="#bcbebf" d="M 331.5,203.5 C 335.743,204.681 340.076,205.348 344.5,205.5C 344.813,209.042 344.479,212.375 343.5,215.5C 342.94,212.003 340.94,209.503 337.5,208C 335.527,207.505 333.527,207.338 331.5,207.5C 330.859,206.518 330.193,205.518 329.5,204.5C 329.957,203.702 330.624,203.369 331.5,203.5 Z"/></g>
<g><path style="opacity:1" fill="#6c7aaf" d="M 192.5,204.5 C 192.5,204.833 192.5,205.167 192.5,205.5C 192.517,207.565 192.85,209.565 193.5,211.5C 186.152,207.675 181.152,209.675 178.5,217.5C 174.833,217.5 171.167,217.5 167.5,217.5C 167.027,224.555 169.694,229.889 175.5,233.5C 175.833,234.167 176.167,234.833 176.5,235.5C 175.833,235.5 175.167,235.5 174.5,235.5C 174.167,235.5 173.833,235.5 173.5,235.5C 166.055,228.51 163.722,220.176 166.5,210.5C 166.435,210.938 166.601,211.272 167,211.5C 168.261,208.789 170.094,206.622 172.5,205C 179.158,204.5 185.825,204.334 192.5,204.5 Z"/></g>
<g><path style="opacity:1" fill="#717eb0" d="M 317.5,205.5 C 317.517,207.565 317.85,209.565 318.5,211.5C 313.818,208.693 309.318,209.027 305,212.5C 303.991,214.025 303.491,215.692 303.5,217.5C 299.833,217.5 296.167,217.5 292.5,217.5C 292.211,224.587 294.877,230.253 300.5,234.5C 298.265,234.795 296.265,234.461 294.5,233.5C 295.239,233.631 295.906,233.464 296.5,233C 290.728,226.329 289.061,218.829 291.5,210.5C 291.435,210.938 291.601,211.272 292,211.5C 292.779,210.272 293.779,209.272 295,208.5C 302.311,206.099 309.811,205.099 317.5,205.5 Z"/></g>
<g><path style="opacity:1" fill="#d6d8e4" d="M 328.5,207.5 C 329.498,213.167 327.164,215.501 321.5,214.5C 320.833,213.167 319.833,212.167 318.5,211.5C 317.85,209.565 317.517,207.565 317.5,205.5C 317.414,204.504 317.748,203.671 318.5,203C 323.419,201.318 326.752,202.818 328.5,207.5 Z"/></g>
<g><path style="opacity:1" fill="#d9dbe7" d="M 192.5,205.5 C 195.807,206.051 199.14,206.384 202.5,206.5C 203.167,206.5 203.5,206.833 203.5,207.5C 204.498,213.167 202.164,215.501 196.5,214.5C 195.833,213.167 194.833,212.167 193.5,211.5C 192.85,209.565 192.517,207.565 192.5,205.5 Z"/></g>
<g><path style="opacity:1" fill="#f0f2f4" d="M 167.5,207.5 C 167.443,208.609 167.11,209.609 166.5,210.5C 163.722,220.176 166.055,228.51 173.5,235.5C 169.885,235.794 166.718,234.794 164,232.5C 159.817,227.134 156.983,221.134 155.5,214.5C 155.351,213.448 155.517,212.448 156,211.5C 157.925,210.12 159.759,208.62 161.5,207C 163.712,206.211 165.712,206.378 167.5,207.5 Z"/></g>
<g><path style="opacity:1" fill="#f0f1f3" d="M 331.5,207.5 C 333.527,207.338 335.527,207.505 337.5,208C 340.94,209.503 342.94,212.003 343.5,215.5C 342.351,221.465 339.851,226.798 336,231.5C 333.087,234.373 329.587,235.706 325.5,235.5C 328.496,232.175 330.996,228.508 333,224.5C 333.667,220.167 333.667,215.833 333,211.5C 332.722,210.584 332.222,209.918 331.5,209.5C 331.5,208.833 331.5,208.167 331.5,207.5 Z"/></g>
<g><path style="opacity:1" fill="#eeeef0" d="M 218.5,214.5 C 218.5,217.833 218.5,221.167 218.5,224.5C 216.711,226.651 215.378,229.151 214.5,232C 210.56,233.015 206.56,233.515 202.5,233.5C 207.979,227.265 209.979,219.932 208.5,211.5C 208.56,210.957 208.893,210.624 209.5,210.5C 212.121,212.813 215.121,214.147 218.5,214.5 Z"/></g>
<g><path style="opacity:1" fill="#49578f" d="M 318.5,211.5 C 319.833,212.167 320.833,213.167 321.5,214.5C 323.874,221.081 321.874,225.748 315.5,228.5C 307.688,228.935 303.688,225.268 303.5,217.5C 303.491,215.692 303.991,214.025 305,212.5C 309.318,209.027 313.818,208.693 318.5,211.5 Z"/></g>
<g><path style="opacity:1" fill="#3b3b42" d="M 309.5,211.5 C 317.164,210.666 320.664,214 320,221.5C 315.916,227.84 311.25,228.173 306,222.5C 305.333,219.833 305.333,217.167 306,214.5C 307.518,213.837 308.685,212.837 309.5,211.5 Z"/></g>
<g><path style="opacity:1" fill="#8390bf" d="M 178.5,217.5 C 178.443,221.755 180.109,225.088 183.5,227.5C 181.876,227.36 180.71,228.027 180,229.5C 179.077,228.241 178.243,226.908 177.5,225.5C 174.621,227.681 173.955,230.348 175.5,233.5C 169.694,229.889 167.027,224.555 167.5,217.5C 171.167,217.5 174.833,217.5 178.5,217.5 Z"/></g>
<g><path style="opacity:1" fill="#4c598f" d="M 193.5,211.5 C 194.833,212.167 195.833,213.167 196.5,214.5C 198.874,221.081 196.874,225.748 190.5,228.5C 188.05,228.702 185.717,228.369 183.5,227.5C 180.109,225.088 178.443,221.755 178.5,217.5C 181.152,209.675 186.152,207.675 193.5,211.5 Z"/></g>
<g><path style="opacity:1" fill="#3b3c42" d="M 184.5,211.5 C 192.164,210.666 195.664,214 195,221.5C 190.916,227.84 186.25,228.173 181,222.5C 179.663,217.916 180.829,214.249 184.5,211.5 Z"/></g>
<g><path style="opacity:1" fill="#949dc6" d="M 303.5,217.5 C 303.688,225.268 307.688,228.935 315.5,228.5C 316.219,230.764 316.552,233.097 316.5,235.5C 311.105,235.733 305.772,235.4 300.5,234.5C 294.877,230.253 292.211,224.587 292.5,217.5C 296.167,217.5 299.833,217.5 303.5,217.5 Z"/></g>
<g><path style="opacity:1" fill="#7c89ba" d="M 328.5,207.5 C 329.5,208.167 330.5,208.833 331.5,209.5C 332.222,209.918 332.722,210.584 333,211.5C 333.667,215.833 333.667,220.167 333,224.5C 330.996,228.508 328.496,232.175 325.5,235.5C 324.5,235.5 323.5,235.5 322.5,235.5C 320.5,235.5 318.5,235.5 316.5,235.5C 316.552,233.097 316.219,230.764 315.5,228.5C 321.874,225.748 323.874,221.081 321.5,214.5C 327.164,215.501 329.498,213.167 328.5,207.5 Z"/></g>
<g><path style="opacity:1" fill="#eaeaed" d="M 291.5,209.5 C 291.5,209.833 291.5,210.167 291.5,210.5C 289.061,218.829 290.728,226.329 296.5,233C 295.906,233.464 295.239,233.631 294.5,233.5C 286.844,234.983 282.51,231.983 281.5,224.5C 280.597,221.609 280.264,218.609 280.5,215.5C 284.077,213.214 287.743,211.214 291.5,209.5 Z"/></g>
<g><path style="opacity:1" fill="#858fbb" d="M 203.5,207.5 C 204.5,208.167 205.5,208.833 206.5,209.5C 207.167,210.167 207.833,210.833 208.5,211.5C 209.979,219.932 207.979,227.265 202.5,233.5C 198.924,234.485 195.258,235.152 191.5,235.5C 191.552,233.097 191.219,230.764 190.5,228.5C 196.874,225.748 198.874,221.081 196.5,214.5C 202.164,215.501 204.498,213.167 203.5,207.5 Z"/></g>
<g><path style="opacity:1" fill="#a0a8cd" d="M 183.5,227.5 C 185.717,228.369 188.05,228.702 190.5,228.5C 191.219,230.764 191.552,233.097 191.5,235.5C 186.5,235.5 181.5,235.5 176.5,235.5C 176.167,234.833 175.833,234.167 175.5,233.5C 173.955,230.348 174.621,227.681 177.5,225.5C 178.243,226.908 179.077,228.241 180,229.5C 180.71,228.027 181.876,227.36 183.5,227.5 Z"/></g>
<g><path style="opacity:1" fill="#585557" d="M 218.5,224.5 C 219.425,228.894 218.092,232.228 214.5,234.5C 203.747,235.731 193.08,237.398 182.5,239.5C 182.953,238.542 183.619,237.708 184.5,237C 180.975,236.821 177.641,236.321 174.5,235.5C 175.167,235.5 175.833,235.5 176.5,235.5C 181.5,235.5 186.5,235.5 191.5,235.5C 195.258,235.152 198.924,234.485 202.5,233.5C 206.56,233.515 210.56,233.015 214.5,232C 215.378,229.151 216.711,226.651 218.5,224.5 Z"/></g>
<g><path style="opacity:1" fill="#595657" d="M 281.5,224.5 C 282.51,231.983 286.844,234.983 294.5,233.5C 296.265,234.461 298.265,234.795 300.5,234.5C 305.772,235.4 311.105,235.733 316.5,235.5C 318.5,235.5 320.5,235.5 322.5,235.5C 319.203,235.89 316.203,236.89 313.5,238.5C 303.858,237.194 294.192,236.028 284.5,235C 280.785,232.151 279.785,228.651 281.5,224.5 Z"/></g>
<g><path style="opacity:1" fill="#d2b4b0" d="M 369.5,235.5 C 366.485,263.986 362.485,292.319 357.5,320.5C 355.37,322.529 353.704,324.862 352.5,327.5C 353.687,320.194 354.687,312.861 355.5,305.5C 358.351,287.212 361.017,268.879 363.5,250.5C 363.253,249.287 362.586,248.62 361.5,248.5C 363.93,243.963 366.597,239.63 369.5,235.5 Z"/></g>
<g><path style="opacity:1" fill="#f2d4cf" d="M 361.5,248.5 C 362.586,248.62 363.253,249.287 363.5,250.5C 361.017,268.879 358.351,287.212 355.5,305.5C 340.86,336.24 319.527,361.406 291.5,381C 259.742,398.995 229.075,397.328 199.5,376C 174.235,356.25 155.235,331.75 142.5,302.5C 138.206,283.86 134.872,265.027 132.5,246C 132.514,244.615 132.848,243.449 133.5,242.5C 135.877,246.717 138.877,250.551 142.5,254C 157.988,264.046 174.988,267.379 193.5,264C 201.853,262.822 209.186,259.489 215.5,254C 229.706,239.753 238.206,222.586 241,202.5C 243.479,200.083 246.479,199.083 250,199.5C 253.292,199.026 255.959,200.026 258,202.5C 259.68,210.248 261.68,217.915 264,225.5C 277.511,258.175 301.678,270.675 336.5,263C 346.724,261.228 355.057,256.395 361.5,248.5 Z"/></g>
<g><path style="opacity:1" fill="#f6dcd8" d="M 247.5,228.5 C 248.5,228.5 249.5,228.5 250.5,228.5C 251.984,233.033 252.65,237.699 252.5,242.5C 255.518,242.335 258.518,242.502 261.5,243C 259.5,243.333 257.5,243.667 255.5,244C 258.833,244.333 262.167,244.667 265.5,245C 264.833,245.333 264.167,245.667 263.5,246C 265.5,246.333 267.5,246.667 269.5,247C 268.833,247.333 268.167,247.667 267.5,248C 270.886,248.382 273.552,249.382 275.5,251C 274.833,251.333 274.167,251.667 273.5,252C 274.833,252.333 276.167,252.667 277.5,253C 276.833,253.333 276.167,253.667 275.5,254C 277.5,255 279.5,256 281.5,257C 280.833,257.333 280.167,257.667 279.5,258C 280.833,258.333 282.167,258.667 283.5,259C 282.833,259.333 282.167,259.667 281.5,260C 282.833,261 284.167,262 285.5,263C 284.833,263.333 284.167,263.667 283.5,264C 284.833,264.333 286.167,264.667 287.5,265C 284.833,265.667 284.833,266.333 287.5,267C 286.5,267.333 285.5,267.667 284.5,268C 286.359,268.684 288.026,269.684 289.5,271C 286.833,272.333 286.833,273.667 289.5,275C 286.833,275.667 286.833,276.333 289.5,277C 286.833,277.667 286.833,278.333 289.5,279C 286.833,279.667 286.833,280.333 289.5,281C 286.833,281.667 286.833,282.333 289.5,283C 286.833,283.667 286.833,284.333 289.5,285C 288.833,285.333 288.167,285.667 287.5,286C 292.833,286.667 292.833,287.333 287.5,288C 290.167,288.667 290.167,289.333 287.5,290C 288.167,290.333 288.833,290.667 289.5,291C 288.167,292.667 286.833,294.333 285.5,296C 288.167,296.667 288.167,297.333 285.5,298C 286.167,298.333 286.833,298.667 287.5,299C 286.167,299.333 284.833,299.667 283.5,300C 286.167,300.667 286.167,301.333 283.5,302C 284.167,302.333 284.833,302.667 285.5,303C 284.167,303.333 282.833,303.667 281.5,304C 282.167,304.333 282.833,304.667 283.5,305C 282.167,305.333 280.833,305.667 279.5,306C 280.167,306.333 280.833,306.667 281.5,307C 280.167,307.333 278.833,307.667 277.5,308C 280.167,308.667 280.167,309.333 277.5,310C 278.167,310.333 278.833,310.667 279.5,311C 277.5,311.333 275.5,311.667 273.5,312C 274.167,312.333 274.833,312.667 275.5,313C 274.167,313.333 272.833,313.667 271.5,314C 272.167,314.333 272.833,314.667 273.5,315C 271.5,315.333 269.5,315.667 267.5,316C 268.167,316.333 268.833,316.667 269.5,317C 267.5,317.333 265.5,317.667 263.5,318C 264.167,318.333 264.833,318.667 265.5,319C 259.669,319.833 253.836,320.666 248,321.5C 244.309,320.085 239.142,319.252 232.5,319C 233.167,318.667 233.833,318.333 234.5,318C 231.833,317 229.167,316 226.5,315C 227.167,314.667 227.833,314.333 228.5,314C 227.167,313.667 225.833,313.333 224.5,313C 225.167,312.667 225.833,312.333 226.5,312C 224.5,311.667 222.5,311.333 220.5,311C 221.167,310.667 221.833,310.333 222.5,310C 220.774,308.47 218.774,307.47 216.5,307C 219.167,306.333 219.167,305.667 216.5,305C 217.167,304.667 217.833,304.333 218.5,304C 217.167,303.667 215.833,303.333 214.5,303C 216.878,302.026 216.544,301.359 213.5,301C 217.185,300.086 216.852,299.419 212.5,299C 215.167,298.333 215.167,297.667 212.5,297C 213.167,296.667 213.833,296.333 214.5,296C 213.167,295.667 211.833,295.333 210.5,295C 213.167,294.333 213.167,293.667 210.5,293C 212.878,292.026 212.544,291.359 209.5,291C 210.925,289.286 210.592,287.953 208.5,287C 211.167,286.333 211.167,285.667 208.5,285C 211.167,284.333 211.167,283.667 208.5,283C 211.167,282.333 211.167,281.667 208.5,281C 211.167,280.333 211.167,279.667 208.5,279C 211.167,278.333 211.167,277.667 208.5,277C 211.167,276.333 211.167,275.667 208.5,275C 209.833,274 211.167,273 212.5,272C 211.833,271.667 211.167,271.333 210.5,271C 211.833,270 213.167,269 214.5,268C 211.833,267.333 211.833,266.667 214.5,266C 213.833,265.667 213.167,265.333 212.5,265C 217.833,264.333 217.833,263.667 212.5,263C 214.774,262.53 216.774,261.53 218.5,260C 217.833,259.667 217.167,259.333 216.5,259C 217.833,258 219.167,257 220.5,256C 219.833,255.667 219.167,255.333 218.5,255C 219.833,254.667 221.167,254.333 222.5,254C 221.833,253.667 221.167,253.333 220.5,253C 222.5,252.667 224.5,252.333 226.5,252C 225.833,251.667 225.167,251.333 224.5,251C 226.226,249.47 228.226,248.47 230.5,248C 229.833,247.667 229.167,247.333 228.5,247C 234.166,245.387 239.833,243.887 245.5,242.5C 245.846,237.784 246.513,233.117 247.5,228.5 Z"/></g>
<g><path style="opacity:1" fill="#383338" d="M 415.5,234.5 C 416.165,237.314 416.498,240.314 416.5,243.5C 412.85,305.856 412.683,368.19 416,430.5C 410.605,403.263 408.439,375.763 409.5,348C 409.626,310.065 411.626,272.232 415.5,234.5 Z"/></g>
<g><path style="opacity:1" fill="#373237" d="M 82.5,248.5 C 88.0405,290.185 89.8738,332.185 88,374.5C 87.6538,381.937 86.6538,389.271 85,396.5C 85.989,347.162 85.1557,297.828 82.5,248.5 Z"/></g>
<g><path style="opacity:1" fill="#d3b2ae" d="M 126.5,227.5 C 129.011,232.342 131.344,237.342 133.5,242.5C 132.848,243.449 132.514,244.615 132.5,246C 134.872,265.027 138.206,283.86 142.5,302.5C 144.344,311.54 146.344,320.54 148.5,329.5C 146.115,327.116 144.115,324.45 142.5,321.5C 133.944,290.836 128.611,259.503 126.5,227.5 Z"/></g>
<g><path style="opacity:1" fill="#e1aea5" d="M 233.5,286.5 C 242.5,287.691 251.5,287.691 260.5,286.5C 269.157,286.336 270.491,289.169 264.5,295C 252.942,302.717 241.776,302.217 231,293.5C 230.162,290.519 230.995,288.186 233.5,286.5 Z"/></g>
<g><path style="opacity:1" fill="#e9c0ba" d="M 142.5,302.5 C 155.235,331.75 174.235,356.25 199.5,376C 229.075,397.328 259.742,398.995 291.5,381C 319.527,361.406 340.86,336.24 355.5,305.5C 354.687,312.861 353.687,320.194 352.5,327.5C 335.775,353.717 313.442,373.884 285.5,388C 255.618,399.801 226.951,397.468 199.5,381C 178.768,367.346 161.768,350.18 148.5,329.5C 146.344,320.54 144.344,311.54 142.5,302.5 Z"/></g>
<g><path style="opacity:1" fill="#bf776b" d="M 357.5,320.5 C 357.911,324.463 357.078,328.13 355,331.5C 342.348,350.318 326.848,366.318 308.5,379.5C 307.883,379.611 307.383,379.944 307,380.5C 306.007,393.769 304.174,406.769 301.5,419.5C 301.5,416.5 301.5,413.5 301.5,410.5C 301.5,409.833 301.5,409.167 301.5,408.5C 302.23,400.07 303.23,391.57 304.5,383C 298.19,385.651 291.856,388.651 285.5,392C 262.283,401.503 238.95,401.836 215.5,393C 208.707,389.77 202.04,386.27 195.5,382.5C 195.167,383.333 194.833,384.167 194.5,385C 195.257,390.83 195.924,396.663 196.5,402.5C 196.5,408.167 196.5,413.833 196.5,419.5C 194.891,416.851 194.057,413.851 194,410.5C 193.745,400.424 192.745,390.424 191,380.5C 190.722,379.584 190.222,378.918 189.5,378.5C 171.106,365.604 155.939,349.604 144,330.5C 143.047,327.568 142.547,324.568 142.5,321.5C 144.115,324.45 146.115,327.116 148.5,329.5C 161.768,350.18 178.768,367.346 199.5,381C 226.951,397.468 255.618,399.801 285.5,388C 313.442,373.884 335.775,353.717 352.5,327.5C 353.704,324.862 355.37,322.529 357.5,320.5 Z"/></g>
<g><path style="opacity:1" fill="#d2948b" d="M 254.5,326.5 C 260.593,326.139 266.593,326.639 272.5,328C 275.554,330.194 278.888,331.861 282.5,333C 283.5,334 284.5,335 285.5,336C 285,336.167 284.5,336.333 284,336.5C 277.839,333.391 271.339,331.391 264.5,330.5C 259.339,331.213 254.172,331.88 249,332.5C 242.849,331.549 236.683,331.382 230.5,332C 225.863,333.772 221.196,335.106 216.5,336C 220.769,332.031 225.769,329.365 231.5,328C 239.344,327.829 247.011,327.329 254.5,326.5 Z"/></g>
<g><path style="opacity:1" fill="#0c090c" d="M 371.5,229.5 C 365.331,289.519 358.831,349.519 352,409.5C 348.84,439.423 347.006,469.423 346.5,499.5C 345.5,499.5 344.5,499.5 343.5,499.5C 343.472,472.787 344.472,446.12 346.5,419.5C 339.623,406.443 330.623,394.943 319.5,385C 316.01,382.588 312.343,380.755 308.5,379.5C 326.848,366.318 342.348,350.318 355,331.5C 357.078,328.13 357.911,324.463 357.5,320.5C 362.485,292.319 366.485,263.986 369.5,235.5C 369.595,233.214 370.262,231.214 371.5,229.5 Z"/></g>
<g><path style="opacity:1" fill="#0b080b" d="M 125.5,220.5 C 126.332,222.999 126.665,225.332 126.5,227.5C 128.611,259.503 133.944,290.836 142.5,321.5C 142.547,324.568 143.047,327.568 144,330.5C 155.939,349.604 171.106,365.604 189.5,378.5C 188.833,379.167 188.167,379.833 187.5,380.5C 185.973,380.427 184.973,381.094 184.5,382.5C 182.147,384.101 179.98,386.101 178,388.5C 172.735,397.363 166.735,405.696 160,413.5C 158.991,415.025 158.491,416.692 158.5,418.5C 159.416,445.486 159.75,472.486 159.5,499.5C 158.167,499.5 156.833,499.5 155.5,499.5C 157.227,451.486 154.06,403.819 146,356.5C 138.817,326.4 132.817,296.066 128,265.5C 125.915,250.374 125.082,235.374 125.5,220.5 Z"/></g>
<g><path style="opacity:1" fill="#b4aca3" d="M 189.5,378.5 C 190.222,378.918 190.722,379.584 191,380.5C 192.745,390.424 193.745,400.424 194,410.5C 194.057,413.851 194.891,416.851 196.5,419.5C 196.5,420.167 196.5,420.833 196.5,421.5C 204.024,445.893 216.191,467.559 233,486.5C 233.791,487.745 234.291,489.078 234.5,490.5C 226.82,482.315 219.654,473.648 213,464.5C 204.921,449.674 197.921,434.341 192,418.5C 191.518,408.155 190.851,397.821 190,387.5C 190.03,384.639 189.197,382.305 187.5,380.5C 188.167,379.833 188.833,379.167 189.5,378.5 Z"/></g>
<g><path style="opacity:1" fill="#dddad3" d="M 187.5,380.5 C 189.197,382.305 190.03,384.639 190,387.5C 190.851,397.821 191.518,408.155 192,418.5C 197.921,434.341 204.921,449.674 213,464.5C 219.654,473.648 226.82,482.315 234.5,490.5C 235.404,491.209 235.737,492.209 235.5,493.5C 233.938,493.267 232.605,492.6 231.5,491.5C 227.935,490.213 224.268,490.213 220.5,491.5C 206.852,468.505 189.852,448.172 169.5,430.5C 169.5,429.833 169.833,429.5 170.5,429.5C 180.645,436.076 190.645,442.91 200.5,450C 201.167,450.667 201.833,450.667 202.5,450C 189.888,433.28 181.222,414.78 176.5,394.5C 178.774,390.228 181.441,386.228 184.5,382.5C 184.973,381.094 185.973,380.427 187.5,380.5 Z"/></g>
<g><path style="opacity:1" fill="#aea79e" d="M 308.5,379.5 C 312.343,380.755 316.01,382.588 319.5,385C 330.623,394.943 339.623,406.443 346.5,419.5C 344.473,418.139 342.806,416.473 341.5,414.5C 335.563,405.565 328.896,397.232 321.5,389.5C 318.203,385.213 313.869,382.546 308.5,381.5C 308.123,395.238 306.956,408.904 305,422.5C 298.249,438.766 291.916,455.099 286,471.5C 285.207,477.341 284.374,483.174 283.5,489C 283.528,490.07 283.861,490.903 284.5,491.5C 284.158,492.338 283.492,492.672 282.5,492.5C 282.347,484.394 283.18,476.394 285,468.5C 288.346,459.789 291.679,451.122 295,442.5C 297.889,435.004 300.056,427.337 301.5,419.5C 304.174,406.769 306.007,393.769 307,380.5C 307.383,379.944 307.883,379.611 308.5,379.5 Z"/></g>
<g><path style="opacity:1" fill="#dddbd4" d="M 321.5,389.5 C 320.883,389.611 320.383,389.944 320,390.5C 317.548,409.018 312.381,426.684 304.5,443.5C 304.667,443.833 304.833,444.167 305,444.5C 313.781,438.367 322.948,433.2 332.5,429C 320.965,438.868 310.465,449.701 301,461.5C 295.434,469.964 290.934,478.964 287.5,488.5C 286.306,489.272 285.306,490.272 284.5,491.5C 283.861,490.903 283.528,490.07 283.5,489C 284.374,483.174 285.207,477.341 286,471.5C 291.916,455.099 298.249,438.766 305,422.5C 306.956,408.904 308.123,395.238 308.5,381.5C 313.869,382.546 318.203,385.213 321.5,389.5 Z"/></g>
<g><path style="opacity:1" fill="#fefefe" d="M 321.5,389.5 C 328.896,397.232 335.563,405.565 341.5,414.5C 339.394,442.789 338.394,471.122 338.5,499.5C 332.5,499.5 326.5,499.5 320.5,499.5C 313.932,494.799 306.932,490.632 299.5,487C 295.351,486.331 291.351,486.831 287.5,488.5C 290.934,478.964 295.434,469.964 301,461.5C 310.465,449.701 320.965,438.868 332.5,429C 322.948,433.2 313.781,438.367 305,444.5C 304.833,444.167 304.667,443.833 304.5,443.5C 312.381,426.684 317.548,409.018 320,390.5C 320.383,389.944 320.883,389.611 321.5,389.5 Z"/></g>
<g><path style="opacity:1" fill="#9a958e" d="M 184.5,382.5 C 181.441,386.228 178.774,390.228 176.5,394.5C 172.557,401.108 168.224,407.441 163.5,413.5C 162.194,415.473 160.527,417.139 158.5,418.5C 158.491,416.692 158.991,415.025 160,413.5C 166.735,405.696 172.735,397.363 178,388.5C 179.98,386.101 182.147,384.101 184.5,382.5 Z"/></g>
<g><path style="opacity:1" fill="#030204" d="M 384.5,499.5 C 383.167,499.5 381.833,499.5 380.5,499.5C 379.289,490.545 378.455,481.545 378,472.5C 375.883,435.259 377.883,398.259 384,361.5C 381.968,383.592 380.801,405.759 380.5,428C 380.977,451.889 382.31,475.722 384.5,499.5 Z"/></g>
<g><path style="opacity:1" fill="#fdfdfd" d="M 176.5,394.5 C 181.222,414.78 189.888,433.28 202.5,450C 201.833,450.667 201.167,450.667 200.5,450C 190.645,442.91 180.645,436.076 170.5,429.5C 168.565,428.19 166.565,426.857 164.5,425.5C 163.509,421.555 163.176,417.555 163.5,413.5C 168.224,407.441 172.557,401.108 176.5,394.5 Z"/></g>
<g><path style="opacity:1" fill="#d79c93" d="M 301.5,408.5 C 301.662,406.473 301.495,404.473 301,402.5C 266.215,402.736 231.382,402.736 196.5,402.5C 195.924,396.663 195.257,390.83 194.5,385C 194.833,384.167 195.167,383.333 195.5,382.5C 202.04,386.27 208.707,389.77 215.5,393C 238.95,401.836 262.283,401.503 285.5,392C 291.856,388.651 298.19,385.651 304.5,383C 303.23,391.57 302.23,400.07 301.5,408.5 Z"/></g>
<g><path style="opacity:1" fill="#1b141c" d="M 102.5,499.5 C 96.5,499.5 90.5,499.5 84.5,499.5C 91.2717,470.261 95.105,440.594 96,410.5C 101.058,439.854 103.224,469.52 102.5,499.5 Z"/></g>
<g><path style="opacity:1" fill="#040304" d="M 127.5,499.5 C 126.167,499.5 124.833,499.5 123.5,499.5C 125.194,472.19 125.694,444.857 125,417.5C 123.739,397.761 122.073,378.094 120,358.5C 128.173,405.183 130.673,452.183 127.5,499.5 Z"/></g>
<g><path style="opacity:1" fill="#f2d3ce" d="M 301.5,410.5 C 301.5,413.5 301.5,416.5 301.5,419.5C 300.056,427.337 297.889,435.004 295,442.5C 291.679,451.122 288.346,459.789 285,468.5C 283.18,476.394 282.347,484.394 282.5,492.5C 266.84,495.82 251.173,496.153 235.5,493.5C 235.737,492.209 235.404,491.209 234.5,490.5C 234.291,489.078 233.791,487.745 233,486.5C 216.191,467.559 204.024,445.893 196.5,421.5C 197.323,418.023 197.823,414.356 198,410.5C 222.865,427.408 249.698,431.241 278.5,422C 286.441,418.696 294.108,414.863 301.5,410.5 Z"/></g>
<g><path style="opacity:1" fill="#e0aca4" d="M 196.5,402.5 C 231.382,402.736 266.215,402.736 301,402.5C 301.495,404.473 301.662,406.473 301.5,408.5C 301.5,409.167 301.5,409.833 301.5,410.5C 294.108,414.863 286.441,418.696 278.5,422C 249.698,431.241 222.865,427.408 198,410.5C 197.823,414.356 197.323,418.023 196.5,421.5C 196.5,420.833 196.5,420.167 196.5,419.5C 196.5,413.833 196.5,408.167 196.5,402.5 Z"/></g>
<g><path style="opacity:1" fill="#e2e2e2" d="M 163.5,413.5 C 163.176,417.555 163.509,421.555 164.5,425.5C 166.565,426.857 168.565,428.19 170.5,429.5C 169.833,429.5 169.5,429.833 169.5,430.5C 167.608,429.298 165.774,427.965 164,426.5C 164.417,450.811 164.584,475.144 164.5,499.5C 162.833,499.5 161.167,499.5 159.5,499.5C 159.75,472.486 159.416,445.486 158.5,418.5C 160.527,417.139 162.194,415.473 163.5,413.5 Z"/></g>
<g><path style="opacity:1" fill="#e7e7e7" d="M 341.5,414.5 C 342.806,416.473 344.473,418.139 346.5,419.5C 344.472,446.12 343.472,472.787 343.5,499.5C 341.833,499.5 340.167,499.5 338.5,499.5C 338.394,471.122 339.394,442.789 341.5,414.5 Z"/></g>
<g><path style="opacity:1" fill="#fefefe" d="M 169.5,430.5 C 189.852,448.172 206.852,468.505 220.5,491.5C 215.632,493.382 211.299,496.048 207.5,499.5C 193.167,499.5 178.833,499.5 164.5,499.5C 164.584,475.144 164.417,450.811 164,426.5C 165.774,427.965 167.608,429.298 169.5,430.5 Z"/></g>
<g><path style="opacity:1" fill="#1b141c" d="M 418.5,499.5 C 414.833,499.5 411.167,499.5 407.5,499.5C 405.691,473.861 404.858,448.195 405,422.5C 406.606,448.694 411.106,474.36 418.5,499.5 Z"/></g>
<g><path style="opacity:1" fill="#1a889d" d="M 69.5,455.5 C 69.8016,458.059 69.4682,460.393 68.5,462.5C 68.5,461.5 68.5,460.5 68.5,459.5C 46.1397,465.534 29.8064,478.867 19.5,499.5C 17.5,499.5 15.5,499.5 13.5,499.5C 15.0068,495.155 17.1735,491.155 20,487.5C 33.1501,471.674 49.6501,461.007 69.5,455.5 Z"/></g>
<g><path style="opacity:1" fill="#1db8d2" d="M 68.5,462.5 C 68.5,463.167 68.5,463.833 68.5,464.5C 50.3295,471.994 35.3295,483.66 23.5,499.5C 22.1667,499.5 20.8333,499.5 19.5,499.5C 29.8064,478.867 46.1397,465.534 68.5,459.5C 68.5,460.5 68.5,461.5 68.5,462.5 Z"/></g>
<g><path style="opacity:1" fill="#1a879c" d="M 431.5,458.5 C 432.968,459.869 434.635,461.036 436.5,462C 457.735,467.415 473.069,479.915 482.5,499.5C 480.833,499.5 479.167,499.5 477.5,499.5C 472.461,490.931 466.127,483.431 458.5,477C 450.172,472.002 441.506,467.835 432.5,464.5C 432.167,462.5 431.833,460.5 431.5,458.5 Z"/></g>
<g><path style="opacity:1" fill="#09a9c4" d="M 68.5,464.5 C 66.6094,476.176 64.6094,487.843 62.5,499.5C 49.5,499.5 36.5,499.5 23.5,499.5C 35.3295,483.66 50.3295,471.994 68.5,464.5 Z"/></g>
<g><path style="opacity:1" fill="#1eb8d2" d="M 432.5,464.5 C 441.506,467.835 450.172,472.002 458.5,477C 466.127,483.431 472.461,490.931 477.5,499.5C 474.167,499.5 470.833,499.5 467.5,499.5C 458.495,487.332 447.162,477.999 433.5,471.5C 432.631,469.283 432.298,466.95 432.5,464.5 Z"/></g>
<g><path style="opacity:1" fill="#08a8c3" d="M 433.5,471.5 C 447.162,477.999 458.495,487.332 467.5,499.5C 457.5,499.5 447.5,499.5 437.5,499.5C 435.95,490.198 434.616,480.865 433.5,471.5 Z"/></g>
<g><path style="opacity:1" fill="#afaba3" d="M 320.5,499.5 C 319.167,499.5 317.833,499.5 316.5,499.5C 310.948,494.644 304.615,490.977 297.5,488.5C 293.196,489.627 288.863,490.627 284.5,491.5C 285.306,490.272 286.306,489.272 287.5,488.5C 291.351,486.831 295.351,486.331 299.5,487C 306.932,490.632 313.932,494.799 320.5,499.5 Z"/></g>
<g><path style="opacity:1" fill="#b0aca3" d="M 231.5,491.5 C 229.265,491.205 227.265,491.539 225.5,492.5C 219.967,493.266 215.301,495.6 211.5,499.5C 210.167,499.5 208.833,499.5 207.5,499.5C 211.299,496.048 215.632,493.382 220.5,491.5C 224.268,490.213 227.935,490.213 231.5,491.5 Z"/></g>
<g><path style="opacity:1" fill="#0ea5bf" d="M 297.5,488.5 C 304.615,490.977 310.948,494.644 316.5,499.5C 281.5,499.5 246.5,499.5 211.5,499.5C 215.301,495.6 219.967,493.266 225.5,492.5C 231.228,493.68 236.895,495.18 242.5,497C 258.543,498.733 274.209,497.066 289.5,492C 292.476,491.295 295.142,490.129 297.5,488.5 Z"/></g>
<g><path style="opacity:1" fill="#2c8da0" d="M 297.5,488.5 C 295.142,490.129 292.476,491.295 289.5,492C 274.209,497.066 258.543,498.733 242.5,497C 236.895,495.18 231.228,493.68 225.5,492.5C 227.265,491.539 229.265,491.205 231.5,491.5C 232.605,492.6 233.938,493.267 235.5,493.5C 251.173,496.153 266.84,495.82 282.5,492.5C 283.492,492.672 284.158,492.338 284.5,491.5C 288.863,490.627 293.196,489.627 297.5,488.5 Z"/></g>
</svg>
