<?xml version="1.0" encoding="UTF-8"?>
<!DOCTYPE svg PUBLIC "-//W3C//DTD SVG 1.1//EN" "http://www.w3.org/Graphics/SVG/1.1/DTD/svg11.dtd">
<svg xmlns="http://www.w3.org/2000/svg" version="1.1" width="500px" height="500px" style="shape-rendering:geometricPrecision; text-rendering:geometricPrecision; image-rendering:optimizeQuality; fill-rule:evenodd; clip-rule:evenodd" xmlns:xlink="http://www.w3.org/1999/xlink">
<g><path style="opacity:1" fill="#ebeff0" d="M -0.5,-0.5 C 62.8333,-0.5 126.167,-0.5 189.5,-0.5C 181.742,3.21342 174.075,7.21342 166.5,11.5C 156.938,7.52245 149.771,10.1891 145,19.5C 144.502,22.4816 144.335,25.4816 144.5,28.5C 136.122,36.9423 128.455,45.9423 121.5,55.5C 111.826,52.5571 104.659,55.5571 100,64.5C 98.1864,71.2302 100.02,76.5636 105.5,80.5C 94.541,102.183 85.8743,124.85 79.5,148.5C 69.2819,141.798 61.1153,143.798 55,154.5C 53.4627,163.259 56.6293,169.759 64.5,174C 67.4816,174.498 70.4816,174.665 73.5,174.5C 73.3512,179.575 72.6845,184.575 71.5,189.5C 61.9899,189.844 56.3233,194.678 54.5,204C 55.6539,212.986 60.6539,218.153 69.5,219.5C 69.5,222.833 69.5,226.167 69.5,229.5C 68.5489,230.919 68.2155,232.585 68.5,234.5C 56.0873,237.992 52.2539,245.659 57,257.5C 60.1553,261.824 64.3219,264.157 69.5,264.5C 69.5,267.167 69.5,269.833 69.5,272.5C 69.5,274.833 69.5,277.167 69.5,279.5C 61.0543,280.779 56.0543,285.612 54.5,294C 55.9226,303.926 61.5893,309.093 71.5,309.5C 71.5,312.5 71.5,315.5 71.5,318.5C 71.5,320.5 71.5,322.5 71.5,324.5C 61.9899,324.844 56.3233,329.678 54.5,339C 56.0659,349.404 62.0659,354.57 72.5,354.5C 72.5,359.5 72.5,364.5 72.5,369.5C 62.4673,369.369 56.4673,374.202 54.5,384C 56.0659,394.404 62.0659,399.57 72.5,399.5C 72.5,402.167 72.5,404.833 72.5,407.5C 72.5,409.833 72.5,412.167 72.5,414.5C 62.4673,414.369 56.4673,419.202 54.5,429C 55.7851,438.453 61.1185,443.62 70.5,444.5C 69.8857,448.135 69.5524,451.802 69.5,455.5C 58.5637,458.801 48.2304,463.468 38.5,469.5C 33.9861,460.714 26.9861,457.881 17.5,461C 6.37574,471.045 7.0424,480.211 19.5,488.5C 16.7256,491.713 14.7256,495.38 13.5,499.5C 8.83333,499.5 4.16667,499.5 -0.5,499.5C -0.5,332.833 -0.5,166.167 -0.5,-0.5 Z"/></g>
<g><path style="opacity:1" fill="#29222a" d="M 195.5,-0.5 C 231.5,-0.5 267.5,-0.5 303.5,-0.5C 330.43,10.9117 352.93,28.245 371,51.5C 404.706,98.9466 422.706,151.947 425,210.5C 425.667,230.167 425.667,249.833 425,269.5C 421.863,318.809 421.197,368.142 423,417.5C 424.556,445.169 428.39,472.502 434.5,499.5C 429.167,499.5 423.833,499.5 418.5,499.5C 411.106,474.36 406.606,448.694 405,422.5C 404.858,448.195 405.691,473.861 407.5,499.5C 404.167,499.5 400.833,499.5 397.5,499.5C 385.757,463.077 381.59,425.743 385,387.5C 389.681,342.9 396.181,298.566 404.5,254.5C 404.154,253.304 403.654,253.304 403,254.5C 387.317,318.974 374.317,381.974 364,443.5C 361.89,425.461 362.224,407.461 365,389.5C 373.701,343.998 381.367,298.332 388,252.5C 391.82,218.736 391.153,185.07 386,151.5C 380.678,122.544 369.178,96.5438 351.5,73.5C 345.135,67.4654 339.469,60.7988 334.5,53.5C 328.681,48.1816 323.015,42.6816 317.5,37C 316.833,36.3333 316.167,36.3333 315.5,37C 324.673,45.9071 333.006,55.4071 340.5,65.5C 361.742,100.217 375.075,137.884 380.5,178.5C 370.938,175.988 361.271,173.988 351.5,172.5C 346.198,146.43 337.031,121.763 324,98.5C 327.069,112.501 330.402,126.501 334,140.5C 336.014,150.767 337.514,161.1 338.5,171.5C 333.187,170.902 327.854,170.569 322.5,170.5C 320.554,145.601 315.72,121.268 308,97.5C 309.714,114.911 310.88,132.244 311.5,149.5C 311.347,155.845 311.014,162.178 310.5,168.5C 308.886,170.075 306.886,170.741 304.5,170.5C 301.853,137.395 293.019,106.062 278,76.5C 281.496,94.805 284.329,113.138 286.5,131.5C 287.583,145.494 288.583,159.494 289.5,173.5C 284.835,174.057 280.502,175.39 276.5,177.5C 269.962,179.102 264.295,182.269 259.5,187C 257.203,187.018 254.869,186.851 252.5,186.5C 248.776,156.916 245.942,127.249 244,97.5C 235.742,124.894 231.909,152.894 232.5,181.5C 225.902,178.635 219.235,175.968 212.5,173.5C 211.459,163.179 210.459,152.846 209.5,142.5C 206.769,152.288 205.435,162.288 205.5,172.5C 199.5,171.833 193.5,171.167 187.5,170.5C 188.087,154.49 188.921,138.49 190,122.5C 192.631,115.308 194.631,107.974 196,100.5C 184.657,115.881 178.323,133.214 177,152.5C 176.501,158.491 176.334,164.491 176.5,170.5C 168.836,170.889 161.17,171.222 153.5,171.5C 154.399,144.46 161.566,119.46 175,96.5C 160.086,110.997 151.586,128.664 149.5,149.5C 147.041,157.545 144.374,165.545 141.5,173.5C 136.111,174.245 130.778,175.245 125.5,176.5C 129.108,162.368 133.774,148.701 139.5,135.5C 154.111,101.784 174.111,71.6172 199.5,45C 194.886,46.7513 190.886,49.5846 187.5,53.5C 185.091,54.7007 183.091,56.3674 181.5,58.5C 144.119,90.5715 121.786,131.238 114.5,180.5C 112.448,188.407 111.781,196.407 112.5,204.5C 117.588,250.201 123.088,295.867 129,341.5C 135.174,392.108 135.841,442.774 131,493.5C 132.988,449.991 130.988,406.657 125,363.5C 121.649,339.391 117.649,315.391 113,291.5C 114.33,310.137 115.663,328.804 117,347.5C 119.718,398.692 115.884,449.358 105.5,499.5C 104.5,499.5 103.5,499.5 102.5,499.5C 103.224,469.52 101.058,439.854 96,410.5C 95.105,440.594 91.2717,470.261 84.5,499.5C 78.1667,499.5 71.8333,499.5 65.5,499.5C 76.2985,451.128 80.6318,402.128 78.5,352.5C 77.4386,302.836 76.9386,253.169 77,203.5C 80.258,152.737 94.9247,105.737 121,62.5C 139.318,33.6734 164.151,12.6734 195.5,-0.5 Z"/></g>
<g><path style="opacity:1" fill="#ebeff0" d="M 307.5,-0.5 C 371.5,-0.5 435.5,-0.5 499.5,-0.5C 499.5,166.167 499.5,332.833 499.5,499.5C 493.833,499.5 488.167,499.5 482.5,499.5C 481.358,495.883 479.692,492.55 477.5,489.5C 487.733,485.368 491.233,478.034 488,467.5C 476.503,455.833 467.003,457.166 459.5,471.5C 452.336,467.256 444.67,464.089 436.5,462C 434.635,461.036 432.968,459.869 431.5,458.5C 430.873,453.859 430.54,449.193 430.5,444.5C 442.185,441.465 446.352,434.131 443,422.5C 439.515,417.342 434.682,414.675 428.5,414.5C 428.5,409.5 428.5,404.5 428.5,399.5C 441.554,397.609 446.387,390.276 443,377.5C 439.515,372.342 434.682,369.675 428.5,369.5C 428.5,364.5 428.5,359.5 428.5,354.5C 441.554,352.609 446.387,345.276 443,332.5C 439.77,327.637 435.27,324.97 429.5,324.5C 429.5,321.5 429.5,318.5 429.5,315.5C 430.461,313.735 430.795,311.735 430.5,309.5C 442.185,306.465 446.352,299.131 443,287.5C 440.092,283.413 436.259,280.747 431.5,279.5C 431.5,276.5 431.5,273.5 431.5,270.5C 432.309,268.708 432.809,266.708 433,264.5C 446.251,257.064 447.751,247.897 437.5,237C 435.975,235.991 434.308,235.491 432.5,235.5C 432.81,232.287 432.477,229.287 431.5,226.5C 431.5,224.167 431.5,221.833 431.5,219.5C 442.466,215.901 446.3,208.567 443,197.5C 439.77,192.637 435.27,189.97 429.5,189.5C 428.279,184.614 427.612,179.614 427.5,174.5C 441.078,173.089 446.245,165.756 443,152.5C 437.035,144.677 429.535,142.677 420.5,146.5C 413.782,124.003 405.115,102.336 394.5,81.5C 403.486,67.6218 399.986,58.6218 384,54.5C 381.813,54.7885 379.646,55.1218 377.5,55.5C 370.519,46.1882 362.852,37.5215 354.5,29.5C 355.41,17.5747 349.91,10.908 338,9.5C 335.711,9.87471 333.545,10.5414 331.5,11.5C 323.461,7.48062 315.461,3.48062 307.5,-0.5 Z"/></g>
<g><path style="opacity:1" fill="#050506" d="M 189.5,-0.5 C 191.5,-0.5 193.5,-0.5 195.5,-0.5C 164.151,12.6734 139.318,33.6734 121,62.5C 94.9247,105.737 80.258,152.737 77,203.5C 76.9386,253.169 77.4386,302.836 78.5,352.5C 80.6318,402.128 76.2985,451.128 65.5,499.5C 64.5,499.5 63.5,499.5 62.5,499.5C 64.6094,487.843 66.6094,476.176 68.5,464.5C 68.5,463.833 68.5,463.167 68.5,462.5C 69.4682,460.393 69.8016,458.059 69.5,455.5C 69.5524,451.802 69.8857,448.135 70.5,444.5C 71.2991,434.521 71.9658,424.521 72.5,414.5C 72.5,412.167 72.5,409.833 72.5,407.5C 73.7736,377.821 73.4403,348.154 71.5,318.5C 71.5,315.5 71.5,312.5 71.5,309.5C 71.1891,296.993 70.5225,284.66 69.5,272.5C 69.5,269.833 69.5,267.167 69.5,264.5C 69.5,252.833 69.5,241.167 69.5,229.5C 69.5,226.167 69.5,222.833 69.5,219.5C 70.0343,209.491 70.701,199.491 71.5,189.5C 72.6845,184.575 73.3512,179.575 73.5,174.5C 75.4969,165.845 77.4969,157.178 79.5,148.5C 85.8743,124.85 94.541,102.183 105.5,80.5C 110.396,71.927 115.729,63.5937 121.5,55.5C 128.455,45.9423 136.122,36.9423 144.5,28.5C 151.511,22.3381 158.844,16.6715 166.5,11.5C 174.075,7.21342 181.742,3.21342 189.5,-0.5 Z"/></g>
<g><path style="opacity:1" fill="#060607" d="M 303.5,-0.5 C 304.833,-0.5 306.167,-0.5 307.5,-0.5C 315.461,3.48062 323.461,7.48062 331.5,11.5C 339.672,16.7648 347.338,22.7648 354.5,29.5C 362.852,37.5215 370.519,46.1882 377.5,55.5C 383.2,64.1894 388.867,72.8561 394.5,81.5C 405.115,102.336 413.782,124.003 420.5,146.5C 423.104,155.878 425.437,165.212 427.5,174.5C 427.612,179.614 428.279,184.614 429.5,189.5C 430.564,199.471 431.23,209.471 431.5,219.5C 431.5,221.833 431.5,224.167 431.5,226.5C 431.5,241.167 431.5,255.833 431.5,270.5C 431.5,273.5 431.5,276.5 431.5,279.5C 430.75,291.495 430.084,303.495 429.5,315.5C 429.5,318.5 429.5,321.5 429.5,324.5C 427.475,354.975 427.142,385.308 428.5,415.5C 428.713,425.252 429.38,434.918 430.5,444.5C 430.54,449.193 430.873,453.859 431.5,458.5C 431.833,460.5 432.167,462.5 432.5,464.5C 432.298,466.95 432.631,469.283 433.5,471.5C 434.616,480.865 435.95,490.198 437.5,499.5C 436.5,499.5 435.5,499.5 434.5,499.5C 428.39,472.502 424.556,445.169 423,417.5C 421.197,368.142 421.863,318.809 425,269.5C 425.667,249.833 425.667,230.167 425,210.5C 422.706,151.947 404.706,98.9466 371,51.5C 352.93,28.245 330.43,10.9117 303.5,-0.5 Z"/></g>
<g><path style="opacity:1" fill="#c6dce2" d="M 20.5,9.5 C 29.3995,8.69557 35.5662,12.3622 39,20.5C 40.3123,29.3736 36.8123,35.5402 28.5,39C 19.7078,40.3491 13.5411,36.8491 10,28.5C 8.79397,19.5796 12.294,13.2462 20.5,9.5 Z"/></g>
<g><path style="opacity:1" fill="#c6dce2" d="M 65.5,9.5 C 74.3995,8.69557 80.5662,12.3622 84,20.5C 85.3123,29.3736 81.8123,35.5402 73.5,39C 64.7078,40.3491 58.5411,36.8491 55,28.5C 53.794,19.5796 57.294,13.2462 65.5,9.5 Z"/></g>
<g><path style="opacity:1" fill="#c6dce2" d="M 110.5,9.5 C 119.399,8.69557 125.566,12.3622 129,20.5C 130.312,29.3736 126.812,35.5402 118.5,39C 109.708,40.3491 103.541,36.8491 100,28.5C 98.794,19.5796 102.294,13.2462 110.5,9.5 Z"/></g>
<g><path style="opacity:1" fill="#c0d5db" d="M 166.5,11.5 C 158.844,16.6715 151.511,22.3381 144.5,28.5C 144.335,25.4816 144.502,22.4816 145,19.5C 149.771,10.1891 156.938,7.52245 166.5,11.5 Z"/></g>
<g><path style="opacity:1" fill="#bdd2d8" d="M 354.5,29.5 C 347.338,22.7648 339.672,16.7648 331.5,11.5C 333.545,10.5414 335.711,9.87471 338,9.5C 349.91,10.908 355.41,17.5747 354.5,29.5 Z"/></g>
<g><path style="opacity:1" fill="#c6dce2" d="M 380.5,9.5 C 389.399,8.69557 395.566,12.3622 399,20.5C 400.312,29.3736 396.812,35.5402 388.5,39C 379.708,40.3491 373.541,36.8491 370,28.5C 368.794,19.5796 372.294,13.2462 380.5,9.5 Z"/></g>
<g><path style="opacity:1" fill="#c6dce2" d="M 425.5,9.5 C 434.399,8.69557 440.566,12.3622 444,20.5C 445.312,29.3736 441.812,35.5402 433.5,39C 424.708,40.3491 418.541,36.8491 415,28.5C 413.794,19.5796 417.294,13.2462 425.5,9.5 Z"/></g>
<g><path style="opacity:1" fill="#c6dce2" d="M 470.5,9.5 C 479.399,8.69557 485.566,12.3622 489,20.5C 490.312,29.3736 486.812,35.5402 478.5,39C 469.708,40.3491 463.541,36.8491 460,28.5C 458.794,19.5796 462.294,13.2462 470.5,9.5 Z"/></g>
<g><path style="opacity:1" fill="#373237" d="M 307.5,13.5 C 308.251,12.4265 309.251,12.2599 310.5,13C 348.714,29.8703 374.214,58.0369 387,97.5C 374.402,70.2439 356.569,47.0772 333.5,28C 325.263,22.3819 316.596,17.5485 307.5,13.5 Z"/></g>
<g><path style="opacity:1" fill="#373137" d="M 176.5,20.5 C 177.239,20.369 177.906,20.5357 178.5,21C 141.136,52.5625 114.303,91.3959 98,137.5C 96.4104,144.115 95.077,150.782 94,157.5C 94.6161,143.363 97.6161,129.696 103,116.5C 118.711,77.6407 143.211,45.6407 176.5,20.5 Z"/></g>
<g><path style="opacity:1" fill="#1c151d" d="M 139.5,135.5 C 145.96,113.247 156.126,92.9141 170,74.5C 176.167,67.6667 182.333,60.8333 188.5,54C 188.272,53.6012 187.938,53.4346 187.5,53.5C 190.886,49.5846 194.886,46.7513 199.5,45C 174.111,71.6172 154.111,101.784 139.5,135.5 Z"/></g>
<g><path style="opacity:1" fill="#383238" d="M 300.5,37.5 C 300.897,36.475 301.563,36.3083 302.5,37C 332.793,66.7494 351.626,102.583 359,144.5C 349.858,111.358 335.191,81.0249 315,53.5C 310.301,47.9714 305.468,42.638 300.5,37.5 Z"/></g>
<g><path style="opacity:1" fill="#c6dce2" d="M 20.5,54.5 C 29.3995,53.6956 35.5662,57.3622 39,65.5C 40.3123,74.3736 36.8123,80.5402 28.5,84C 19.7078,85.3491 13.5411,81.8491 10,73.5C 8.79397,64.5796 12.294,58.2462 20.5,54.5 Z"/></g>
<g><path style="opacity:1" fill="#c6dce2" d="M 65.5,54.5 C 74.3995,53.6956 80.5662,57.3622 84,65.5C 85.3123,74.3736 81.8123,80.5402 73.5,84C 64.7078,85.3491 58.5411,81.8491 55,73.5C 53.794,64.5796 57.294,58.2462 65.5,54.5 Z"/></g>
<g><path style="opacity:1" fill="#c1d6dc" d="M 121.5,55.5 C 115.729,63.5937 110.396,71.927 105.5,80.5C 100.02,76.5636 98.1864,71.2302 100,64.5C 104.659,55.5571 111.826,52.5571 121.5,55.5 Z"/></g>
<g><path style="opacity:1" fill="#c3d8de" d="M 394.5,81.5 C 388.867,72.8561 383.2,64.1894 377.5,55.5C 379.646,55.1218 381.813,54.7885 384,54.5C 399.986,58.6218 403.486,67.6218 394.5,81.5 Z"/></g>
<g><path style="opacity:1" fill="#c6dce2" d="M 425.5,54.5 C 434.399,53.6956 440.566,57.3622 444,65.5C 445.312,74.3736 441.812,80.5402 433.5,84C 424.708,85.3491 418.541,81.8491 415,73.5C 413.794,64.5796 417.294,58.2462 425.5,54.5 Z"/></g>
<g><path style="opacity:1" fill="#c6dce2" d="M 470.5,54.5 C 479.399,53.6956 485.566,57.3622 489,65.5C 490.312,74.3736 486.812,80.5402 478.5,84C 469.708,85.3491 463.541,81.8491 460,73.5C 458.794,64.5796 462.294,58.2462 470.5,54.5 Z"/></g>
<g><path style="opacity:1" fill="#1b141c" d="M 181.5,58.5 C 171.438,68.7312 162.271,79.7312 154,91.5C 138.367,117.901 128.2,146.234 123.5,176.5C 120.572,177.817 117.572,179.15 114.5,180.5C 121.786,131.238 144.119,90.5715 181.5,58.5 Z"/></g>
<g><path style="opacity:1" fill="#030204" d="M 351.5,73.5 C 370.563,106.444 381.229,141.777 383.5,179.5C 378.329,144.821 367.829,111.821 352,80.5C 348.631,75.071 344.798,70.071 340.5,65.5C 333.006,55.4071 324.673,45.9071 315.5,37C 316.167,36.3333 316.833,36.3333 317.5,37C 323.015,42.6816 328.681,48.1816 334.5,53.5C 339.469,60.7988 345.135,67.4654 351.5,73.5 Z"/></g>
<g><path style="opacity:1" fill="#1a141b" d="M 340.5,65.5 C 344.798,70.071 348.631,75.071 352,80.5C 367.829,111.821 378.329,144.821 383.5,179.5C 382.609,178.89 381.609,178.557 380.5,178.5C 375.075,137.884 361.742,100.217 340.5,65.5 Z"/></g>
<g><path style="opacity:1" fill="#1b141c" d="M 304.5,170.5 C 303.609,171.11 302.609,171.443 301.5,171.5C 299.806,145.274 294.306,119.941 285,95.5C 285.387,107.484 285.887,119.484 286.5,131.5C 284.329,113.138 281.496,94.805 278,76.5C 293.019,106.062 301.853,137.395 304.5,170.5 Z"/></g>
<g><path style="opacity:1" fill="#040305" d="M 187.5,53.5 C 187.938,53.4346 188.272,53.6012 188.5,54C 182.333,60.8333 176.167,67.6667 170,74.5C 156.126,92.9141 145.96,113.247 139.5,135.5C 133.774,148.701 129.108,162.368 125.5,176.5C 124.833,176.5 124.167,176.5 123.5,176.5C 128.2,146.234 138.367,117.901 154,91.5C 162.271,79.7312 171.438,68.7312 181.5,58.5C 183.091,56.3674 185.091,54.7007 187.5,53.5 Z"/></g>
<g><path style="opacity:1" fill="#1b141c" d="M 351.5,73.5 C 369.178,96.5438 380.678,122.544 386,151.5C 391.153,185.07 391.82,218.736 388,252.5C 381.367,298.332 373.701,343.998 365,389.5C 362.224,407.461 361.89,425.461 364,443.5C 374.317,381.974 387.317,318.974 403,254.5C 403.654,253.304 404.154,253.304 404.5,254.5C 396.181,298.566 389.681,342.9 385,387.5C 381.59,425.743 385.757,463.077 397.5,499.5C 393.167,499.5 388.833,499.5 384.5,499.5C 382.31,475.722 380.977,451.889 380.5,428C 380.801,405.759 381.968,383.592 384,361.5C 377.883,398.259 375.883,435.259 378,472.5C 378.455,481.545 379.289,490.545 380.5,499.5C 369.167,499.5 357.833,499.5 346.5,499.5C 347.006,469.423 348.84,439.423 352,409.5C 358.831,349.519 365.331,289.519 371.5,229.5C 372.227,222.364 374.394,215.697 378,209.5C 380.479,207.686 382.979,206.019 385.5,204.5C 386.809,203.376 387.475,201.876 387.5,200C 386.787,194.524 386.287,189.024 386,183.5C 385.52,181.867 384.687,180.534 383.5,179.5C 381.229,141.777 370.563,106.444 351.5,73.5 Z"/></g>
<g><path style="opacity:1" fill="#171117" d="M 322.5,170.5 C 320.833,170.5 319.167,170.5 317.5,170.5C 317.576,155.592 315.743,140.925 312,126.5C 311.5,134.159 311.334,141.826 311.5,149.5C 310.88,132.244 309.714,114.911 308,97.5C 315.72,121.268 320.554,145.601 322.5,170.5 Z"/></g>
<g><path style="opacity:1" fill="#181218" d="M 351.5,172.5 C 349.833,172.5 348.167,172.5 346.5,172.5C 344.813,164.42 342.813,156.42 340.5,148.5C 339.635,145.029 338.468,141.696 337,138.5C 337.058,142.396 337.892,146.062 339.5,149.5C 340.025,155.824 340.525,162.158 341,168.5C 341.698,169.691 342.531,170.691 343.5,171.5C 341.833,171.5 340.167,171.5 338.5,171.5C 337.514,161.1 336.014,150.767 334,140.5C 330.402,126.501 327.069,112.501 324,98.5C 337.031,121.763 346.198,146.43 351.5,172.5 Z"/></g>
<g><path style="opacity:1" fill="#c6dce2" d="M 20.5,99.5 C 29.3995,98.6956 35.5662,102.362 39,110.5C 40.3123,119.374 36.8123,125.54 28.5,129C 19.7078,130.349 13.5411,126.849 10,118.5C 8.79397,109.58 12.294,103.246 20.5,99.5 Z"/></g>
<g><path style="opacity:1" fill="#c6dce2" d="M 65.5,99.5 C 74.3995,98.6956 80.5662,102.362 84,110.5C 85.3123,119.374 81.8123,125.54 73.5,129C 64.7078,130.349 58.5411,126.849 55,118.5C 53.794,109.58 57.294,103.246 65.5,99.5 Z"/></g>
<g><path style="opacity:1" fill="#0a0809" d="M 252.5,186.5 C 251.833,185.167 251.167,183.833 250.5,182.5C 246.362,160.34 243.529,138.006 242,115.5C 238.424,134.031 235.924,152.697 234.5,171.5C 233.902,175.42 233.235,178.753 232.5,181.5C 231.909,152.894 235.742,124.894 244,97.5C 245.942,127.249 248.776,156.916 252.5,186.5 Z"/></g>
<g><path style="opacity:1" fill="#0c0a0b" d="M 301.5,171.5 C 300.833,171.5 300.167,171.5 299.5,171.5C 296.972,152 293.472,132.666 289,113.5C 290.095,127.124 290.928,140.791 291.5,154.5C 291.666,160.509 291.499,166.509 291,172.5C 290.617,173.056 290.117,173.389 289.5,173.5C 288.583,159.494 287.583,145.494 286.5,131.5C 285.887,119.484 285.387,107.484 285,95.5C 294.306,119.941 299.806,145.274 301.5,171.5 Z"/></g>
<g><path style="opacity:1" fill="#c6dce2" d="M 425.5,99.5 C 434.399,98.6956 440.566,102.362 444,110.5C 445.312,119.374 441.812,125.54 433.5,129C 424.708,130.349 418.541,126.849 415,118.5C 413.794,109.58 417.294,103.246 425.5,99.5 Z"/></g>
<g><path style="opacity:1" fill="#c6dce2" d="M 470.5,99.5 C 479.399,98.6956 485.566,102.362 489,110.5C 490.312,119.374 486.812,125.54 478.5,129C 469.708,130.349 463.541,126.849 460,118.5C 458.794,109.58 462.294,103.246 470.5,99.5 Z"/></g>
<g><path style="opacity:1" fill="#d2b9b5" d="M 299.5,171.5 C 297.194,171.993 294.861,172.326 292.5,172.5C 292.823,166.31 292.49,160.31 291.5,154.5C 290.928,140.791 290.095,127.124 289,113.5C 293.472,132.666 296.972,152 299.5,171.5 Z"/></g>
<g><path style="opacity:1" fill="#1c151c" d="M 153.5,171.5 C 151.958,172.301 150.292,172.634 148.5,172.5C 150.983,151.731 156.65,131.897 165.5,113C 164.668,112.312 164.002,112.479 163.5,113.5C 157.819,125.228 153.152,137.228 149.5,149.5C 151.586,128.664 160.086,110.997 175,96.5C 161.566,119.46 154.399,144.46 153.5,171.5 Z"/></g>
<g><path style="opacity:1" fill="#dcc5c1" d="M 250.5,182.5 C 250.5,183.5 250.5,184.5 250.5,185.5C 237.507,189.847 232.173,185.18 234.5,171.5C 235.924,152.697 238.424,134.031 242,115.5C 243.529,138.006 246.362,160.34 250.5,182.5 Z"/></g>
<g><path style="opacity:1" fill="#120f12" d="M 187.5,170.5 C 186.833,170.5 186.167,170.5 185.5,170.5C 185.333,159.828 185.5,149.161 186,138.5C 187.143,132.176 187.81,125.842 188,119.5C 181.907,136.057 179.074,153.057 179.5,170.5C 178.5,170.5 177.5,170.5 176.5,170.5C 176.334,164.491 176.501,158.491 177,152.5C 178.323,133.214 184.657,115.881 196,100.5C 194.631,107.974 192.631,115.308 190,122.5C 188.921,138.49 188.087,154.49 187.5,170.5 Z"/></g>
<g><path style="opacity:1" fill="#cdb3af" d="M 185.5,170.5 C 183.5,170.5 181.5,170.5 179.5,170.5C 179.074,153.057 181.907,136.057 188,119.5C 187.81,125.842 187.143,132.176 186,138.5C 185.5,149.161 185.333,159.828 185.5,170.5 Z"/></g>
<g><path style="opacity:1" fill="#373137" d="M 121.5,110.5 C 122.043,110.56 122.376,110.893 122.5,111.5C 107.745,144.522 99.245,179.189 97,215.5C 95.5994,232.166 95.2661,248.832 96,265.5C 88.9399,211.195 97.4399,159.528 121.5,110.5 Z"/></g>
<g><path style="opacity:1" fill="#cfb5b1" d="M 317.5,170.5 C 314.612,171.01 312.279,170.344 310.5,168.5C 311.014,162.178 311.347,155.845 311.5,149.5C 311.334,141.826 311.5,134.159 312,126.5C 315.743,140.925 317.576,155.592 317.5,170.5 Z"/></g>
<g><path style="opacity:1" fill="#070508" d="M 148.5,172.5 C 147.833,172.5 147.167,172.5 146.5,172.5C 147.221,169.183 147.388,165.849 147,162.5C 145.326,166.021 144.16,169.687 143.5,173.5C 142.833,173.5 142.167,173.5 141.5,173.5C 144.374,165.545 147.041,157.545 149.5,149.5C 153.152,137.228 157.819,125.228 163.5,113.5C 164.002,112.479 164.668,112.312 165.5,113C 156.65,131.897 150.983,151.731 148.5,172.5 Z"/></g>
<g><path style="opacity:1" fill="#c6dce2" d="M 20.5,144.5 C 29.3995,143.696 35.5662,147.362 39,155.5C 40.3123,164.374 36.8123,170.54 28.5,174C 19.7078,175.349 13.5411,171.849 10,163.5C 8.79397,154.58 12.294,148.246 20.5,144.5 Z"/></g>
<g><path style="opacity:1" fill="#c4d9df" d="M 79.5,148.5 C 77.4969,157.178 75.4969,165.845 73.5,174.5C 70.4816,174.665 67.4816,174.498 64.5,174C 56.6293,169.759 53.4627,163.259 55,154.5C 61.1153,143.798 69.2819,141.798 79.5,148.5 Z"/></g>
<g><path style="opacity:1" fill="#c5dbe0" d="M 427.5,174.5 C 425.437,165.212 423.104,155.878 420.5,146.5C 429.535,142.677 437.035,144.677 443,152.5C 446.245,165.756 441.078,173.089 427.5,174.5 Z"/></g>
<g><path style="opacity:1" fill="#c6dce2" d="M 470.5,144.5 C 479.399,143.696 485.566,147.362 489,155.5C 490.312,164.374 486.812,170.54 478.5,174C 469.708,175.349 463.541,171.849 460,163.5C 458.794,154.58 462.294,148.246 470.5,144.5 Z"/></g>
<g><path style="opacity:1" fill="#080608" d="M 212.5,173.5 C 211.833,172.833 211.167,172.167 210.5,171.5C 210.001,166.508 209.501,161.508 209,156.5C 208.023,161.793 207.523,167.126 207.5,172.5C 206.833,172.5 206.167,172.5 205.5,172.5C 205.435,162.288 206.769,152.288 209.5,142.5C 210.459,152.846 211.459,163.179 212.5,173.5 Z"/></g>
<g><path style="opacity:1" fill="#877673" d="M 340.5,148.5 C 339.833,148.5 339.5,148.833 339.5,149.5C 337.892,146.062 337.058,142.396 337,138.5C 338.468,141.696 339.635,145.029 340.5,148.5 Z"/></g>
<g><path style="opacity:1" fill="#c9b0ac" d="M 340.5,148.5 C 342.813,156.42 344.813,164.42 346.5,172.5C 345.609,171.89 344.609,171.557 343.5,171.5C 342.531,170.691 341.698,169.691 341,168.5C 340.525,162.158 340.025,155.824 339.5,149.5C 339.5,148.833 339.833,148.5 340.5,148.5 Z"/></g>
<g><path style="opacity:1" fill="#373237" d="M 392.5,132.5 C 403.467,158.648 407.634,185.981 405,214.5C 404.078,226.876 402.745,239.21 401,251.5C 402.295,228.198 402.629,204.865 402,181.5C 400.894,164.746 397.727,148.412 392.5,132.5 Z"/></g>
<g><path style="opacity:1" fill="#b6a09d" d="M 210.5,171.5 C 209.947,173.552 208.947,173.885 207.5,172.5C 207.523,167.126 208.023,161.793 209,156.5C 209.501,161.508 210.001,166.508 210.5,171.5 Z"/></g>
<g><path style="opacity:1" fill="#a7908d" d="M 146.5,172.5 C 145.791,173.404 144.791,173.737 143.5,173.5C 144.16,169.687 145.326,166.021 147,162.5C 147.388,165.849 147.221,169.183 146.5,172.5 Z"/></g>
<g><path style="opacity:1" fill="#361f17" d="M 291.5,154.5 C 292.49,160.31 292.823,166.31 292.5,172.5C 294.861,172.326 297.194,171.993 299.5,171.5C 300.167,171.5 300.833,171.5 301.5,171.5C 302.609,171.443 303.609,171.11 304.5,170.5C 306.886,170.741 308.886,170.075 310.5,168.5C 312.279,170.344 314.612,171.01 317.5,170.5C 319.167,170.5 320.833,170.5 322.5,170.5C 327.854,170.569 333.187,170.902 338.5,171.5C 340.167,171.5 341.833,171.5 343.5,171.5C 344.609,171.557 345.609,171.89 346.5,172.5C 348.167,172.5 349.833,172.5 351.5,172.5C 361.271,173.988 370.938,175.988 380.5,178.5C 381.609,178.557 382.609,178.89 383.5,179.5C 384.687,180.534 385.52,181.867 386,183.5C 386.287,189.024 386.787,194.524 387.5,200C 387.475,201.876 386.809,203.376 385.5,204.5C 384.672,193.02 379.005,184.853 368.5,180C 338.091,170.906 307.425,170.073 276.5,177.5C 280.502,175.39 284.835,174.057 289.5,173.5C 290.117,173.389 290.617,173.056 291,172.5C 291.499,166.509 291.666,160.509 291.5,154.5 Z"/></g>
<g><path style="opacity:1" fill="#291610" d="M 176.5,170.5 C 177.5,170.5 178.5,170.5 179.5,170.5C 181.5,170.5 183.5,170.5 185.5,170.5C 186.167,170.5 186.833,170.5 187.5,170.5C 193.5,171.167 199.5,171.833 205.5,172.5C 206.167,172.5 206.833,172.5 207.5,172.5C 208.947,173.885 209.947,173.552 210.5,171.5C 211.167,172.167 211.833,172.833 212.5,173.5C 219.235,175.968 225.902,178.635 232.5,181.5C 233.235,178.753 233.902,175.42 234.5,171.5C 232.173,185.18 237.507,189.847 250.5,185.5C 250.5,184.5 250.5,183.5 250.5,182.5C 251.167,183.833 251.833,185.167 252.5,186.5C 254.869,186.851 257.203,187.018 259.5,187C 264.295,182.269 269.962,179.102 276.5,177.5C 307.425,170.073 338.091,170.906 368.5,180C 379.005,184.853 384.672,193.02 385.5,204.5C 382.979,206.019 380.479,207.686 378,209.5C 374.394,215.697 372.227,222.364 371.5,229.5C 370.262,231.214 369.595,233.214 369.5,235.5C 366.597,239.63 363.93,243.963 361.5,248.5C 355.057,256.395 346.724,261.228 336.5,263C 301.678,270.675 277.511,258.175 264,225.5C 261.68,217.915 259.68,210.248 258,202.5C 255.959,200.026 253.292,199.026 250,199.5C 246.479,199.083 243.479,200.083 241,202.5C 238.206,222.586 229.706,239.753 215.5,254C 209.186,259.489 201.853,262.822 193.5,264C 174.988,267.379 157.988,264.046 142.5,254C 138.877,250.551 135.877,246.717 133.5,242.5C 131.344,237.342 129.011,232.342 126.5,227.5C 126.665,225.332 126.332,222.999 125.5,220.5C 124.448,212.346 120.114,207.013 112.5,204.5C 111.781,196.407 112.448,188.407 114.5,180.5C 117.572,179.15 120.572,177.817 123.5,176.5C 124.167,176.5 124.833,176.5 125.5,176.5C 130.778,175.245 136.111,174.245 141.5,173.5C 142.167,173.5 142.833,173.5 143.5,173.5C 144.791,173.737 145.791,173.404 146.5,172.5C 147.167,172.5 147.833,172.5 148.5,172.5C 150.292,172.634 151.958,172.301 153.5,171.5C 161.17,171.222 168.836,170.889 176.5,170.5 Z"/></g>
<g><path style="opacity:1" fill="#7b777a" d="M 226.5,187.5 C 222.119,187.372 217.785,187.705 213.5,188.5C 213.845,185.512 212.512,184.179 209.5,184.5C 207.36,185.254 205.194,185.921 203,186.5C 197.262,185.01 191.429,184.343 185.5,184.5C 186.339,179.665 184.339,176.999 179.5,176.5C 178.478,179.441 177.645,182.441 177,185.5C 173.704,187.304 170.204,187.804 166.5,187C 159.336,184.237 152.003,182.403 144.5,181.5C 167.218,174.036 190.218,173.536 213.5,180C 218.475,181.484 222.809,183.984 226.5,187.5 Z"/></g>
<g><path style="opacity:1" fill="#787578" d="M 343.5,178.5 C 342.414,178.62 341.747,179.287 341.5,180.5C 342.269,183.115 342.603,185.781 342.5,188.5C 334.167,188.5 325.833,188.5 317.5,188.5C 317.5,184.5 317.5,180.5 317.5,176.5C 314.882,176.779 312.382,177.446 310,178.5C 308.646,182.363 308.146,186.363 308.5,190.5C 306.167,190.5 303.833,190.5 301.5,190.5C 301.492,187.455 301.159,184.455 300.5,181.5C 297.833,181.833 295.167,182.167 292.5,182.5C 292.5,185.167 292.5,187.833 292.5,190.5C 285.131,191.24 277.798,192.24 270.5,193.5C 270.768,191.901 270.434,190.568 269.5,189.5C 284.089,178.735 300.589,174.069 319,175.5C 327.47,175.165 335.637,176.165 343.5,178.5 Z"/></g>
<g><path style="opacity:1" fill="#7b7679" d="M 346.5,178.5 C 350.382,180.19 354.382,181.69 358.5,183C 359.71,184.039 360.71,185.206 361.5,186.5C 357.806,188.412 353.806,188.912 349.5,188C 348.421,184.85 347.421,181.684 346.5,178.5 Z"/></g>
<g><path style="opacity:1" fill="#777374" d="M 140.5,183.5 C 140.143,185.589 139.477,187.589 138.5,189.5C 137.818,188.757 137.151,188.091 136.5,187.5C 137.5,185.833 138.833,184.5 140.5,183.5 Z"/></g>
<g><path style="opacity:1" fill="#e7d3d0" d="M 343.5,178.5 C 344.5,178.5 345.5,178.5 346.5,178.5C 347.421,181.684 348.421,184.85 349.5,188C 353.806,188.912 357.806,188.412 361.5,186.5C 363.167,187.5 364.5,188.833 365.5,190.5C 356.922,191.976 348.255,192.809 339.5,193C 337.065,193.075 336.398,193.908 337.5,195.5C 324.851,191.981 312.851,193.314 301.5,199.5C 300.167,199.833 298.833,200.167 297.5,200.5C 295.425,200.698 293.425,200.865 291.5,201C 295.429,197.869 299.763,195.536 304.5,194C 298.011,194.743 292.344,197.409 287.5,202C 282.764,202.979 278.098,204.146 273.5,205.5C 270.46,206.68 267.794,208.347 265.5,210.5C 263.296,202.863 264.629,195.863 269.5,189.5C 270.434,190.568 270.768,191.901 270.5,193.5C 277.798,192.24 285.131,191.24 292.5,190.5C 292.5,187.833 292.5,185.167 292.5,182.5C 295.167,182.167 297.833,181.833 300.5,181.5C 301.159,184.455 301.492,187.455 301.5,190.5C 303.833,190.5 306.167,190.5 308.5,190.5C 308.146,186.363 308.646,182.363 310,178.5C 312.382,177.446 314.882,176.779 317.5,176.5C 317.5,180.5 317.5,184.5 317.5,188.5C 325.833,188.5 334.167,188.5 342.5,188.5C 342.603,185.781 342.269,183.115 341.5,180.5C 341.747,179.287 342.414,178.62 343.5,178.5 Z"/></g>
<g><path style="opacity:1" fill="#c6dce2" d="M 20.5,189.5 C 29.3995,188.696 35.5662,192.362 39,200.5C 40.3123,209.374 36.8123,215.54 28.5,219C 19.7078,220.349 13.5411,216.849 10,208.5C 8.79397,199.58 12.294,193.246 20.5,189.5 Z"/></g>
<g><path style="opacity:1" fill="#c4dae0" d="M 71.5,189.5 C 70.701,199.491 70.0343,209.491 69.5,219.5C 60.6539,218.153 55.6539,212.986 54.5,204C 56.3233,194.678 61.9899,189.844 71.5,189.5 Z"/></g>
<g><path style="opacity:1" fill="#c5dbe1" d="M 429.5,189.5 C 435.27,189.97 439.77,192.637 443,197.5C 446.3,208.567 442.466,215.901 431.5,219.5C 431.23,209.471 430.564,199.471 429.5,189.5 Z"/></g>
<g><path style="opacity:1" fill="#c6dce2" d="M 470.5,189.5 C 479.399,188.696 485.566,192.362 489,200.5C 490.312,209.374 486.812,215.54 478.5,219C 469.708,220.349 463.541,216.849 460,208.5C 458.794,199.58 462.294,193.246 470.5,189.5 Z"/></g>
<g><path style="opacity:1" fill="#696868" d="M 337.5,195.5 C 344.283,197.711 351.283,198.877 358.5,199C 356.382,200.049 354.716,201.549 353.5,203.5C 347.51,201.332 341.51,200.666 335.5,201.5C 333.374,200.952 331.374,200.285 329.5,199.5C 320.329,198.465 310.995,198.465 301.5,199.5C 312.851,193.314 324.851,191.981 337.5,195.5 Z"/></g>
<g><path style="opacity:1" fill="#403f40" d="M 329.5,199.5 C 328.5,199.5 327.5,199.5 326.5,199.5C 313.956,198.468 302.622,201.468 292.5,208.5C 287.911,210.124 284.577,213.124 282.5,217.5C 281.624,217.631 280.957,217.298 280.5,216.5C 284.928,209.736 290.594,204.402 297.5,200.5C 298.833,200.167 300.167,199.833 301.5,199.5C 310.995,198.465 320.329,198.465 329.5,199.5 Z"/></g>
<g><path style="opacity:1" fill="#5f698f" d="M 326.5,199.5 C 329.262,201.596 331.262,204.262 332.5,207.5C 331.833,207.5 331.167,207.5 330.5,207.5C 329.833,206.167 328.833,205.167 327.5,204.5C 325.9,202.061 323.567,200.728 320.5,200.5C 318.825,200.868 317.825,201.868 317.5,203.5C 314.436,205.06 311.269,206.394 308,207.5C 307.692,206.692 307.192,206.025 306.5,205.5C 302.369,207.36 298.036,208.694 293.5,209.5C 293.5,208.833 293.167,208.5 292.5,208.5C 302.622,201.468 313.956,198.468 326.5,199.5 Z"/></g>
<g><path style="opacity:1" fill="#b7b8bd" d="M 327.5,204.5 C 324.287,204.19 321.287,204.523 318.5,205.5C 317.662,205.158 317.328,204.492 317.5,203.5C 317.825,201.868 318.825,200.868 320.5,200.5C 323.567,200.728 325.9,202.061 327.5,204.5 Z"/></g>
<g><path style="opacity:1" fill="#b5b7b9" d="M 326.5,199.5 C 327.5,199.5 328.5,199.5 329.5,199.5C 331.374,200.285 333.374,200.952 335.5,201.5C 342.665,202.009 346.998,205.676 348.5,212.5C 348.167,213.5 347.5,214.167 346.5,214.5C 346.785,212.712 346.452,211.045 345.5,209.5C 341.532,207.366 337.532,206.699 333.5,207.5C 333.167,207.5 332.833,207.5 332.5,207.5C 331.262,204.262 329.262,201.596 326.5,199.5 Z"/></g>
<g><path style="opacity:1" fill="#353535" d="M 335.5,201.5 C 341.51,200.666 347.51,201.332 353.5,203.5C 351.568,206.366 349.901,209.366 348.5,212.5C 346.998,205.676 342.665,202.009 335.5,201.5 Z"/></g>
<g><path style="opacity:1" fill="#f0d9d5" d="M 226.5,187.5 C 232.248,191.834 234.914,197.667 234.5,205C 232.793,225.419 223.793,241.753 207.5,254C 199.152,258.128 190.318,259.962 181,259.5C 157.802,262.414 142.136,253.081 134,231.5C 129.784,220.885 128.45,209.885 130,198.5C 131.172,194.142 133.339,190.475 136.5,187.5C 137.151,188.091 137.818,188.757 138.5,189.5C 139.477,187.589 140.143,185.589 140.5,183.5C 141.833,182.833 143.167,182.167 144.5,181.5C 152.003,182.403 159.336,184.237 166.5,187C 170.204,187.804 173.704,187.304 177,185.5C 177.645,182.441 178.478,179.441 179.5,176.5C 184.339,176.999 186.339,179.665 185.5,184.5C 191.429,184.343 197.262,185.01 203,186.5C 205.194,185.921 207.36,185.254 209.5,184.5C 212.512,184.179 213.845,185.512 213.5,188.5C 217.785,187.705 222.119,187.372 226.5,187.5 Z"/></g>
<g><path style="opacity:1" fill="#3e3e3e" d="M 199.5,200.5 C 207.534,203.702 213.868,209.035 218.5,216.5C 218.376,217.107 218.043,217.44 217.5,217.5C 213.46,213.458 209.127,209.791 204.5,206.5C 203.167,206.167 201.833,205.833 200.5,205.5C 197.368,202.89 193.701,201.223 189.5,200.5C 183.848,199.968 178.181,199.635 172.5,199.5C 164.715,199.817 157.881,202.484 152,207.5C 151.802,209.382 151.302,211.048 150.5,212.5C 148.472,208.816 146.472,205.15 144.5,201.5C 162.776,198.01 181.109,197.676 199.5,200.5 Z"/></g>
<g><path style="opacity:1" fill="#6a6969" d="M 199.5,200.5 C 181.109,197.676 162.776,198.01 144.5,201.5C 143.027,200.928 141.693,200.095 140.5,199C 144.833,198.667 149.167,198.333 153.5,198C 169.462,191.27 184.796,192.104 199.5,200.5 Z"/></g>
<g><path style="opacity:1" fill="#e6c3bd" d="M 297.5,200.5 C 290.594,204.402 284.928,209.736 280.5,216.5C 280.957,217.298 281.624,217.631 282.5,217.5C 281.058,218.82 280.392,220.486 280.5,222.5C 278.799,222.034 277.299,222.034 276,222.5C 273.821,220.652 271.987,218.485 270.5,216C 271.423,213.959 271.756,211.792 271.5,209.5C 272.552,209.649 273.552,209.483 274.5,209C 273.366,207.984 273.699,207.317 275.5,207C 274.584,206.722 273.918,206.222 273.5,205.5C 278.098,204.146 282.764,202.979 287.5,202C 292.344,197.409 298.011,194.743 304.5,194C 299.763,195.536 295.429,197.869 291.5,201C 293.425,200.865 295.425,200.698 297.5,200.5 Z"/></g>
<g><path style="opacity:1" fill="#f2d9d5" d="M 365.5,190.5 C 372.235,209.951 369.735,228.284 358,245.5C 352.294,252.105 345.127,256.272 336.5,258C 304.089,266.377 281.589,255.211 269,224.5C 267.203,219.977 266.036,215.31 265.5,210.5C 267.794,208.347 270.46,206.68 273.5,205.5C 273.918,206.222 274.584,206.722 275.5,207C 273.699,207.317 273.366,207.984 274.5,209C 273.552,209.483 272.552,209.649 271.5,209.5C 271.756,211.792 271.423,213.959 270.5,216C 271.987,218.485 273.821,220.652 276,222.5C 277.299,222.034 278.799,222.034 280.5,222.5C 281.852,227.512 285.186,230.512 290.5,231.5C 290.611,232.117 290.944,232.617 291.5,233C 305.205,236.283 318.872,236.283 332.5,233C 334.618,231.951 336.284,230.451 337.5,228.5C 341.016,224.126 344.016,219.46 346.5,214.5C 347.5,214.167 348.167,213.5 348.5,212.5C 349.901,209.366 351.568,206.366 353.5,203.5C 354.716,201.549 356.382,200.049 358.5,199C 351.283,198.877 344.283,197.711 337.5,195.5C 336.398,193.908 337.065,193.075 339.5,193C 348.255,192.809 356.922,191.976 365.5,190.5 Z"/></g>
<g><path style="opacity:1" fill="#1b141c" d="M 112.5,204.5 C 120.114,207.013 124.448,212.346 125.5,220.5C 125.082,235.374 125.915,250.374 128,265.5C 132.817,296.066 138.817,326.4 146,356.5C 154.06,403.819 157.227,451.486 155.5,499.5C 146.167,499.5 136.833,499.5 127.5,499.5C 130.673,452.183 128.173,405.183 120,358.5C 122.073,378.094 123.739,397.761 125,417.5C 125.694,444.857 125.194,472.19 123.5,499.5C 117.5,499.5 111.5,499.5 105.5,499.5C 115.884,449.358 119.718,398.692 117,347.5C 115.663,328.804 114.33,310.137 113,291.5C 117.649,315.391 121.649,339.391 125,363.5C 130.988,406.657 132.988,449.991 131,493.5C 135.841,442.774 135.174,392.108 129,341.5C 123.088,295.867 117.588,250.201 112.5,204.5 Z"/></g>
<g><path style="opacity:1" fill="#b7b8bd" d="M 189.5,200.5 C 193.701,201.223 197.368,202.89 200.5,205.5C 201.167,206.833 201.833,208.167 202.5,209.5C 198.693,208.002 194.693,207.002 190.5,206.5C 188.271,204.901 187.938,202.901 189.5,200.5 Z"/></g>
<g><path style="opacity:1" fill="#b0b2b4" d="M 172.5,199.5 C 171.167,201.5 169.5,203.167 167.5,204.5C 166.054,203.387 164.387,203.22 162.5,204C 159.969,207.128 156.636,208.628 152.5,208.5C 152.5,210.167 152.5,211.833 152.5,213.5C 151.673,214.439 151.006,214.105 150.5,212.5C 151.302,211.048 151.802,209.382 152,207.5C 157.881,202.484 164.715,199.817 172.5,199.5 Z"/></g>
<g><path style="opacity:1" fill="#707caf" d="M 184.5,225.5 C 188.179,225.333 190.846,223.666 192.5,220.5C 194.527,220.662 196.527,220.495 198.5,220C 197.833,219.667 197.167,219.333 196.5,219C 197.833,218.667 199.167,218.333 200.5,218C 198.5,217.667 196.5,217.333 194.5,217C 196.315,216.243 197.981,215.41 199.5,214.5C 201.759,213.656 202.759,211.989 202.5,209.5C 201.833,208.167 201.167,206.833 200.5,205.5C 201.833,205.833 203.167,206.167 204.5,206.5C 207.896,215.781 206.896,224.448 201.5,232.5C 193.252,233.469 184.918,233.802 176.5,233.5C 177.903,228.555 175.903,226.222 170.5,226.5C 170.325,228.621 170.659,230.621 171.5,232.5C 170.391,232.443 169.391,232.11 168.5,231.5C 163.67,225.48 162.337,218.813 164.5,211.5C 166.361,208.978 168.361,206.478 170.5,204C 173.167,203.333 175.833,203.333 178.5,204C 178.957,204.414 179.291,204.914 179.5,205.5C 178.738,205.911 177.738,206.077 176.5,206C 177.451,206.718 177.617,207.551 177,208.5C 175.578,206.362 173.745,205.195 171.5,205C 176.294,209.263 175.294,211.263 168.5,211C 170.167,212 171.833,213 173.5,214C 172.22,215.858 169.886,217.025 166.5,217.5C 169.107,218.318 171.774,218.818 174.5,219C 170.5,219.667 170.5,220.333 174.5,221C 172.158,222.171 169.824,223.338 167.5,224.5C 169.164,225.223 170.831,224.89 172.5,223.5C 173.428,225.335 174.594,225.668 176,224.5C 176.317,226.301 176.984,226.634 178,225.5C 178.333,226.167 178.667,226.833 179,227.5C 179.689,226.643 180.522,225.977 181.5,225.5C 182.514,232.11 183.514,232.11 184.5,225.5 Z"/></g>
<g><path style="opacity:1" fill="#e3e5ec" d="M 327.5,204.5 C 328.833,205.167 329.833,206.167 330.5,207.5C 332.272,210.817 331.439,213.15 328,214.5C 323.14,213.175 319.973,210.175 318.5,205.5C 321.287,204.523 324.287,204.19 327.5,204.5 Z"/></g>
<g><path style="opacity:1" fill="#5c6a9e" d="M 172.5,199.5 C 178.181,199.635 183.848,199.968 189.5,200.5C 187.938,202.901 188.271,204.901 190.5,206.5C 192.233,210.565 195.233,213.232 199.5,214.5C 197.981,215.41 196.315,216.243 194.5,217C 196.5,217.333 198.5,217.667 200.5,218C 199.167,218.333 197.833,218.667 196.5,219C 197.167,219.333 197.833,219.667 198.5,220C 196.527,220.495 194.527,220.662 192.5,220.5C 193.803,214.477 191.47,210.811 185.5,209.5C 178.704,210.799 176.204,214.799 178,221.5C 179.944,223.221 182.11,224.554 184.5,225.5C 183.514,232.11 182.514,232.11 181.5,225.5C 180.522,225.977 179.689,226.643 179,227.5C 178.667,226.833 178.333,226.167 178,225.5C 176.984,226.634 176.317,226.301 176,224.5C 174.594,225.668 173.428,225.335 172.5,223.5C 170.831,224.89 169.164,225.223 167.5,224.5C 169.824,223.338 172.158,222.171 174.5,221C 170.5,220.333 170.5,219.667 174.5,219C 171.774,218.818 169.107,218.318 166.5,217.5C 169.886,217.025 172.22,215.858 173.5,214C 171.833,213 170.167,212 168.5,211C 175.294,211.263 176.294,209.263 171.5,205C 173.745,205.195 175.578,206.362 177,208.5C 177.617,207.551 177.451,206.718 176.5,206C 177.738,206.077 178.738,205.911 179.5,205.5C 179.291,204.914 178.957,204.414 178.5,204C 175.833,203.333 173.167,203.333 170.5,204C 168.361,206.478 166.361,208.978 164.5,211.5C 165.227,209.046 166.227,206.713 167.5,204.5C 169.5,203.167 171.167,201.5 172.5,199.5 Z"/></g>
<g><path style="opacity:1" fill="#e3e4eb" d="M 190.5,206.5 C 194.693,207.002 198.693,208.002 202.5,209.5C 202.759,211.989 201.759,213.656 199.5,214.5C 195.233,213.232 192.233,210.565 190.5,206.5 Z"/></g>
<g><path style="opacity:1" fill="#ebedf0" d="M 167.5,204.5 C 166.227,206.713 165.227,209.046 164.5,211.5C 162.337,218.813 163.67,225.48 168.5,231.5C 166.031,230.431 163.698,229.098 161.5,227.5C 157.473,223.435 154.473,218.768 152.5,213.5C 152.5,211.833 152.5,210.167 152.5,208.5C 156.636,208.628 159.969,207.128 162.5,204C 164.387,203.22 166.054,203.387 167.5,204.5 Z"/></g>
<g><path style="opacity:1" fill="#383a40" d="M 192.5,220.5 C 190.846,223.666 188.179,225.333 184.5,225.5C 182.11,224.554 179.944,223.221 178,221.5C 176.204,214.799 178.704,210.799 185.5,209.5C 191.47,210.811 193.803,214.477 192.5,220.5 Z"/></g>
<g><path style="opacity:1" fill="#f2f4f6" d="M 346.5,214.5 C 344.016,219.46 341.016,224.126 337.5,228.5C 335.833,229.167 334.167,229.833 332.5,230.5C 335.957,222.944 336.29,215.277 333.5,207.5C 337.532,206.699 341.532,207.366 345.5,209.5C 346.452,211.045 346.785,212.712 346.5,214.5 Z"/></g>
<g><path style="opacity:1" fill="#efeff0" d="M 292.5,208.5 C 293.167,208.5 293.5,208.833 293.5,209.5C 292.705,213.785 292.372,218.119 292.5,222.5C 293.639,226.112 295.306,229.446 297.5,232.5C 295.139,232.326 292.806,231.993 290.5,231.5C 285.186,230.512 281.852,227.512 280.5,222.5C 280.392,220.486 281.058,218.82 282.5,217.5C 284.577,213.124 287.911,210.124 292.5,208.5 Z"/></g>
<g><path style="opacity:1" fill="#7a85b6" d="M 304.5,227.5 C 298.252,226.661 297.252,228.661 301.5,233.5C 300.041,233.567 298.708,233.234 297.5,232.5C 295.306,229.446 293.639,226.112 292.5,222.5C 293.069,218.494 294.069,214.494 295.5,210.5C 297.769,211.815 300.102,212.982 302.5,214C 301.833,214.333 301.167,214.667 300.5,215C 301.624,215.249 302.624,215.749 303.5,216.5C 296.927,217.638 296.927,218.472 303.5,219C 299.5,219.667 299.5,220.333 303.5,221C 301.5,222 299.5,223 297.5,224C 298.899,224.595 300.232,224.428 301.5,223.5C 302.934,224.588 303.934,225.922 304.5,227.5 Z"/></g>
<g><path style="opacity:1" fill="#6674aa" d="M 317.5,203.5 C 317.328,204.492 317.662,205.158 318.5,205.5C 319.973,210.175 323.14,213.175 328,214.5C 331.439,213.15 332.272,210.817 330.5,207.5C 331.167,207.5 331.833,207.5 332.5,207.5C 332.833,207.5 333.167,207.5 333.5,207.5C 336.29,215.277 335.957,222.944 332.5,230.5C 330.233,231.423 327.9,232.256 325.5,233C 318.842,233.5 312.175,233.666 305.5,233.5C 306.484,231.402 306.151,229.402 304.5,227.5C 303.934,225.922 302.934,224.588 301.5,223.5C 300.232,224.428 298.899,224.595 297.5,224C 299.5,223 301.5,222 303.5,221C 299.5,220.333 299.5,219.667 303.5,219C 296.927,218.472 296.927,217.638 303.5,216.5C 302.624,215.749 301.624,215.249 300.5,215C 301.167,214.667 301.833,214.333 302.5,214C 300.102,212.982 297.769,211.815 295.5,210.5C 294.069,214.494 293.069,218.494 292.5,222.5C 292.372,218.119 292.705,213.785 293.5,209.5C 298.036,208.694 302.369,207.36 306.5,205.5C 307.192,206.025 307.692,206.692 308,207.5C 311.269,206.394 314.436,205.06 317.5,203.5 Z"/></g>
<g><path style="opacity:1" fill="#383a40" d="M 311.5,209.5 C 319.149,209.314 322.315,212.981 321,220.5C 318.36,225.453 314.527,226.62 309.5,224C 304.638,218.659 305.305,213.826 311.5,209.5 Z"/></g>
<g><path style="opacity:1" fill="#e9eaec" d="M 204.5,206.5 C 209.127,209.791 213.46,213.458 217.5,217.5C 218.984,220.584 218.818,223.584 217,226.5C 213.714,228.974 210.214,230.974 206.5,232.5C 204.833,232.5 203.167,232.5 201.5,232.5C 206.896,224.448 207.896,215.781 204.5,206.5 Z"/></g>
<g><path style="opacity:1" fill="#d3d5e4" d="M 304.5,227.5 C 306.151,229.402 306.484,231.402 305.5,233.5C 304.167,233.5 302.833,233.5 301.5,233.5C 297.252,228.661 298.252,226.661 304.5,227.5 Z"/></g>
<g><path style="opacity:1" fill="#cfd4e5" d="M 176.5,233.5 C 174.958,232.699 173.292,232.366 171.5,232.5C 170.659,230.621 170.325,228.621 170.5,226.5C 175.903,226.222 177.903,228.555 176.5,233.5 Z"/></g>
<g><path style="opacity:1" fill="#4e4d4f" d="M 161.5,227.5 C 163.698,229.098 166.031,230.431 168.5,231.5C 169.391,232.11 170.391,232.443 171.5,232.5C 173.292,232.366 174.958,232.699 176.5,233.5C 184.918,233.802 193.252,233.469 201.5,232.5C 203.167,232.5 204.833,232.5 206.5,232.5C 203.423,233.856 200.09,234.689 196.5,235C 188.167,235.667 179.833,235.667 171.5,235C 167.319,233.487 163.652,231.154 160.5,228C 160.728,227.601 161.062,227.435 161.5,227.5 Z"/></g>
<g><path style="opacity:1" fill="#535154" d="M 337.5,228.5 C 336.284,230.451 334.618,231.951 332.5,233C 318.872,236.283 305.205,236.283 291.5,233C 290.944,232.617 290.611,232.117 290.5,231.5C 292.806,231.993 295.139,232.326 297.5,232.5C 298.708,233.234 300.041,233.567 301.5,233.5C 302.833,233.5 304.167,233.5 305.5,233.5C 312.175,233.666 318.842,233.5 325.5,233C 327.9,232.256 330.233,231.423 332.5,230.5C 334.167,229.833 335.833,229.167 337.5,228.5 Z"/></g>
<g><path style="opacity:1" fill="#c6dce2" d="M 20.5,234.5 C 29.3995,233.696 35.5662,237.362 39,245.5C 40.3123,254.374 36.8123,260.54 28.5,264C 19.7078,265.349 13.5411,261.849 10,253.5C 8.79397,244.58 12.294,238.246 20.5,234.5 Z"/></g>
<g><path style="opacity:1" fill="#c6dce2" d="M 470.5,234.5 C 479.399,233.696 485.566,237.362 489,245.5C 490.312,254.374 486.812,260.54 478.5,264C 469.708,265.349 463.541,261.849 460,253.5C 458.794,244.58 462.294,238.246 470.5,234.5 Z"/></g>
<g><path style="opacity:1" fill="#c3d9de" d="M 69.5,229.5 C 69.5,241.167 69.5,252.833 69.5,264.5C 64.3219,264.157 60.1553,261.824 57,257.5C 52.2539,245.659 56.0873,237.992 68.5,234.5C 68.2155,232.585 68.5489,230.919 69.5,229.5 Z"/></g>
<g><path style="opacity:1" fill="#bbcfd4" d="M 431.5,226.5 C 432.477,229.287 432.81,232.287 432.5,235.5C 434.308,235.491 435.975,235.991 437.5,237C 447.751,247.897 446.251,257.064 433,264.5C 432.809,266.708 432.309,268.708 431.5,270.5C 431.5,255.833 431.5,241.167 431.5,226.5 Z"/></g>
<g><path style="opacity:1" fill="#d2b4b0" d="M 369.5,235.5 C 366.485,263.986 362.485,292.319 357.5,320.5C 355.37,322.529 353.704,324.862 352.5,327.5C 353.687,320.194 354.687,312.861 355.5,305.5C 358.351,287.212 361.017,268.879 363.5,250.5C 363.253,249.287 362.586,248.62 361.5,248.5C 363.93,243.963 366.597,239.63 369.5,235.5 Z"/></g>
<g><path style="opacity:1" fill="#f2d3ce" d="M 361.5,248.5 C 362.586,248.62 363.253,249.287 363.5,250.5C 361.017,268.879 358.351,287.212 355.5,305.5C 340.86,336.24 319.527,361.406 291.5,381C 259.742,398.995 229.075,397.328 199.5,376C 174.235,356.25 155.235,331.75 142.5,302.5C 138.206,283.86 134.872,265.027 132.5,246C 132.514,244.615 132.848,243.449 133.5,242.5C 135.877,246.717 138.877,250.551 142.5,254C 157.988,264.046 174.988,267.379 193.5,264C 201.853,262.822 209.186,259.489 215.5,254C 229.706,239.753 238.206,222.586 241,202.5C 243.479,200.083 246.479,199.083 250,199.5C 253.292,199.026 255.959,200.026 258,202.5C 259.68,210.248 261.68,217.915 264,225.5C 277.511,258.175 301.678,270.675 336.5,263C 346.724,261.228 355.057,256.395 361.5,248.5 Z"/></g>
<g><path style="opacity:1" fill="#f6dcd8" d="M 241.5,321.5 C 241.167,321.5 240.833,321.5 240.5,321.5C 240.918,320.778 241.584,320.278 242.5,320C 239.167,319.667 235.833,319.333 232.5,319C 233.167,318.667 233.833,318.333 234.5,318C 231.833,317 229.167,316 226.5,315C 227.167,314.667 227.833,314.333 228.5,314C 227.167,313.667 225.833,313.333 224.5,313C 225.167,312.667 225.833,312.333 226.5,312C 224.5,311.667 222.5,311.333 220.5,311C 221.167,310.667 221.833,310.333 222.5,310C 220.774,308.47 218.774,307.47 216.5,307C 219.167,306.333 219.167,305.667 216.5,305C 217.167,304.667 217.833,304.333 218.5,304C 217.167,303.667 215.833,303.333 214.5,303C 216.878,302.026 216.544,301.359 213.5,301C 217.185,300.086 216.852,299.419 212.5,299C 215.167,298.333 215.167,297.667 212.5,297C 213.167,296.667 213.833,296.333 214.5,296C 213.167,295.667 211.833,295.333 210.5,295C 213.167,294.333 213.167,293.667 210.5,293C 212.878,292.026 212.544,291.359 209.5,291C 210.925,289.286 210.592,287.953 208.5,287C 211.167,286.333 211.167,285.667 208.5,285C 211.167,284.333 211.167,283.667 208.5,283C 211.167,282.333 211.167,281.667 208.5,281C 211.167,280.333 211.167,279.667 208.5,279C 211.167,278.333 211.167,277.667 208.5,277C 211.167,276.333 211.167,275.667 208.5,275C 209.833,274 211.167,273 212.5,272C 211.833,271.667 211.167,271.333 210.5,271C 211.833,270 213.167,269 214.5,268C 211.833,267.333 211.833,266.667 214.5,266C 213.833,265.667 213.167,265.333 212.5,265C 217.833,264.333 217.833,263.667 212.5,263C 214.774,262.53 216.774,261.53 218.5,260C 217.833,259.667 217.167,259.333 216.5,259C 217.833,258 219.167,257 220.5,256C 219.833,255.667 219.167,255.333 218.5,255C 219.833,254.667 221.167,254.333 222.5,254C 221.833,253.667 221.167,253.333 220.5,253C 222.5,252.667 224.5,252.333 226.5,252C 225.833,251.667 225.167,251.333 224.5,251C 226.226,249.47 228.226,248.47 230.5,248C 229.833,247.667 229.167,247.333 228.5,247C 234.166,245.387 239.833,243.887 245.5,242.5C 245.846,237.784 246.513,233.117 247.5,228.5C 248.5,228.5 249.5,228.5 250.5,228.5C 251.984,233.033 252.65,237.699 252.5,242.5C 255.518,242.335 258.518,242.502 261.5,243C 259.5,243.333 257.5,243.667 255.5,244C 258.833,244.333 262.167,244.667 265.5,245C 264.833,245.333 264.167,245.667 263.5,246C 265.5,246.333 267.5,246.667 269.5,247C 268.833,247.333 268.167,247.667 267.5,248C 270.886,248.382 273.552,249.382 275.5,251C 274.833,251.333 274.167,251.667 273.5,252C 274.833,252.333 276.167,252.667 277.5,253C 276.833,253.333 276.167,253.667 275.5,254C 277.5,255 279.5,256 281.5,257C 280.833,257.333 280.167,257.667 279.5,258C 280.833,258.333 282.167,258.667 283.5,259C 282.833,259.333 282.167,259.667 281.5,260C 282.833,261 284.167,262 285.5,263C 284.833,263.333 284.167,263.667 283.5,264C 284.833,264.333 286.167,264.667 287.5,265C 284.833,265.667 284.833,266.333 287.5,267C 286.5,267.333 285.5,267.667 284.5,268C 286.359,268.684 288.026,269.684 289.5,271C 286.833,272.333 286.833,273.667 289.5,275C 286.833,275.667 286.833,276.333 289.5,277C 286.833,277.667 286.833,278.333 289.5,279C 286.833,279.667 286.833,280.333 289.5,281C 286.833,281.667 286.833,282.333 289.5,283C 286.833,283.667 286.833,284.333 289.5,285C 288.833,285.333 288.167,285.667 287.5,286C 292.833,286.667 292.833,287.333 287.5,288C 290.167,288.667 290.167,289.333 287.5,290C 288.167,290.333 288.833,290.667 289.5,291C 288.167,292.667 286.833,294.333 285.5,296C 288.167,296.667 288.167,297.333 285.5,298C 286.167,298.333 286.833,298.667 287.5,299C 286.167,299.333 284.833,299.667 283.5,300C 286.167,300.667 286.167,301.333 283.5,302C 284.167,302.333 284.833,302.667 285.5,303C 284.167,303.333 282.833,303.667 281.5,304C 282.167,304.333 282.833,304.667 283.5,305C 282.167,305.333 280.833,305.667 279.5,306C 280.167,306.333 280.833,306.667 281.5,307C 280.167,307.333 278.833,307.667 277.5,308C 280.167,308.667 280.167,309.333 277.5,310C 278.167,310.333 278.833,310.667 279.5,311C 277.5,311.333 275.5,311.667 273.5,312C 274.167,312.333 274.833,312.667 275.5,313C 274.167,313.333 272.833,313.667 271.5,314C 272.167,314.333 272.833,314.667 273.5,315C 271.5,315.333 269.5,315.667 267.5,316C 268.167,316.333 268.833,316.667 269.5,317C 267.5,317.333 265.5,317.667 263.5,318C 264.167,318.333 264.833,318.667 265.5,319C 257.568,320.538 249.568,321.372 241.5,321.5 Z"/></g>
<g><path style="opacity:1" fill="#383338" d="M 415.5,234.5 C 416.165,237.314 416.498,240.314 416.5,243.5C 412.85,305.856 412.683,368.19 416,430.5C 410.605,403.263 408.439,375.763 409.5,348C 409.626,310.065 411.626,272.232 415.5,234.5 Z"/></g>
<g><path style="opacity:1" fill="#373237" d="M 82.5,248.5 C 88.0405,290.185 89.8738,332.185 88,374.5C 87.6538,381.937 86.6538,389.271 85,396.5C 85.989,347.162 85.1557,297.828 82.5,248.5 Z"/></g>
<g><path style="opacity:1" fill="#d3b2ae" d="M 126.5,227.5 C 129.011,232.342 131.344,237.342 133.5,242.5C 132.848,243.449 132.514,244.615 132.5,246C 134.872,265.027 138.206,283.86 142.5,302.5C 144.344,311.54 146.344,320.54 148.5,329.5C 146.115,327.116 144.115,324.45 142.5,321.5C 133.944,290.836 128.611,259.503 126.5,227.5 Z"/></g>
<g><path style="opacity:1" fill="#c6dce2" d="M 20.5,279.5 C 29.3995,278.696 35.5662,282.362 39,290.5C 40.3123,299.374 36.8123,305.54 28.5,309C 19.7078,310.349 13.5411,306.849 10,298.5C 8.79397,289.58 12.294,283.246 20.5,279.5 Z"/></g>
<g><path style="opacity:1" fill="#c3d8de" d="M 69.5,272.5 C 70.5225,284.66 71.1891,296.993 71.5,309.5C 61.5893,309.093 55.9226,303.926 54.5,294C 56.0543,285.612 61.0543,280.779 69.5,279.5C 69.5,277.167 69.5,274.833 69.5,272.5 Z"/></g>
<g><path style="opacity:1" fill="#c6dce2" d="M 470.5,279.5 C 479.399,278.696 485.566,282.362 489,290.5C 490.312,299.374 486.812,305.54 478.5,309C 469.708,310.349 463.541,306.849 460,298.5C 458.794,289.58 462.294,283.246 470.5,279.5 Z"/></g>
<g><path style="opacity:1" fill="#c3d9de" d="M 431.5,279.5 C 436.259,280.747 440.092,283.413 443,287.5C 446.352,299.131 442.185,306.465 430.5,309.5C 430.795,311.735 430.461,313.735 429.5,315.5C 430.084,303.495 430.75,291.495 431.5,279.5 Z"/></g>
<g><path style="opacity:1" fill="#e1aea5" d="M 233.5,286.5 C 242.5,287.691 251.5,287.691 260.5,286.5C 269.157,286.336 270.491,289.169 264.5,295C 252.942,302.717 241.776,302.217 231,293.5C 230.162,290.519 230.995,288.186 233.5,286.5 Z"/></g>
<g><path style="opacity:1" fill="#e9c0ba" d="M 142.5,302.5 C 155.235,331.75 174.235,356.25 199.5,376C 229.075,397.328 259.742,398.995 291.5,381C 319.527,361.406 340.86,336.24 355.5,305.5C 354.687,312.861 353.687,320.194 352.5,327.5C 335.775,353.717 313.442,373.884 285.5,388C 255.618,399.801 226.951,397.468 199.5,381C 178.768,367.346 161.768,350.18 148.5,329.5C 146.344,320.54 144.344,311.54 142.5,302.5 Z"/></g>
<g><path style="opacity:1" fill="#c6dce2" d="M 20.5,324.5 C 29.3995,323.696 35.5662,327.362 39,335.5C 40.3123,344.374 36.8123,350.54 28.5,354C 19.7078,355.349 13.5411,351.849 10,343.5C 8.79397,334.58 12.294,328.246 20.5,324.5 Z"/></g>
<g><path style="opacity:1" fill="#baced3" d="M 71.5,318.5 C 73.4403,348.154 73.7736,377.821 72.5,407.5C 72.5,404.833 72.5,402.167 72.5,399.5C 72.5,389.5 72.5,379.5 72.5,369.5C 72.5,364.5 72.5,359.5 72.5,354.5C 62.0659,354.57 56.0659,349.404 54.5,339C 56.3233,329.678 61.9899,324.844 71.5,324.5C 71.5,322.5 71.5,320.5 71.5,318.5 Z"/></g>
<g><path style="opacity:1" fill="#c6dce2" d="M 470.5,324.5 C 479.399,323.696 485.566,327.362 489,335.5C 490.312,344.374 486.812,350.54 478.5,354C 469.708,355.349 463.541,351.849 460,343.5C 458.794,334.58 462.294,328.246 470.5,324.5 Z"/></g>
<g><path style="opacity:1" fill="#bf776b" d="M 357.5,320.5 C 357.911,324.463 357.078,328.13 355,331.5C 342.348,350.318 326.848,366.318 308.5,379.5C 307.883,379.611 307.383,379.944 307,380.5C 306.007,393.769 304.174,406.769 301.5,419.5C 301.5,416.5 301.5,413.5 301.5,410.5C 301.5,409.833 301.5,409.167 301.5,408.5C 302.23,400.07 303.23,391.57 304.5,383C 298.19,385.651 291.856,388.651 285.5,392C 262.283,401.503 238.95,401.836 215.5,393C 208.707,389.77 202.04,386.27 195.5,382.5C 195.167,383.333 194.833,384.167 194.5,385C 195.257,390.83 195.924,396.663 196.5,402.5C 196.5,408.167 196.5,413.833 196.5,419.5C 194.891,416.851 194.057,413.851 194,410.5C 193.745,400.424 192.745,390.424 191,380.5C 190.722,379.584 190.222,378.918 189.5,378.5C 171.106,365.604 155.939,349.604 144,330.5C 143.047,327.568 142.547,324.568 142.5,321.5C 144.115,324.45 146.115,327.116 148.5,329.5C 161.768,350.18 178.768,367.346 199.5,381C 226.951,397.468 255.618,399.801 285.5,388C 313.442,373.884 335.775,353.717 352.5,327.5C 353.704,324.862 355.37,322.529 357.5,320.5 Z"/></g>
<g><path style="opacity:1" fill="#ea4b6f" d="M 240.5,321.5 C 240.833,321.5 241.167,321.5 241.5,321.5C 243.823,322.342 246.157,323.342 248.5,324.5C 251.973,323.398 255.473,322.398 259,321.5C 266.353,322.935 273.52,324.935 280.5,327.5C 280.389,328.117 280.056,328.617 279.5,329C 269.823,329.723 260.157,330.557 250.5,331.5C 240.156,330.794 229.823,329.961 219.5,329C 218.944,328.617 218.611,328.117 218.5,327.5C 225.677,324.885 233.01,322.885 240.5,321.5 Z"/></g>
<g><path style="opacity:1" fill="#f96285" d="M 235.5,323.5 C 240.042,323.605 244.376,324.605 248.5,326.5C 255.847,323.886 263.18,324.053 270.5,327C 256.854,330.179 243.187,330.179 229.5,327C 231.432,325.541 233.432,324.375 235.5,323.5 Z"/></g>
<g><path style="opacity:1" fill="#0c090c" d="M 371.5,229.5 C 365.331,289.519 358.831,349.519 352,409.5C 348.84,439.423 347.006,469.423 346.5,499.5C 345.5,499.5 344.5,499.5 343.5,499.5C 343.472,472.787 344.472,446.12 346.5,419.5C 339.623,406.443 330.623,394.943 319.5,385C 316.01,382.588 312.343,380.755 308.5,379.5C 326.848,366.318 342.348,350.318 355,331.5C 357.078,328.13 357.911,324.463 357.5,320.5C 362.485,292.319 366.485,263.986 369.5,235.5C 369.595,233.214 370.262,231.214 371.5,229.5 Z"/></g>
<g><path style="opacity:1" fill="#0b080b" d="M 125.5,220.5 C 126.332,222.999 126.665,225.332 126.5,227.5C 128.611,259.503 133.944,290.836 142.5,321.5C 142.547,324.568 143.047,327.568 144,330.5C 155.939,349.604 171.106,365.604 189.5,378.5C 188.833,379.167 188.167,379.833 187.5,380.5C 185.973,380.427 184.973,381.094 184.5,382.5C 182.147,384.101 179.98,386.101 178,388.5C 172.735,397.363 166.735,405.696 160,413.5C 158.991,415.025 158.491,416.692 158.5,418.5C 159.416,445.486 159.75,472.486 159.5,499.5C 158.167,499.5 156.833,499.5 155.5,499.5C 157.227,451.486 154.06,403.819 146,356.5C 138.817,326.4 132.817,296.066 128,265.5C 125.915,250.374 125.082,235.374 125.5,220.5 Z"/></g>
<g><path style="opacity:1" fill="#dc3a5c" d="M 218.5,327.5 C 218.611,328.117 218.944,328.617 219.5,329C 229.823,329.961 240.156,330.794 250.5,331.5C 260.157,330.557 269.823,329.723 279.5,329C 280.056,328.617 280.389,328.117 280.5,327.5C 282.686,327.511 283.519,328.511 283,330.5C 267.604,347.893 249.437,351.727 228.5,342C 223.981,338.478 219.815,334.645 216,330.5C 215.481,328.511 216.314,327.511 218.5,327.5 Z"/></g>
<g><path style="opacity:1" fill="#ee436b" d="M 219.5,332.5 C 221.134,331.839 222.967,331.506 225,331.5C 233.049,332.135 241.049,333.135 249,334.5C 258.781,332.799 268.614,331.966 278.5,332C 258.824,349.824 239.157,349.991 219.5,332.5 Z"/></g>
<g><path style="opacity:1" fill="#fb5e82" d="M 262.5,333.5 C 265.518,333.335 268.518,333.502 271.5,334C 256.716,344.984 241.716,345.318 226.5,335C 234.632,333.828 242.466,334.661 250,337.5C 254.511,336.721 258.678,335.388 262.5,333.5 Z"/></g>
<g><path style="opacity:1" fill="#c6dce2" d="M 20.5,369.5 C 29.3995,368.696 35.5662,372.362 39,380.5C 40.3123,389.374 36.8123,395.54 28.5,399C 19.7078,400.349 13.5411,396.849 10,388.5C 8.79397,379.58 12.294,373.246 20.5,369.5 Z"/></g>
<g><path style="opacity:1" fill="#c6dce2" d="M 72.5,369.5 C 72.5,379.5 72.5,389.5 72.5,399.5C 62.0659,399.57 56.0659,394.404 54.5,384C 56.4673,374.202 62.4673,369.369 72.5,369.5 Z"/></g>
<g><path style="opacity:1" fill="#c2d6dc" d="M 429.5,324.5 C 435.27,324.97 439.77,327.637 443,332.5C 446.387,345.276 441.554,352.609 428.5,354.5C 428.5,359.5 428.5,364.5 428.5,369.5C 434.682,369.675 439.515,372.342 443,377.5C 446.387,390.276 441.554,397.609 428.5,399.5C 428.5,404.5 428.5,409.5 428.5,414.5C 428.5,414.833 428.5,415.167 428.5,415.5C 427.142,385.308 427.475,354.975 429.5,324.5 Z"/></g>
<g><path style="opacity:1" fill="#c6dce2" d="M 470.5,369.5 C 479.399,368.696 485.566,372.362 489,380.5C 490.312,389.374 486.812,395.54 478.5,399C 469.708,400.349 463.541,396.849 460,388.5C 458.794,379.58 462.294,373.246 470.5,369.5 Z"/></g>
<g><path style="opacity:1" fill="#b4aca3" d="M 189.5,378.5 C 190.222,378.918 190.722,379.584 191,380.5C 192.745,390.424 193.745,400.424 194,410.5C 194.057,413.851 194.891,416.851 196.5,419.5C 196.5,420.167 196.5,420.833 196.5,421.5C 204.024,445.893 216.191,467.559 233,486.5C 233.791,487.745 234.291,489.078 234.5,490.5C 226.82,482.315 219.654,473.648 213,464.5C 204.921,449.674 197.921,434.341 192,418.5C 191.518,408.155 190.851,397.821 190,387.5C 190.03,384.639 189.197,382.305 187.5,380.5C 188.167,379.833 188.833,379.167 189.5,378.5 Z"/></g>
<g><path style="opacity:1" fill="#dddad3" d="M 187.5,380.5 C 189.197,382.305 190.03,384.639 190,387.5C 190.851,397.821 191.518,408.155 192,418.5C 197.921,434.341 204.921,449.674 213,464.5C 219.654,473.648 226.82,482.315 234.5,490.5C 235.404,491.209 235.737,492.209 235.5,493.5C 233.938,493.267 232.605,492.6 231.5,491.5C 227.935,490.213 224.268,490.213 220.5,491.5C 206.852,468.505 189.852,448.172 169.5,430.5C 169.5,429.833 169.833,429.5 170.5,429.5C 180.645,436.076 190.645,442.91 200.5,450C 201.167,450.667 201.833,450.667 202.5,450C 189.888,433.28 181.222,414.78 176.5,394.5C 178.774,390.228 181.441,386.228 184.5,382.5C 184.973,381.094 185.973,380.427 187.5,380.5 Z"/></g>
<g><path style="opacity:1" fill="#aea79e" d="M 308.5,379.5 C 312.343,380.755 316.01,382.588 319.5,385C 330.623,394.943 339.623,406.443 346.5,419.5C 344.473,418.139 342.806,416.473 341.5,414.5C 335.563,405.565 328.896,397.232 321.5,389.5C 318.203,385.213 313.869,382.546 308.5,381.5C 308.123,395.238 306.956,408.904 305,422.5C 298.249,438.766 291.916,455.099 286,471.5C 285.207,477.341 284.374,483.174 283.5,489C 283.528,490.07 283.861,490.903 284.5,491.5C 284.158,492.338 283.492,492.672 282.5,492.5C 282.347,484.394 283.18,476.394 285,468.5C 288.346,459.789 291.679,451.122 295,442.5C 297.889,435.004 300.056,427.337 301.5,419.5C 304.174,406.769 306.007,393.769 307,380.5C 307.383,379.944 307.883,379.611 308.5,379.5 Z"/></g>
<g><path style="opacity:1" fill="#dddbd4" d="M 321.5,389.5 C 320.883,389.611 320.383,389.944 320,390.5C 317.548,409.018 312.381,426.684 304.5,443.5C 304.667,443.833 304.833,444.167 305,444.5C 313.781,438.367 322.948,433.2 332.5,429C 320.965,438.868 310.465,449.701 301,461.5C 295.434,469.964 290.934,478.964 287.5,488.5C 286.306,489.272 285.306,490.272 284.5,491.5C 283.861,490.903 283.528,490.07 283.5,489C 284.374,483.174 285.207,477.341 286,471.5C 291.916,455.099 298.249,438.766 305,422.5C 306.956,408.904 308.123,395.238 308.5,381.5C 313.869,382.546 318.203,385.213 321.5,389.5 Z"/></g>
<g><path style="opacity:1" fill="#fefefe" d="M 321.5,389.5 C 328.896,397.232 335.563,405.565 341.5,414.5C 339.394,442.789 338.394,471.122 338.5,499.5C 332.5,499.5 326.5,499.5 320.5,499.5C 313.932,494.799 306.932,490.632 299.5,487C 295.351,486.331 291.351,486.831 287.5,488.5C 290.934,478.964 295.434,469.964 301,461.5C 310.465,449.701 320.965,438.868 332.5,429C 322.948,433.2 313.781,438.367 305,444.5C 304.833,444.167 304.667,443.833 304.5,443.5C 312.381,426.684 317.548,409.018 320,390.5C 320.383,389.944 320.883,389.611 321.5,389.5 Z"/></g>
<g><path style="opacity:1" fill="#9a958e" d="M 184.5,382.5 C 181.441,386.228 178.774,390.228 176.5,394.5C 172.557,401.108 168.224,407.441 163.5,413.5C 162.194,415.473 160.527,417.139 158.5,418.5C 158.491,416.692 158.991,415.025 160,413.5C 166.735,405.696 172.735,397.363 178,388.5C 179.98,386.101 182.147,384.101 184.5,382.5 Z"/></g>
<g><path style="opacity:1" fill="#030204" d="M 384.5,499.5 C 383.167,499.5 381.833,499.5 380.5,499.5C 379.289,490.545 378.455,481.545 378,472.5C 375.883,435.259 377.883,398.259 384,361.5C 381.968,383.592 380.801,405.759 380.5,428C 380.977,451.889 382.31,475.722 384.5,499.5 Z"/></g>
<g><path style="opacity:1" fill="#fdfdfd" d="M 176.5,394.5 C 181.222,414.78 189.888,433.28 202.5,450C 201.833,450.667 201.167,450.667 200.5,450C 190.645,442.91 180.645,436.076 170.5,429.5C 168.565,428.19 166.565,426.857 164.5,425.5C 163.509,421.555 163.176,417.555 163.5,413.5C 168.224,407.441 172.557,401.108 176.5,394.5 Z"/></g>
<g><path style="opacity:1" fill="#d79c93" d="M 301.5,408.5 C 301.662,406.473 301.495,404.473 301,402.5C 266.215,402.736 231.382,402.736 196.5,402.5C 195.924,396.663 195.257,390.83 194.5,385C 194.833,384.167 195.167,383.333 195.5,382.5C 202.04,386.27 208.707,389.77 215.5,393C 238.95,401.836 262.283,401.503 285.5,392C 291.856,388.651 298.19,385.651 304.5,383C 303.23,391.57 302.23,400.07 301.5,408.5 Z"/></g>
<g><path style="opacity:1" fill="#1b141c" d="M 102.5,499.5 C 96.5,499.5 90.5,499.5 84.5,499.5C 91.2717,470.261 95.105,440.594 96,410.5C 101.058,439.854 103.224,469.52 102.5,499.5 Z"/></g>
<g><path style="opacity:1" fill="#040304" d="M 127.5,499.5 C 126.167,499.5 124.833,499.5 123.5,499.5C 125.194,472.19 125.694,444.857 125,417.5C 123.739,397.761 122.073,378.094 120,358.5C 128.173,405.183 130.673,452.183 127.5,499.5 Z"/></g>
<g><path style="opacity:1" fill="#f2d3ce" d="M 301.5,410.5 C 301.5,413.5 301.5,416.5 301.5,419.5C 300.056,427.337 297.889,435.004 295,442.5C 291.679,451.122 288.346,459.789 285,468.5C 283.18,476.394 282.347,484.394 282.5,492.5C 266.84,495.82 251.173,496.153 235.5,493.5C 235.737,492.209 235.404,491.209 234.5,490.5C 234.291,489.078 233.791,487.745 233,486.5C 216.191,467.559 204.024,445.893 196.5,421.5C 197.323,418.023 197.823,414.356 198,410.5C 222.865,427.408 249.698,431.241 278.5,422C 286.441,418.696 294.108,414.863 301.5,410.5 Z"/></g>
<g><path style="opacity:1" fill="#c6dce2" d="M 20.5,414.5 C 29.3995,413.696 35.5662,417.362 39,425.5C 40.3123,434.374 36.8123,440.54 28.5,444C 19.7078,445.349 13.5411,441.849 10,433.5C 8.79397,424.58 12.294,418.246 20.5,414.5 Z"/></g>
<g><path style="opacity:1" fill="#c4d9df" d="M 72.5,414.5 C 71.9658,424.521 71.2991,434.521 70.5,444.5C 61.1185,443.62 55.7851,438.453 54.5,429C 56.4673,419.202 62.4673,414.369 72.5,414.5 Z"/></g>
<g><path style="opacity:1" fill="#e0aca4" d="M 196.5,402.5 C 231.382,402.736 266.215,402.736 301,402.5C 301.495,404.473 301.662,406.473 301.5,408.5C 301.5,409.167 301.5,409.833 301.5,410.5C 294.108,414.863 286.441,418.696 278.5,422C 249.698,431.241 222.865,427.408 198,410.5C 197.823,414.356 197.323,418.023 196.5,421.5C 196.5,420.833 196.5,420.167 196.5,419.5C 196.5,413.833 196.5,408.167 196.5,402.5 Z"/></g>
<g><path style="opacity:1" fill="#c5dae0" d="M 428.5,414.5 C 434.682,414.675 439.515,417.342 443,422.5C 446.352,434.131 442.185,441.465 430.5,444.5C 429.38,434.918 428.713,425.252 428.5,415.5C 428.5,415.167 428.5,414.833 428.5,414.5 Z"/></g>
<g><path style="opacity:1" fill="#c6dce2" d="M 470.5,414.5 C 479.399,413.696 485.566,417.362 489,425.5C 490.312,434.374 486.812,440.54 478.5,444C 469.708,445.349 463.541,441.849 460,433.5C 458.794,424.58 462.294,418.246 470.5,414.5 Z"/></g>
<g><path style="opacity:1" fill="#e2e2e2" d="M 163.5,413.5 C 163.176,417.555 163.509,421.555 164.5,425.5C 166.565,426.857 168.565,428.19 170.5,429.5C 169.833,429.5 169.5,429.833 169.5,430.5C 167.608,429.298 165.774,427.965 164,426.5C 164.417,450.811 164.584,475.144 164.5,499.5C 162.833,499.5 161.167,499.5 159.5,499.5C 159.75,472.486 159.416,445.486 158.5,418.5C 160.527,417.139 162.194,415.473 163.5,413.5 Z"/></g>
<g><path style="opacity:1" fill="#e7e7e7" d="M 341.5,414.5 C 342.806,416.473 344.473,418.139 346.5,419.5C 344.472,446.12 343.472,472.787 343.5,499.5C 341.833,499.5 340.167,499.5 338.5,499.5C 338.394,471.122 339.394,442.789 341.5,414.5 Z"/></g>
<g><path style="opacity:1" fill="#fefefe" d="M 169.5,430.5 C 189.852,448.172 206.852,468.505 220.5,491.5C 215.632,493.382 211.299,496.048 207.5,499.5C 193.167,499.5 178.833,499.5 164.5,499.5C 164.584,475.144 164.417,450.811 164,426.5C 165.774,427.965 167.608,429.298 169.5,430.5 Z"/></g>
<g><path style="opacity:1" fill="#1b141c" d="M 418.5,499.5 C 414.833,499.5 411.167,499.5 407.5,499.5C 405.691,473.861 404.858,448.195 405,422.5C 406.606,448.694 411.106,474.36 418.5,499.5 Z"/></g>
<g><path style="opacity:1" fill="#18879c" d="M 69.5,455.5 C 69.8016,458.059 69.4682,460.393 68.5,462.5C 68.5,461.5 68.5,460.5 68.5,459.5C 46.1397,465.534 29.8064,478.867 19.5,499.5C 17.5,499.5 15.5,499.5 13.5,499.5C 14.7256,495.38 16.7256,491.713 19.5,488.5C 24.8605,481.139 31.1939,474.806 38.5,469.5C 48.2304,463.468 58.5637,458.801 69.5,455.5 Z"/></g>
<g><path style="opacity:1" fill="#c6dce2" d="M 38.5,469.5 C 31.1939,474.806 24.8605,481.139 19.5,488.5C 7.0424,480.211 6.37574,471.045 17.5,461C 26.9861,457.881 33.9861,460.714 38.5,469.5 Z"/></g>
<g><path style="opacity:1" fill="#1db8d2" d="M 68.5,462.5 C 68.5,463.167 68.5,463.833 68.5,464.5C 50.3295,471.994 35.3295,483.66 23.5,499.5C 22.1667,499.5 20.8333,499.5 19.5,499.5C 29.8064,478.867 46.1397,465.534 68.5,459.5C 68.5,460.5 68.5,461.5 68.5,462.5 Z"/></g>
<g><path style="opacity:1" fill="#c5dbe1" d="M 477.5,489.5 C 472.5,482.5 466.5,476.5 459.5,471.5C 467.003,457.166 476.503,455.833 488,467.5C 491.233,478.034 487.733,485.368 477.5,489.5 Z"/></g>
<g><path style="opacity:1" fill="#18879c" d="M 431.5,458.5 C 432.968,459.869 434.635,461.036 436.5,462C 444.67,464.089 452.336,467.256 459.5,471.5C 466.5,476.5 472.5,482.5 477.5,489.5C 479.692,492.55 481.358,495.883 482.5,499.5C 480.833,499.5 479.167,499.5 477.5,499.5C 472.461,490.931 466.127,483.431 458.5,477C 450.172,472.002 441.506,467.835 432.5,464.5C 432.167,462.5 431.833,460.5 431.5,458.5 Z"/></g>
<g><path style="opacity:1" fill="#09a9c4" d="M 68.5,464.5 C 66.6094,476.176 64.6094,487.843 62.5,499.5C 49.5,499.5 36.5,499.5 23.5,499.5C 35.3295,483.66 50.3295,471.994 68.5,464.5 Z"/></g>
<g><path style="opacity:1" fill="#1eb8d2" d="M 432.5,464.5 C 441.506,467.835 450.172,472.002 458.5,477C 466.127,483.431 472.461,490.931 477.5,499.5C 474.167,499.5 470.833,499.5 467.5,499.5C 458.495,487.332 447.162,477.999 433.5,471.5C 432.631,469.283 432.298,466.95 432.5,464.5 Z"/></g>
<g><path style="opacity:1" fill="#08a8c3" d="M 433.5,471.5 C 447.162,477.999 458.495,487.332 467.5,499.5C 457.5,499.5 447.5,499.5 437.5,499.5C 435.95,490.198 434.616,480.865 433.5,471.5 Z"/></g>
<g><path style="opacity:1" fill="#afaba3" d="M 320.5,499.5 C 319.167,499.5 317.833,499.5 316.5,499.5C 310.948,494.644 304.615,490.977 297.5,488.5C 293.196,489.627 288.863,490.627 284.5,491.5C 285.306,490.272 286.306,489.272 287.5,488.5C 291.351,486.831 295.351,486.331 299.5,487C 306.932,490.632 313.932,494.799 320.5,499.5 Z"/></g>
<g><path style="opacity:1" fill="#b0aca3" d="M 231.5,491.5 C 229.265,491.205 227.265,491.539 225.5,492.5C 219.967,493.266 215.301,495.6 211.5,499.5C 210.167,499.5 208.833,499.5 207.5,499.5C 211.299,496.048 215.632,493.382 220.5,491.5C 224.268,490.213 227.935,490.213 231.5,491.5 Z"/></g>
<g><path style="opacity:1" fill="#0ea5bf" d="M 297.5,488.5 C 304.615,490.977 310.948,494.644 316.5,499.5C 281.5,499.5 246.5,499.5 211.5,499.5C 215.301,495.6 219.967,493.266 225.5,492.5C 231.228,493.68 236.895,495.18 242.5,497C 258.543,498.733 274.209,497.066 289.5,492C 292.476,491.295 295.142,490.129 297.5,488.5 Z"/></g>
<g><path style="opacity:1" fill="#2c8da0" d="M 297.5,488.5 C 295.142,490.129 292.476,491.295 289.5,492C 274.209,497.066 258.543,498.733 242.5,497C 236.895,495.18 231.228,493.68 225.5,492.5C 227.265,491.539 229.265,491.205 231.5,491.5C 232.605,492.6 233.938,493.267 235.5,493.5C 251.173,496.153 266.84,495.82 282.5,492.5C 283.492,492.672 284.158,492.338 284.5,491.5C 288.863,490.627 293.196,489.627 297.5,488.5 Z"/></g>
</svg>
